<svg xmlns="http://www.w3.org/2000/svg" width="180.645" height="60.384" viewBox="0 0 180.645 60.384"><defs><style>.a{fill:#a6a6a6;}.b{fill:#fff;}</style></defs><path class="a" d="M166.26,0H14.394c-.554,0-1.1,0-1.653,0-.462,0-.921.012-1.387.02A20.129,20.129,0,0,0,8.328.288a10.145,10.145,0,0,0-2.87.947,9.681,9.681,0,0,0-2.443,1.78,9.436,9.436,0,0,0-1.78,2.447A10,10,0,0,0,.293,8.335a19.709,19.709,0,0,0-.27,3.022c-.014.463-.015.928-.023,1.39V47.642c.008.468.009.922.023,1.39a19.675,19.675,0,0,0,.27,3.022,9.959,9.959,0,0,0,.944,2.876,9.358,9.358,0,0,0,1.78,2.437,9.484,9.484,0,0,0,2.443,1.78,10.091,10.091,0,0,0,2.87.951,20.331,20.331,0,0,0,3.025.267c.466.011.925.017,1.387.017.553,0,1.1,0,1.653,0H166.26c.542,0,1.093,0,1.636,0,.459,0,.931-.006,1.392-.017a20.049,20.049,0,0,0,3.019-.266,10.322,10.322,0,0,0,2.88-.953,9.476,9.476,0,0,0,2.441-1.78,9.694,9.694,0,0,0,1.784-2.437,10,10,0,0,0,.934-2.876,20.476,20.476,0,0,0,.279-3.021c.006-.469.006-.924.006-1.392.012-.549.012-1.094.012-1.651V14.4c0-.553,0-1.1-.012-1.648,0-.462,0-.927-.006-1.39a20.5,20.5,0,0,0-.279-3.022,10.045,10.045,0,0,0-.934-2.873,9.768,9.768,0,0,0-4.225-4.227,10.261,10.261,0,0,0-2.88-.947,19.648,19.648,0,0,0-3.019-.266c-.46-.008-.933-.017-1.392-.02-.543,0-1.094,0-1.636,0Z"/><path d="M12.3,58.625c-.46,0-.909-.006-1.365-.017a19.021,19.021,0,0,1-2.823-.246,8.868,8.868,0,0,1-2.5-.827A8.151,8.151,0,0,1,3.507,56a8.059,8.059,0,0,1-1.541-2.109,8.646,8.646,0,0,1-.82-2.5A18.733,18.733,0,0,1,.9,48.559C.885,48.24.873,47.18.873,47.18V12.3s.014-1.043.023-1.35a18.654,18.654,0,0,1,.249-2.826,8.7,8.7,0,0,1,.821-2.509A8.059,8.059,0,0,1,3.5,3.507,8.425,8.425,0,0,1,5.615,1.962a8.826,8.826,0,0,1,2.5-.821A19.161,19.161,0,0,1,10.942.893L12.3.875H167.451l1.378.02a18.563,18.563,0,0,1,2.8.245,9,9,0,0,1,2.523.827A8.438,8.438,0,0,1,177.8,5.62a8.681,8.681,0,0,1,.808,2.49,19.594,19.594,0,0,1,.263,2.849c0,.427,0,.888,0,1.344.012.566.012,1.105.012,1.649v31.6c0,.548,0,1.084-.012,1.623,0,.491,0,.941-.006,1.4a19.1,19.1,0,0,1-.258,2.8A8.621,8.621,0,0,1,177.8,53.9a8.256,8.256,0,0,1-1.532,2.093,8.146,8.146,0,0,1-2.114,1.543,8.816,8.816,0,0,1-2.518.83,18.8,18.8,0,0,1-2.822.246c-.442.011-.9.017-1.354.017l-1.636,0Z" transform="translate(0.441 0.442)"/><g transform="translate(15.011 13.224)"><path class="b" d="M32.247,23.5a7.448,7.448,0,0,1,3.547-6.25A7.625,7.625,0,0,0,29.786,14c-2.528-.265-4.978,1.513-6.267,1.513-1.313,0-3.3-1.487-5.431-1.442a8,8,0,0,0-6.734,4.105C8.443,23.217,10.615,30.625,13.4,34.7c1.4,1.995,3.026,4.223,5.16,4.144,2.088-.087,2.868-1.332,5.388-1.332,2.5,0,3.229,1.332,5.406,1.283,2.242-.038,3.652-2.005,5-4.019a16.5,16.5,0,0,0,2.285-4.655A7.2,7.2,0,0,1,32.247,23.5Z" transform="translate(-9.972 -6.065)"/><path class="b" d="M23.678,13.975A7.33,7.33,0,0,0,25.356,8.72a7.464,7.464,0,0,0-4.829,2.5,6.984,6.984,0,0,0-1.722,5.06A6.17,6.17,0,0,0,23.678,13.975Z" transform="translate(-5.515 -8.72)"/><g transform="translate(37.32 13.776)"><path class="b" d="M46.282,31.72H39.157l-1.712,5.052H34.427l6.75-18.694h3.136l6.749,18.694H47.992Zm-6.387-2.332h5.648l-2.785-8.2h-.077Z" transform="translate(-34.427 -17.766)"/><path class="b" d="M59.47,28.307c0,4.235-2.267,6.956-5.689,6.956a4.621,4.621,0,0,1-4.287-2.385h-.065v6.75h-2.8V21.49h2.708v2.267h.051a4.835,4.835,0,0,1,4.34-2.409C57.19,21.349,59.47,24.083,59.47,28.307Zm-2.875,0c0-2.759-1.427-4.573-3.6-4.573-2.138,0-3.575,1.852-3.575,4.573,0,2.746,1.438,4.585,3.575,4.585C55.168,32.892,56.6,31.09,56.6,28.307Z" transform="translate(-28.259 -16.115)"/><path class="b" d="M69.435,28.307c0,4.235-2.267,6.956-5.689,6.956a4.621,4.621,0,0,1-4.287-2.385h-.065v6.75H56.6V21.49H59.3v2.267h.051a4.835,4.835,0,0,1,4.34-2.409C67.155,21.349,69.435,24.083,69.435,28.307Zm-2.877,0c0-2.759-1.426-4.573-3.6-4.573-2.138,0-3.575,1.852-3.575,4.573,0,2.746,1.438,4.585,3.575,4.585,2.175,0,3.6-1.8,3.6-4.585Z" transform="translate(-23.223 -16.115)"/><path class="b" d="M72.671,31.668c.208,1.855,2.008,3.071,4.469,3.071,2.359,0,4.055-1.216,4.055-2.889,0-1.451-1.024-2.32-3.446-2.914l-2.424-.584c-3.432-.829-5.026-2.434-5.026-5.04,0-3.225,2.811-5.44,6.8-5.44,3.95,0,6.658,2.216,6.749,5.44H81.028c-.169-1.865-1.71-2.991-3.965-2.991s-3.8,1.14-3.8,2.8c0,1.322.985,2.1,3.395,2.695l2.059.506c3.836.908,5.428,2.448,5.428,5.183,0,3.5-2.785,5.687-7.215,5.687-4.146,0-6.946-2.139-7.126-5.52Z" transform="translate(-16.546 -17.871)"/><path class="b" d="M84.955,19.3v3.225h2.592V24.74H84.955v7.513c0,1.168.519,1.712,1.659,1.712a8.962,8.962,0,0,0,.92-.065v2.2a7.789,7.789,0,0,1-1.554.129c-2.759,0-3.836-1.037-3.836-3.681V24.74H80.163V22.525h1.981V19.3Z" transform="translate(-11.313 -17.149)"/><path class="b" d="M86.065,28.314c0-4.289,2.526-6.983,6.464-6.983s6.466,2.695,6.466,6.983-2.5,6.982-6.466,6.982S86.065,32.614,86.065,28.314Zm10.078,0c0-2.941-1.347-4.679-3.614-4.679s-3.613,1.749-3.613,4.679c0,2.954,1.346,4.676,3.613,4.676s3.614-1.722,3.614-4.676Z" transform="translate(-8.33 -16.122)"/><path class="b" d="M96.186,21.49h2.669v2.32h.065a3.249,3.249,0,0,1,3.277-2.461,4.283,4.283,0,0,1,.959.1v2.616A3.943,3.943,0,0,0,101.9,23.9a2.82,2.82,0,0,0-2.931,2.7,2.982,2.982,0,0,0,.015.434V35.12h-2.8Z" transform="translate(-3.215 -16.115)"/><path class="b" d="M113.511,31.125c-.376,2.473-2.785,4.171-5.868,4.171-3.965,0-6.426-2.655-6.426-6.917s2.475-7.048,6.309-7.048c3.771,0,6.142,2.591,6.142,6.723v.959h-9.627v.169a3.551,3.551,0,0,0,3.223,3.849,3.646,3.646,0,0,0,.444.011,3.083,3.083,0,0,0,3.148-1.916Zm-9.457-4.068h6.813a3.277,3.277,0,0,0-3.089-3.455q-.126-.007-.253,0a3.45,3.45,0,0,0-3.471,3.429Z" transform="translate(-0.673 -16.122)"/></g></g><g transform="translate(54.204 12.743)"><path class="b" d="M38.915,8.734a3.974,3.974,0,0,1,4.248,3.679,4.016,4.016,0,0,1-.021.784c0,2.869-1.551,4.519-4.227,4.519H35.671V8.734Zm-1.849,7.712H38.76A2.823,2.823,0,0,0,41.747,13.8a2.77,2.77,0,0,0-.026-.58A2.834,2.834,0,0,0,38.76,10H37.066Z" transform="translate(-35.671 -8.292)"/><path class="b" d="M41.686,13.625a3.211,3.211,0,1,1,6.393,0,3.212,3.212,0,1,1-6.393.623A3.08,3.08,0,0,1,41.686,13.625Zm5.017,0c0-1.469-.661-2.329-1.818-2.329s-1.817.86-1.817,2.329.653,2.335,1.817,2.335S46.7,15.1,46.7,13.625Z" transform="translate(-32.639 -7.593)"/><path class="b" d="M54.1,16.974H52.714l-1.4-4.993h-.107l-1.394,4.993H48.439l-1.87-6.779h1.358l1.213,5.172h.1l1.394-5.172h1.283l1.394,5.172h.105l1.209-5.172h1.338Z" transform="translate(-30.163 -7.549)"/><path class="b" d="M53.854,10.241h1.287v1.076h.1a2.028,2.028,0,0,1,2.023-1.207,2.2,2.2,0,0,1,2.363,2.034,2.117,2.117,0,0,1-.017.488V17.02H58.272V12.967c0-1.09-.473-1.632-1.463-1.632a1.561,1.561,0,0,0-1.618,1.718V17.02H53.854Z" transform="translate(-26.482 -7.595)"/><path class="b" d="M59.094,8.437h1.337v9.425H59.094Z" transform="translate(-23.834 -8.437)"/><path class="b" d="M61.223,13.625a3.211,3.211,0,1,1,6.393,0,3.212,3.212,0,1,1-6.393.622A3.063,3.063,0,0,1,61.223,13.625Zm5.017,0c0-1.469-.661-2.329-1.818-2.329s-1.817.86-1.817,2.329.653,2.335,1.817,2.335S66.241,15.1,66.241,13.625Z" transform="translate(-22.765 -7.593)"/><path class="b" d="M66.4,15.1c0-1.219.908-1.924,2.521-2.023l1.835-.105v-.586c0-.715-.473-1.12-1.386-1.12-.748,0-1.265.274-1.414.753H66.663c.137-1.164,1.231-1.91,2.77-1.91,1.7,0,2.657.846,2.657,2.278v4.632H70.8v-.953H70.7a2.28,2.28,0,0,1-2.035,1.064A2.048,2.048,0,0,1,66.412,15.3C66.406,15.237,66.4,15.169,66.4,15.1Zm4.357-.578v-.568L69.1,14.06c-.933.063-1.358.381-1.358.978S68.275,16,69,16a1.6,1.6,0,0,0,1.751-1.429Z" transform="translate(-20.141 -7.593)"/><path class="b" d="M71.348,14.469c0-2.142,1.1-3.5,2.814-3.5A2.233,2.233,0,0,1,76.24,12.16h.1V8.437h1.337v9.425H76.4V16.79H76.29a2.351,2.351,0,0,1-2.129,1.183C72.438,17.974,71.348,16.617,71.348,14.469Zm1.382,0c0,1.438.677,2.3,1.811,2.3s1.825-.878,1.825-2.3-.7-2.3-1.825-2.3-1.811.872-1.811,2.3Z" transform="translate(-17.641 -8.437)"/><path class="b" d="M79.235,13.625a3.211,3.211,0,1,1,6.393,0,3.212,3.212,0,1,1-6.393.623A3.313,3.313,0,0,1,79.235,13.625Zm5.017,0c0-1.469-.659-2.329-1.818-2.329s-1.817.86-1.817,2.329.655,2.335,1.817,2.335S84.252,15.1,84.252,13.625Z" transform="translate(-13.662 -7.593)"/><path class="b" d="M84.669,10.241h1.289v1.076h.1A2.028,2.028,0,0,1,88.08,10.11a2.209,2.209,0,0,1,2.347,2.522V17.02H89.089V12.967c0-1.09-.473-1.632-1.463-1.632A1.556,1.556,0,0,0,86,12.817a1.765,1.765,0,0,0,.008.236V17.02H84.669Z" transform="translate(-10.909 -7.595)"/><path class="b" d="M94.326,9.074v1.718h1.469v1.128H94.326V15.4c0,.711.294,1.022.959,1.022a4.834,4.834,0,0,0,.51-.032v1.114a4.389,4.389,0,0,1-.729.069c-1.487,0-2.079-.524-2.079-1.831V11.919H91.911V10.792h1.076V9.074Z" transform="translate(-7.249 -8.115)"/><path class="b" d="M95.7,8.437H97.03v3.735h.107A2.086,2.086,0,0,1,99.2,10.959a2.233,2.233,0,0,1,2.351,2.108,2.306,2.306,0,0,1-.017.42v4.376H100.2V13.816c0-1.082-.5-1.632-1.45-1.632a1.584,1.584,0,0,0-1.707,1.45,1.607,1.607,0,0,0,0,.269v3.959H95.7Z" transform="translate(-5.331 -8.437)"/><path class="b" d="M106.808,15.187a2.753,2.753,0,0,1-2.937,1.962,3.079,3.079,0,0,1-3.158-3,3.128,3.128,0,0,1,.027-.5,3.128,3.128,0,0,1,2.684-3.514,3.085,3.085,0,0,1,.441-.027c1.886,0,3.024,1.289,3.024,3.417v.467H102.1v.075A1.792,1.792,0,0,0,103.737,16c.057,0,.114.006.17.006a1.629,1.629,0,0,0,1.614-.822ZM102.1,13h3.425a1.636,1.636,0,0,0-1.511-1.752,1.386,1.386,0,0,0-.158,0,1.733,1.733,0,0,0-1.755,1.712V13Z" transform="translate(-2.801 -7.593)"/></g></svg>