<svg xmlns="http://www.w3.org/2000/svg" width="40" height="40" viewBox="0 0 40 40"><defs><style>.a{fill:#fff;}.b{fill:none;}</style></defs><g transform="translate(-5047.353 -1835.789)"><path class="a" d="M5081.5,1861.872h-28.36a3.336,3.336,0,0,0-3.333,3.333v4.779a3.336,3.336,0,0,0,3.333,3.333h28.36a3.337,3.337,0,0,0,3.334-3.333V1865.2A3.337,3.337,0,0,0,5081.5,1861.872Zm1.667,8.112a1.669,1.669,0,0,1-1.667,1.667h-28.36a1.668,1.668,0,0,1-1.666-1.667V1865.2a1.668,1.668,0,0,1,1.666-1.666h28.36a1.668,1.668,0,0,1,1.667,1.666Z"/><path class="a" d="M5055.44,1866.161a1.434,1.434,0,1,0,1.434,1.434A1.434,1.434,0,0,0,5055.44,1866.161Z"/><path class="a" d="M5060.639,1866.161a1.434,1.434,0,1,0,1.434,1.434A1.434,1.434,0,0,0,5060.639,1866.161Z"/><path class="a" d="M5053.039,1857.173a.83.83,0,0,0,.589-.244,5.7,5.7,0,0,1,4.054-1.681h0a5.69,5.69,0,0,1,4.05,1.678.833.833,0,1,0,1.179-1.178,7.347,7.347,0,0,0-5.229-2.167h0a7.357,7.357,0,0,0-5.232,2.17.833.833,0,0,0,.59,1.422Z"/><path class="a" d="M5057.681,1857.076a3.788,3.788,0,0,0-2.692,1.116.833.833,0,1,0,1.179,1.178,2.127,2.127,0,0,1,1.513-.627h0a2.123,2.123,0,0,1,1.512.626.833.833,0,1,0,1.179-1.178,3.78,3.78,0,0,0-2.691-1.115Z"/><path class="a" d="M5075.462,1857.137a9.438,9.438,0,1,0-9.439-9.439A9.439,9.439,0,0,0,5075.462,1857.137Zm0-17.211a7.772,7.772,0,1,1-7.772,7.772A7.78,7.78,0,0,1,5075.462,1839.926Z"/><path class="a" d="M5071.878,1848.531h2.75v2.75a.833.833,0,1,0,1.667,0v-2.75h2.75a.833.833,0,0,0,0-1.666h-2.75v-2.75a.833.833,0,0,0-1.667,0v2.75h-2.75a.833.833,0,0,0,0,1.666Z"/><rect class="b" width="40" height="40" transform="translate(5047.353 1835.789)"/></g></svg>