<svg xmlns="http://www.w3.org/2000/svg" xmlns:xlink="http://www.w3.org/1999/xlink" width="203.226" height="60.215" viewBox="0 0 203.226 60.215"><defs><style>.a{fill:#a6a6a6;}.b,.c,.j{fill:#fff;}.b{stroke:#fff;stroke-miterlimit:10;stroke-width:0.2px;}.d{fill:url(#a);}.e{fill:url(#b);}.f{fill:url(#c);}.g{fill:url(#d);}.h{opacity:0.2;}.h,.i,.j{isolation:isolate;}.i{opacity:0.12;}.j{opacity:0.25;}</style><linearGradient id="a" x1="0.915" y1="6.614" x2="-0.383" y2="5.945" gradientUnits="objectBoundingBox"><stop offset="0" stop-color="#00a0ff"/><stop offset="0.007" stop-color="#00a1ff"/><stop offset="0.26" stop-color="#00beff"/><stop offset="0.512" stop-color="#00d2ff"/><stop offset="0.76" stop-color="#00dfff"/><stop offset="1" stop-color="#00e3ff"/></linearGradient><linearGradient id="b" x1="1.076" y1="17.098" x2="-1.305" y2="17.098" gradientUnits="objectBoundingBox"><stop offset="0" stop-color="#ffe000"/><stop offset="0.409" stop-color="#ffbd00"/><stop offset="0.775" stop-color="orange"/><stop offset="1" stop-color="#ff9c00"/></linearGradient><linearGradient id="c" x1="0.862" y1="10.863" x2="-0.501" y2="9.093" gradientUnits="objectBoundingBox"><stop offset="0" stop-color="#ff3a44"/><stop offset="1" stop-color="#c31162"/></linearGradient><linearGradient id="d" x1="-0.188" y1="13.583" x2="0.421" y2="12.793" gradientUnits="objectBoundingBox"><stop offset="0" stop-color="#32a071"/><stop offset="0.068" stop-color="#2da771"/><stop offset="0.476" stop-color="#15cf74"/><stop offset="0.801" stop-color="#06e775"/><stop offset="1" stop-color="#00f076"/></linearGradient></defs><rect width="203.226" height="60.215" rx="10" transform="translate(0)"/><g transform="translate(0 0)"><g transform="translate(0 0)"><path class="a" d="M205.7,11.2a6.33,6.33,0,0,1,6.323,6.323V62.688a6.33,6.33,0,0,1-6.323,6.323H17.527A6.33,6.33,0,0,1,11.2,62.688V17.527A6.33,6.33,0,0,1,17.527,11.2H205.7m0-1.2H17.527A7.549,7.549,0,0,0,10,17.527V62.688a7.549,7.549,0,0,0,7.527,7.527H205.7a7.549,7.549,0,0,0,7.527-7.527V17.527A7.549,7.549,0,0,0,205.7,10Z" transform="translate(-10 -10)"/></g></g><g transform="translate(62.25 10.336)"><path class="b" d="M60.484,21.95a4.077,4.077,0,0,1-1.122,3.015A4.378,4.378,0,0,1,56.044,26.3a4.652,4.652,0,0,1-4.692-4.718,4.652,4.652,0,0,1,4.692-4.718,4.676,4.676,0,0,1,1.855.378,3.716,3.716,0,0,1,1.412,1.01l-.793.793a3.055,3.055,0,0,0-2.473-1.07,3.493,3.493,0,0,0-3.508,3.607,3.553,3.553,0,0,0,6.031,2.6,2.848,2.848,0,0,0,.757-1.831h-3.28V21.269h4.378A3.849,3.849,0,0,1,60.484,21.95Z" transform="translate(-51.352 -16.866)"/><path class="b" d="M63.8,18.109H59.684v2.865h3.709v1.084H59.684v2.865H63.8v1.109H58.525V17H63.8Z" transform="translate(-47.727 -16.798)"/><path class="b" d="M66.516,26.032H65.354V18.109H62.832V17h6.207v1.109H66.516Z" transform="translate(-45.55 -16.798)"/><path class="b" d="M69.938,26.032V17H71.1v9.032Z" transform="translate(-41.959 -16.798)"/><path class="b" d="M75.365,26.032H74.2V18.109H71.681V17h6.207v1.109H75.365Z" transform="translate(-41.078 -16.798)"/><path class="b" d="M86.279,24.933a4.69,4.69,0,0,1-6.622,0,4.881,4.881,0,0,1,0-6.7,4.676,4.676,0,0,1,6.616.006,4.865,4.865,0,0,1,.006,6.693Zm-5.766-.757a3.474,3.474,0,0,0,4.908,0,3.535,3.535,0,0,0,1-2.592,3.535,3.535,0,0,0-1-2.592,3.474,3.474,0,0,0-4.908,0,3.54,3.54,0,0,0-1,2.592A3.54,3.54,0,0,0,80.513,24.176Z" transform="translate(-37.72 -16.866)"/><path class="b" d="M85.575,26.032V17h1.414l4.39,7.026h.05l-.05-1.74V17h1.161v9.032h-1.21l-4.593-7.367h-.05l.05,1.742v5.626Z" transform="translate(-34.056 -16.798)"/></g><path class="c" d="M91.829,34.13a6.4,6.4,0,1,0,6.426,6.4A6.31,6.31,0,0,0,91.829,34.13Zm0,10.282a3.89,3.89,0,1,1,3.613-3.879A3.7,3.7,0,0,1,91.829,44.412ZM77.809,34.13a6.4,6.4,0,1,0,6.426,6.4A6.311,6.311,0,0,0,77.809,34.13Zm0,10.282a3.89,3.89,0,1,1,3.613-3.879A3.7,3.7,0,0,1,77.809,44.412ZM61.131,36.094V38.81h6.5a5.668,5.668,0,0,1-1.478,3.419,6.654,6.654,0,0,1-5.02,1.989,7.227,7.227,0,0,1,0-14.453,6.924,6.924,0,0,1,4.9,1.94l1.916-1.916a9.477,9.477,0,0,0-6.815-2.741,9.945,9.945,0,1,0,0,19.888,9.087,9.087,0,0,0,6.935-2.789,8.975,8.975,0,0,0,2.353-6.354,8.775,8.775,0,0,0-.146-1.7ZM129.337,38.2a5.951,5.951,0,0,0-5.481-4.074,6.083,6.083,0,0,0-6.038,6.4,6.265,6.265,0,0,0,6.354,6.4,6.367,6.367,0,0,0,5.335-2.838l-2.183-1.456a3.657,3.657,0,0,1-3.152,1.77,3.259,3.259,0,0,1-3.106-1.939l8.561-3.542Zm-8.731,2.135a3.513,3.513,0,0,1,3.346-3.735,2.477,2.477,0,0,1,2.377,1.358Zm-6.959,6.208h2.812V27.726h-2.812ZM109.037,35.56h-.1a4.438,4.438,0,0,0-3.371-1.43,6.408,6.408,0,0,0,0,12.8,4.362,4.362,0,0,0,3.371-1.456h.1V46.4c0,2.449-1.308,3.759-3.419,3.759a3.543,3.543,0,0,1-3.226-2.281L99.943,48.9a6.1,6.1,0,0,0,5.675,3.783c3.3,0,6.088-1.94,6.088-6.669v-11.5h-2.669Zm-3.225,8.852a3.894,3.894,0,0,1,0-7.76,3.608,3.608,0,0,1,3.419,3.9A3.576,3.576,0,0,1,105.812,44.412Zm36.7-16.684h-6.731V46.546h2.808V39.417h3.923a5.853,5.853,0,1,0,0-11.689Zm.072,9.07h-4V30.347h4a3.226,3.226,0,1,1,0,6.451Zm17.36-2.7a5.276,5.276,0,0,0-5.013,2.88l2.494,1.042A2.661,2.661,0,0,1,160,36.636a2.7,2.7,0,0,1,2.954,2.422v.193a6.213,6.213,0,0,0-2.929-.726c-2.687,0-5.424,1.477-5.424,4.236,0,2.518,2.2,4.141,4.673,4.141a3.963,3.963,0,0,0,3.584-1.841h.1v1.453h2.711V39.3C165.66,35.959,163.167,34.1,159.947,34.1Zm-.339,10.313c-.921,0-2.2-.459-2.2-1.6,0-1.453,1.6-2.01,2.978-2.01a5.011,5.011,0,0,1,2.567.629A3.4,3.4,0,0,1,159.608,44.409Zm15.93-9.9-3.22,8.159h-.1l-3.342-8.159h-3.026l5.011,11.4-2.857,6.344h2.929l7.724-17.747Zm-25.3,12.04h2.809V27.727h-2.809Z" transform="translate(10.742 -1.385)"/><g transform="translate(15.013 10.749)"><path class="d" d="M20.668,17.575a3.021,3.021,0,0,0-.7,2.115V52.983a3.019,3.019,0,0,0,.7,2.115l.111.108,18.65-18.65v-.44L20.78,17.465Z" transform="translate(-19.973 -16.976)"/><path class="e" d="M39.115,38.6,32.9,32.382v-.44l6.219-6.219.14.081,7.366,4.185c2.1,1.2,2.1,3.151,0,4.346l-7.366,4.185Z" transform="translate(-13.441 -12.803)"/><path class="f" d="M45.555,36.36,39.2,30,20.435,48.763c.694.735,1.84.825,3.13.092L45.555,36.36" transform="translate(-19.74 -10.641)"/><path class="g" d="M45.555,30.142,23.565,17.647c-1.29-.733-2.436-.643-3.13.092L39.2,36.5Z" transform="translate(-19.74 -17.14)"/><g transform="translate(0 25.579)"><path class="h" d="M45.415,34.132,23.565,46.547a2.507,2.507,0,0,1-3.017.017h0l-.113.111h0l.111.11,0,0a2.507,2.507,0,0,0,3.017-.017L45.555,34.272Z" transform="translate(-19.74 -34.132)"/><path class="i" d="M20.668,43.028a3.019,3.019,0,0,1-.7-2.115v.221a3.015,3.015,0,0,0,.7,2.114l.113-.111Z" transform="translate(-19.973 -30.705)"/></g><path class="i" d="M44.535,31.955,37.029,36.22l.14.14,7.366-4.185A2.642,2.642,0,0,0,46.112,30h0A2.8,2.8,0,0,1,44.535,31.955Z" transform="translate(-11.353 -10.641)"/><path class="j" d="M23.8,17.867l29.356,16.68A2.8,2.8,0,0,1,54.732,36.5h0a2.638,2.638,0,0,0-1.578-2.174L23.8,17.647c-2.1-1.2-3.825-.2-3.825,2.207v.221C19.973,17.665,21.694,16.672,23.8,17.867Z" transform="translate(-19.973 -17.14)"/></g></svg>