<?xml version="1.0" encoding="utf-8"?>
<!-- Generator: Adobe Illustrator 25.0.0, SVG Export Plug-In . SVG Version: 6.00 Build 0)  -->
<svg version="1.1" id="Layer_1" xmlns="http://www.w3.org/2000/svg" xmlns:xlink="http://www.w3.org/1999/xlink" x="0px" y="0px"
	 viewBox="0 0 40 40" style="enable-background:new 0 0 40 40;" xml:space="preserve">
<style type="text/css">
	.st0{fill:#FE7043;}
	.st1{fill:none;stroke:#641900;stroke-width:1.4;}
	.st2{fill:#FFFFFF;}
</style>
<path class="st0" d="M10.62,28.32v-12.7c0-0.39,0.04-0.78,0.12-1.17s0.19-0.76,0.34-1.13c0.15-0.36,0.34-0.71,0.55-1.04
	c0.22-0.33,0.47-0.63,0.75-0.91s0.58-0.53,0.91-0.75c0.33-0.22,0.67-0.4,1.04-0.55c0.36-0.15,0.74-0.26,1.13-0.34
	c0.39-0.08,0.78-0.12,1.17-0.12h12.7c0.39,0,0.78,0.04,1.17,0.12c0.39,0.08,0.76,0.19,1.13,0.34c0.36,0.15,0.71,0.34,1.04,0.55
	s0.63,0.47,0.91,0.75c0.28,0.28,0.53,0.58,0.75,0.91c0.22,0.33,0.4,0.67,0.55,1.04c0.15,0.36,0.26,0.74,0.34,1.13
	c0.08,0.39,0.12,0.78,0.12,1.17v12.7c0,0.39-0.04,0.78-0.12,1.17c-0.08,0.39-0.19,0.76-0.34,1.13c-0.15,0.36-0.34,0.71-0.55,1.04
	c-0.22,0.33-0.47,0.63-0.75,0.91c-0.28,0.28-0.58,0.53-0.91,0.75c-0.33,0.22-0.67,0.4-1.04,0.55c-0.36,0.15-0.74,0.26-1.13,0.34
	c-0.39,0.08-0.78,0.12-1.17,0.12h-12.7c-0.39,0-0.78-0.04-1.17-0.12c-0.39-0.08-0.76-0.19-1.13-0.34c-0.36-0.15-0.71-0.34-1.04-0.55
	c-0.33-0.22-0.63-0.47-0.91-0.75c-0.28-0.28-0.53-0.58-0.75-0.91s-0.4-0.67-0.55-1.04c-0.15-0.36-0.26-0.74-0.34-1.13
	C10.66,29.1,10.62,28.71,10.62,28.32z"/>
<path class="st1" d="M8,26.36v-12.7c0-0.39,0.04-0.78,0.12-1.17s0.19-0.76,0.34-1.13c0.15-0.36,0.34-0.71,0.55-1.04
	c0.22-0.33,0.47-0.63,0.75-0.91s0.58-0.53,0.91-0.75c0.33-0.22,0.67-0.4,1.04-0.55c0.36-0.15,0.74-0.26,1.13-0.34
	c0.39-0.08,0.78-0.12,1.17-0.12h12.7c0.39,0,0.78,0.04,1.17,0.12c0.39,0.08,0.76,0.19,1.13,0.34c0.36,0.15,0.71,0.34,1.04,0.55
	c0.33,0.22,0.63,0.47,0.91,0.75c0.28,0.28,0.53,0.58,0.75,0.91c0.22,0.33,0.4,0.67,0.55,1.04c0.15,0.36,0.26,0.74,0.34,1.13
	c0.08,0.39,0.12,0.78,0.12,1.17v12.7c0,0.39-0.04,0.78-0.12,1.17c-0.08,0.39-0.19,0.76-0.34,1.13c-0.15,0.36-0.34,0.71-0.55,1.04
	c-0.22,0.33-0.47,0.63-0.75,0.91c-0.28,0.28-0.58,0.53-0.91,0.75c-0.33,0.22-0.67,0.4-1.04,0.55c-0.36,0.15-0.74,0.26-1.13,0.34
	c-0.39,0.08-0.78,0.12-1.17,0.12H14c-0.39,0-0.78-0.04-1.17-0.12c-0.39-0.08-0.76-0.19-1.13-0.34c-0.36-0.15-0.71-0.34-1.04-0.55
	c-0.33-0.22-0.63-0.47-0.91-0.75c-0.28-0.28-0.53-0.58-0.75-0.91s-0.4-0.67-0.55-1.04c-0.15-0.36-0.26-0.74-0.34-1.13
	C8.04,27.14,8,26.75,8,26.36z"/>
<path class="st2" d="M22.87,19.65c-0.41,0-0.7,0.31-0.7,0.74c0,0.45,0.29,0.74,0.7,0.74s0.7-0.31,0.7-0.74
	C23.59,19.97,23.28,19.65,22.87,19.65z"/>
<path class="st2" d="M22.87,22.11c-1.09,0-1.77-0.66-1.77-1.71c0-1.01,0.72-1.69,1.79-1.69c1.07,0,1.77,0.68,1.77,1.71
	C24.66,21.45,23.94,22.11,22.87,22.11z M20.13,18.39c-0.43,0-0.68-0.23-0.68-0.6c0-0.37,0.25-0.58,0.66-0.58
	c0.43,0,0.68,0.21,0.68,0.58C20.81,18.17,20.53,18.39,20.13,18.39z M20.75,21.45c0,0.45-0.23,0.6-0.55,0.6h-0.14
	c-0.35,0-0.58-0.14-0.58-0.6v-2.1c0-0.47,0.23-0.6,0.56-0.6h0.14c0.35,0,0.56,0.14,0.56,0.6V21.45z M19.03,20.34
	c0,1.23-0.58,1.77-1.69,1.77c-0.92,0-1.4-0.33-1.4-0.84c0-0.49,0.41-0.68,0.43-0.66c0.19,0.25,0.47,0.39,0.78,0.39
	c0.41,0,0.56-0.18,0.56-0.68v-1.97c0-0.41,0.19-0.6,0.56-0.6h0.19c0.37,0,0.56,0.19,0.56,0.6V20.34z M20.14,14.3
	c-3.15,0-5.71,2.55-5.71,5.71s2.55,5.71,5.71,5.71c3.15,0,5.71-2.55,5.71-5.71S23.3,14.3,20.14,14.3z"/>
</svg>
