<?xml version="1.0" encoding="utf-8"?>
<!-- Generator: Adobe Illustrator 25.0.0, SVG Export Plug-In . SVG Version: 6.00 Build 0)  -->
<svg version="1.1" id="Layer_1" xmlns="http://www.w3.org/2000/svg" xmlns:xlink="http://www.w3.org/1999/xlink" x="0px" y="0px"
	 viewBox="0 0 60 60" style="enable-background:new 0 0 60 60;" xml:space="preserve">
<style type="text/css">
	.st0{fill:#04BD9E;}
	.st1{fill:none;stroke:#004338;stroke-width:1.4;stroke-miterlimit:10;}
	.st2{fill:#FFFFFF;}
	.st3{fill:none;stroke:#004338;stroke-width:1.4;stroke-linecap:round;stroke-miterlimit:10;}
</style>
<path class="st0" d="M48.34,39.63H16.11c-1.61,0-2.93-1.32-2.93-2.93v-5.27c0-1.61,1.32-2.93,2.93-2.93h32.23
	c1.61,0,2.93,1.32,2.93,2.93v5.32C51.27,38.31,49.95,39.63,48.34,39.63z"/>
<path class="st1" d="M46.42,42.18H14.2c-1.61,0-2.93-1.32-2.93-2.93v-5.27c0-1.61,1.32-2.93,2.93-2.93h32.23
	c1.61,0,2.93,1.32,2.93,2.93v5.32C49.35,40.86,48.03,42.18,46.42,42.18z"/>
<path class="st2" d="M16.83,34.71c0.25,0,0.5,0.05,0.73,0.14c0.23,0.1,0.44,0.23,0.62,0.41c0.18,0.18,0.32,0.38,0.41,0.62
	c0.1,0.23,0.14,0.48,0.14,0.73c0,0.25-0.05,0.5-0.14,0.73s-0.23,0.44-0.41,0.62c-0.18,0.18-0.38,0.32-0.62,0.41
	c-0.23,0.1-0.48,0.14-0.73,0.14c-0.25,0-0.5-0.05-0.73-0.14c-0.23-0.1-0.44-0.23-0.62-0.41c-0.18-0.18-0.32-0.38-0.41-0.62
	s-0.14-0.48-0.14-0.73c0-0.25,0.05-0.5,0.14-0.73c0.1-0.23,0.23-0.44,0.41-0.62c0.18-0.18,0.38-0.32,0.62-0.41
	C16.34,34.76,16.58,34.71,16.83,34.71z"/>
<path class="st2" d="M22.45,34.71c0.25,0,0.5,0.05,0.73,0.14c0.23,0.1,0.44,0.23,0.62,0.41c0.18,0.18,0.32,0.38,0.41,0.62
	c0.1,0.23,0.14,0.48,0.14,0.73c0,0.25-0.05,0.5-0.14,0.73s-0.23,0.44-0.41,0.62c-0.18,0.18-0.38,0.32-0.62,0.41
	c-0.23,0.1-0.48,0.14-0.73,0.14c-0.25,0-0.5-0.05-0.73-0.14c-0.23-0.1-0.44-0.23-0.62-0.41c-0.18-0.18-0.32-0.38-0.41-0.62
	s-0.14-0.48-0.14-0.73c0-0.25,0.05-0.5,0.14-0.73c0.1-0.23,0.23-0.44,0.41-0.62c0.18-0.18,0.38-0.32,0.62-0.41
	C21.95,34.76,22.2,34.71,22.45,34.71z"/>
<line class="st3" x1="39.1" y1="16.45" x2="39.1" y2="31.05"/>
<path class="st3" d="M34.02,20.01c-2-2-2-5.18,0-7.18"/>
<path class="st3" d="M44.18,12.84c2,2,2,5.18,0,7.18"/>
</svg>
