<?xml version="1.0" encoding="utf-8"?>
<!-- Generator: Adobe Illustrator 25.0.0, SVG Export Plug-In . SVG Version: 6.00 Build 0)  -->
<svg version="1.1" id="Layer_1" xmlns="http://www.w3.org/2000/svg" xmlns:xlink="http://www.w3.org/1999/xlink" x="0px" y="0px"
	 viewBox="0 0 60 60" style="enable-background:new 0 0 60 60;" xml:space="preserve">
<style type="text/css">
	.st0{fill:#8CAFFF;}
	.st1{fill:none;stroke:#234496;stroke-width:1.4;stroke-miterlimit:10;}
	.st2{fill:#FFFFFF;}
</style>
<path class="st0" d="M43.44,48.51c0,1.74-1.22,3.2-2.78,3.2H25.5c-1.55,0-2.78-1.41-2.78-3.2V18.18c0-1.79,1.22-3.2,2.78-3.2h15.21
	c1.51,0,2.73,1.41,2.73,3.2V48.51z"/>
<path class="st1" d="M40.72,45.25c0,1.74-1.22,3.2-2.78,3.2H22.78c-1.55,0-2.78-1.41-2.78-3.2V14.92c0-1.79,1.22-3.2,2.78-3.2h15.21
	c1.51,0,2.73,1.41,2.73,3.2V45.25z"/>
<circle class="st2" cx="30.46" cy="43.08" r="1.88"/>
</svg>
