<svg xmlns="http://www.w3.org/2000/svg" xmlns:xlink="http://www.w3.org/1999/xlink" width="40" height="40" viewBox="0 0 40 40">
  <defs>
    <clipPath id="clip-homepage_esim_40x40">
      <rect width="40" height="40"/>
    </clipPath>
  </defs>
  <g id="homepage_esim_40x40" clip-path="url(#clip-homepage_esim_40x40)">
    <g id="Group_150668" data-name="Group 150668">
      <rect id="Rectangle_19770" data-name="Rectangle 19770" width="40" height="40" fill="none"/>
      <path id="Path_138101" data-name="Path 138101" d="M954.642,216.222h-14.7a3.925,3.925,0,0,0-2.8,1.18l-7.251,7.447a3.882,3.882,0,0,0-1.106,2.723V252.32a3.907,3.907,0,0,0,3.9,3.9h21.951a3.907,3.907,0,0,0,3.9-3.9v-32.2A3.907,3.907,0,0,0,954.642,216.222Zm1.952,36.1a1.953,1.953,0,0,1-1.952,1.951H932.691a1.953,1.953,0,0,1-1.952-1.951V227.571a1.94,1.94,0,0,1,.553-1.361l7.251-7.447a1.962,1.962,0,0,1,1.4-.59h14.7a1.953,1.953,0,0,1,1.952,1.952Zm-8.083-17.065h-9.82a3.723,3.723,0,0,0-3.719,3.719v7.667a3.723,3.723,0,0,0,3.719,3.719h9.82a3.723,3.723,0,0,0,3.719-3.719v-7.667A3.723,3.723,0,0,0,948.511,235.255Zm1.768,11.386a1.77,1.77,0,0,1-1.768,1.768h-9.82a1.77,1.77,0,0,1-1.768-1.768v-7.667a1.77,1.77,0,0,1,1.768-1.768h9.82a1.77,1.77,0,0,1,1.768,1.768Zm-3.573-3.435a1.168,1.168,0,0,0,.541-1.144,3.454,3.454,0,0,0-.426-1.634,3.346,3.346,0,0,0-1.286-1.312,3.959,3.959,0,0,0-2.038-.5,4.515,4.515,0,0,0-1.651.292,3.428,3.428,0,0,0-1.275.852,3.711,3.711,0,0,0-.784,1.324,4.993,4.993,0,0,0-.265,1.646,4.145,4.145,0,0,0,1.087,3.008,4.045,4.045,0,0,0,3.027,1.12,4.68,4.68,0,0,0,1.5-.222,3.712,3.712,0,0,0,1.1-.565,2.635,2.635,0,0,0,.67-.731,1.453,1.453,0,0,0,.235-.725.8.8,0,0,0-.262-.633,1,1,0,0,0-1.215-.03c-.234.221-.426.4-.573.525a3.9,3.9,0,0,1-.461.346,1.794,1.794,0,0,1-.484.223,2.06,2.06,0,0,1-.56.072,1.544,1.544,0,0,1-.81-.218,1.575,1.575,0,0,1-.587-.652,2.19,2.19,0,0,1-.223-.8h3.478A2.766,2.766,0,0,0,946.706,243.206Zm-3.273-2.791a1.339,1.339,0,0,1,1.031.41,1.9,1.9,0,0,1,.436,1.061h-2.92a2.022,2.022,0,0,1,.458-1.055A1.287,1.287,0,0,1,943.433,240.415Z" transform="translate(-923.788 -216.222)" fill="#fff"/>
      <path id="Path_138106" data-name="Path 138106" d="M954.642,216.222h-14.7a3.925,3.925,0,0,0-2.8,1.18l-7.251,7.447a3.882,3.882,0,0,0-1.106,2.723V252.32a3.907,3.907,0,0,0,3.9,3.9h21.951a3.907,3.907,0,0,0,3.9-3.9v-32.2A3.907,3.907,0,0,0,954.642,216.222Zm1.952,36.1a1.953,1.953,0,0,1-1.952,1.951H932.691a1.953,1.953,0,0,1-1.952-1.951V227.571a1.94,1.94,0,0,1,.553-1.361l7.251-7.447a1.962,1.962,0,0,1,1.4-.59h14.7a1.953,1.953,0,0,1,1.952,1.952Zm-8.083-17.065h-9.82a3.723,3.723,0,0,0-3.719,3.719v7.667a3.723,3.723,0,0,0,3.719,3.719h9.82a3.723,3.723,0,0,0,3.719-3.719v-7.667A3.723,3.723,0,0,0,948.511,235.255Zm1.768,11.386a1.77,1.77,0,0,1-1.768,1.768h-9.82a1.77,1.77,0,0,1-1.768-1.768v-7.667a1.77,1.77,0,0,1,1.768-1.768h9.82a1.77,1.77,0,0,1,1.768,1.768Zm-3.573-3.435a1.168,1.168,0,0,0,.541-1.144,3.454,3.454,0,0,0-.426-1.634,3.346,3.346,0,0,0-1.286-1.312,3.959,3.959,0,0,0-2.038-.5,4.515,4.515,0,0,0-1.651.292,3.428,3.428,0,0,0-1.275.852,3.711,3.711,0,0,0-.784,1.324,4.993,4.993,0,0,0-.265,1.646,4.145,4.145,0,0,0,1.087,3.008,4.045,4.045,0,0,0,3.027,1.12,4.68,4.68,0,0,0,1.5-.222,3.712,3.712,0,0,0,1.1-.565,2.635,2.635,0,0,0,.67-.731,1.453,1.453,0,0,0,.235-.725.8.8,0,0,0-.262-.633,1,1,0,0,0-1.215-.03c-.234.221-.426.4-.573.525a3.9,3.9,0,0,1-.461.346,1.794,1.794,0,0,1-.484.223,2.06,2.06,0,0,1-.56.072,1.544,1.544,0,0,1-.81-.218,1.575,1.575,0,0,1-.587-.652,2.19,2.19,0,0,1-.223-.8h3.478A2.766,2.766,0,0,0,946.706,243.206Zm-3.273-2.791a1.339,1.339,0,0,1,1.031.41,1.9,1.9,0,0,1,.436,1.061h-2.92a2.022,2.022,0,0,1,.458-1.055A1.287,1.287,0,0,1,943.433,240.415Z" transform="translate(-923.789 -216.222)" fill="#fff"/>
    </g>
  </g>
</svg>
