<svg xmlns="http://www.w3.org/2000/svg" width="32" height="32" viewBox="0 0 32 32"><defs><style>.a{fill:#fff;}.b{fill:none;}</style></defs><path class="a" d="M1542.907,2029.633h-1.433v-.054a9.03,9.03,0,0,0-18.059,0v.054h-1.433a3.606,3.606,0,0,0-3.6,3.6v4.711a3.606,3.606,0,0,0,3.6,3.6h2.1a.667.667,0,0,0,.666-.667v-11.3a7.7,7.7,0,0,1,15.394,0v13.28a2.272,2.272,0,0,1-2.269,2.27h-2.855a2.811,2.811,0,1,0,0,1.333h2.855a3.607,3.607,0,0,0,3.6-3.6v-1.311h1.433a3.606,3.606,0,0,0,3.6-3.6v-4.711A3.606,3.606,0,0,0,1542.907,2029.633Zm-23.195,8.313v-4.711a2.272,2.272,0,0,1,2.269-2.269h1.433v9.249h-1.433A2.272,2.272,0,0,1,1519.712,2037.945Zm12.577,9.327a1.478,1.478,0,1,1,1.477-1.485v.016A1.479,1.479,0,0,1,1532.289,2047.272Zm12.887-9.327a2.272,2.272,0,0,1-2.269,2.269h-1.433v-9.249h1.433a2.272,2.272,0,0,1,2.269,2.269Z" transform="translate(-1516.444 -2018.577)"/><rect class="b" width="32" height="32"/></svg>