<svg xmlns="http://www.w3.org/2000/svg" width="30" height="30" viewBox="0 0 30 30">
  <g id="jiofi" transform="translate(-26 -736)">
    <rect id="Rectangle_7552" data-name="Rectangle 7552" width="30" height="30" transform="translate(26 736)" fill="none"/>
    <g id="ic_jiofi" transform="translate(1937 2445)">
      <path id="Path_64679" data-name="Path 64679" d="M82.626,9.6c-.068-1.523-.372-3.453-.372-3.453a12.893,12.893,0,0,0-.372-1.727,7.958,7.958,0,0,0-.576-1.388,3.629,3.629,0,0,0-1.354-1.286,8.03,8.03,0,0,0-2.3-.576A29.459,29.459,0,0,0,74.264,1a28.651,28.651,0,0,0-3.352.169,8.03,8.03,0,0,0-2.3.576,3.33,3.33,0,0,0-1.354,1.286,7.958,7.958,0,0,0-.576,1.388,12.893,12.893,0,0,0-.372,1.727S66,8.076,65.935,9.6c0,0-.135,2.878-.135,3.149V14.3s.068,2.167.1,2.776a30.788,30.788,0,0,0,.779,5.383,3.9,3.9,0,0,0,1.727,2.505,6.463,6.463,0,0,0,2.268.609,31.917,31.917,0,0,0,3.589.169,32.55,32.55,0,0,0,3.589-.169,6.463,6.463,0,0,0,2.268-.609,3.9,3.9,0,0,0,1.727-2.505,28.126,28.126,0,0,0,.779-5.383c.034-.576.1-2.776.1-2.776V12.748C82.727,12.477,82.626,9.6,82.626,9.6Z" transform="translate(-1969.257 -1706.752)" fill="#71c6ee"/>
      <g id="Group_25165" data-name="Group 25165" transform="translate(-1905 -1707)">
        <g id="Group_17382" data-name="Group 17382" transform="translate(0)" style="isolation: isolate">
          <path id="Path_11888" data-name="Path 11888" d="M9.254,25.07a31.887,31.887,0,0,1-3.518-.164,6.278,6.278,0,0,1-2.2-.592,3.79,3.79,0,0,1-1.677-2.433A30.325,30.325,0,0,1,1.1,16.652c-.033-.592-.1-2.7-.1-2.7V12.443c0-.263.132-3.058.132-3.058C1.2,7.905,1.493,6,1.493,6a12.523,12.523,0,0,1,.362-1.677,7.729,7.729,0,0,1,.559-1.348,3.525,3.525,0,0,1,1.315-1.25,7.8,7.8,0,0,1,2.236-.559A31.876,31.876,0,0,1,9.254,1H9.188a31.521,31.521,0,0,1,3.288.164,7.8,7.8,0,0,1,2.236.559,3.234,3.234,0,0,1,1.315,1.25,7.729,7.729,0,0,1,.559,1.348A12.522,12.522,0,0,1,16.948,6s.3,1.874.362,3.354c0,0,.132,2.8.132,3.058v1.513s-.066,2.1-.1,2.7a29.907,29.907,0,0,1-.756,5.228,3.79,3.79,0,0,1-1.677,2.433,6.278,6.278,0,0,1-2.2.592,31.889,31.889,0,0,1-3.518.164h.066Z" transform="translate(-1 -1)" fill="none" stroke="#03415d" stroke-miterlimit="10" stroke-width="1.4"/>
        </g>
        <path id="Path_11889" data-name="Path 11889" d="M20.9,59.833H18.925a1.785,1.785,0,0,0-1.052.395l-.855.756a1.945,1.945,0,0,1-1.085.46h0a1.945,1.945,0,0,1-1.085-.46l-.822-.789a1.785,1.785,0,0,0-1.052-.395H11" transform="translate(-7.712 -40.465)" fill="none" stroke="#fff" stroke-linecap="round" stroke-miterlimit="10" stroke-width="1"/>
        <path id="Path_11890" data-name="Path 11890" d="M24.033,50.2a1.489,1.489,0,0,1,.46,1.052,1.447,1.447,0,1,1-2.894,0,1.443,1.443,0,0,1,.427-1.019" transform="translate(-14.826 -34.021)" fill="none" stroke="#fff" stroke-linecap="round" stroke-miterlimit="10" stroke-width="1"/>
        <line id="Line_5914" data-name="Line 5914" y2="1.546" transform="translate(8.188 15.718)" fill="none" stroke="#fff" stroke-linecap="round" stroke-miterlimit="10" stroke-width="1"/>
      </g>
    </g>
  </g>
</svg>
