<svg xmlns="http://www.w3.org/2000/svg" width="40" height="40" viewBox="0 0 40 40"><defs><style>.a{fill:#fff;}.b{fill:none;}</style></defs><g transform="translate(-5161.949 -1387.567)"><path class="a" d="M5192.058,1404.348a.833.833,0,0,0-.833.833v16.457a1.727,1.727,0,0,1-1.725,1.725h-19.188a1.727,1.727,0,0,1-1.725-1.725v-21.632a1.72,1.72,0,0,1,.489-1.2l6.338-6.509a1.737,1.737,0,0,1,1.236-.521h12.85a1.726,1.726,0,0,1,1.725,1.724v1.573a.833.833,0,1,0,1.666,0V1393.5a3.4,3.4,0,0,0-3.391-3.391h-12.85a3.414,3.414,0,0,0-2.43,1.025l-6.338,6.51a3.374,3.374,0,0,0-.962,2.366v21.632a3.4,3.4,0,0,0,3.392,3.392H5189.5a3.4,3.4,0,0,0,3.391-3.392v-16.457A.833.833,0,0,0,5192.058,1404.348Z"/><path class="a" d="M5172.325,1409.973v6.7a3.236,3.236,0,0,0,3.232,3.232h8.584a3.236,3.236,0,0,0,3.231-3.232v-6.7a3.235,3.235,0,0,0-3.231-3.231h-8.584A3.235,3.235,0,0,0,5172.325,1409.973Zm13.38,0v6.7a1.567,1.567,0,0,1-1.564,1.565h-8.584a1.567,1.567,0,0,1-1.565-1.565v-6.7a1.567,1.567,0,0,1,1.565-1.565h8.584A1.567,1.567,0,0,1,5185.705,1409.973Z"/><path class="a" d="M5196.145,1399.231h-9l1.737-1.736a.833.833,0,0,0-1.179-1.178l-3.127,3.127a.827.827,0,0,0-.267.467c0,.01,0,.02,0,.029a.809.809,0,0,0-.012.125v.006a.83.83,0,0,0,.244.59l3.165,3.165a.834.834,0,0,0,1.179-1.179l-1.75-1.749h9.014a.833.833,0,0,0,0-1.667Z"/><rect class="b" width="40" height="40" transform="translate(5161.949 1387.567)"/></g></svg>