<svg xmlns="http://www.w3.org/2000/svg" width="40" height="40" viewBox="0 0 40 40"><defs><style>.a{fill:#fff;}.b{fill:none;}</style></defs><g transform="translate(-4944.878 -1394.786)"><path class="a" d="M4962.4,1432.226h-11.653a3.4,3.4,0,0,1-3.392-3.392V1407.2a3.376,3.376,0,0,1,.962-2.366l6.338-6.51a3.41,3.41,0,0,1,2.43-1.025h12.85a3.4,3.4,0,0,1,3.391,3.391v9.754a.833.833,0,1,1-1.666,0v-9.754a1.727,1.727,0,0,0-1.725-1.725h-12.85a1.734,1.734,0,0,0-1.236.522l-6.338,6.509a1.713,1.713,0,0,0-.489,1.2v21.632a1.727,1.727,0,0,0,1.725,1.725H4962.4a.833.833,0,0,1,0,1.667Z"/><path class="a" d="M4958.949,1418.374a.833.833,0,0,1-.589-1.422l2.2-2.2-2.18-2.18a.833.833,0,0,1,1.178-1.178l2.769,2.769a.832.832,0,0,1,0,1.178l-2.787,2.787A.828.828,0,0,1,4958.949,1418.374Z"/><path class="a" d="M4973.644,1414.763a8.755,8.755,0,1,0,8.755,8.754A8.754,8.754,0,0,0,4973.644,1414.763Zm0,15.842a7.087,7.087,0,1,1,7.088-7.088A7.095,7.095,0,0,1,4973.644,1430.6Z"/><path class="a" d="M4976.111,1420.961a.729.729,0,0,0,0-1.458h-5.021a.729.729,0,0,0,0,1.458h1.665a1.452,1.452,0,0,1,1.255.729h-2.9a.729.729,0,0,0,0,1.458h2.9a1.452,1.452,0,0,1-1.255.729h-.832a.73.73,0,0,0-.553,1.2l3.022,3.514,0,0a.727.727,0,1,0,1.1-.947l0,0-2.055-2.39a2.923,2.923,0,0,0,2.126-2.106h.543a.729.729,0,0,0,0-1.458h-.536a2.9,2.9,0,0,0-.3-.729Z"/><rect class="b" width="40" height="40" transform="translate(4944.878 1394.786)"/></g></svg>