<svg xmlns="http://www.w3.org/2000/svg" width="40" height="40" viewBox="0 0 40 40"><defs><style>.a{fill:#fff;}.b{fill:none;}</style></defs><g transform="translate(-4634.884 -1474.193)"><g transform="translate(4637.251 1476.262)"><path class="a" d="M4655.194,1513.962h-11.121a1.714,1.714,0,0,1-1.647-1.772v-22.206a1.83,1.83,0,0,1,.468-1.235l6.048-6.682a1.6,1.6,0,0,1,1.18-.535h12.262a1.714,1.714,0,0,1,1.646,1.771v10.013a.8.8,0,1,0,1.59,0V1483.3a3.37,3.37,0,0,0-3.236-3.482h-12.262a3.148,3.148,0,0,0-2.319,1.053l-6.048,6.682a3.6,3.6,0,0,0-.918,2.428v22.206a3.37,3.37,0,0,0,3.237,3.482h11.121a.858.858,0,0,0,0-1.711Z" transform="translate(-4640.836 -1479.821)"/><path class="a" d="M4670.657,1513.3a.8.8,0,0,0-1.124,0l-2.642,2.642a.8.8,0,0,0,0,1.125l2.659,2.659a.8.8,0,0,0,1.125-1.124l-2.1-2.1,2.08-2.08A.794.794,0,0,0,4670.657,1513.3Z" transform="translate(-4655.504 -1498.587)"/><path class="a" d="M4691.266,1521.749a8.354,8.354,0,1,0,8.354,8.354A8.354,8.354,0,0,0,4691.266,1521.749Zm0,15.118a6.764,6.764,0,1,1,6.764-6.764A6.771,6.771,0,0,1,4691.266,1536.867Z" transform="translate(-4663.658 -1502.555)"/><path class="a" d="M4701.528,1534.516a.7.7,0,1,0,0-1.392h-4.792a.7.7,0,0,0,0,1.392h1.589a1.388,1.388,0,0,1,1.2.7h-2.765a.7.7,0,1,0,0,1.392h2.765a1.387,1.387,0,0,1-1.2.7h-.794a.7.7,0,0,0-.528,1.149l2.883,3.353,0,0a.693.693,0,1,0,1.05-.9h0l-1.962-2.281a2.787,2.787,0,0,0,2.029-2.009h.518a.7.7,0,1,0,0-1.392h-.512a2.754,2.754,0,0,0-.285-.7Z" transform="translate(-4672.059 -1509.407)"/></g><rect class="b" width="40" height="40" transform="translate(4634.884 1474.193)"/></g></svg>