<svg xmlns="http://www.w3.org/2000/svg" width="40" height="40" viewBox="0 0 40 40"><defs><style>.a{fill:#fff;}.b{fill:none;}</style></defs><g transform="translate(-5329.279 -1321.601)"><path class="a" d="M5354.383,1359.237h-19.188a3.4,3.4,0,0,1-3.392-3.391v-21.633a3.37,3.37,0,0,1,.962-2.366l6.338-6.509a3.41,3.41,0,0,1,2.43-1.026h2.752a.833.833,0,0,1,0,1.667h-2.752a1.733,1.733,0,0,0-1.236.522l-6.338,6.509a1.713,1.713,0,0,0-.489,1.2v21.633a1.726,1.726,0,0,0,1.725,1.725h19.188a1.726,1.726,0,0,0,1.724-1.725v-4.059a.833.833,0,0,1,1.667,0v4.059A3.4,3.4,0,0,1,5354.383,1359.237Z"/><path class="a" d="M5349.023,1354.113h-8.583a3.235,3.235,0,0,1-3.232-3.231v-6.7a3.236,3.236,0,0,1,3.232-3.232h1.344a.833.833,0,0,1,0,1.667h-1.344a1.567,1.567,0,0,0-1.565,1.565v6.7a1.567,1.567,0,0,0,1.565,1.565h8.583a1.567,1.567,0,0,0,1.565-1.565.833.833,0,1,1,1.667,0A3.235,3.235,0,0,1,5349.023,1354.113Z"/><path class="a" d="M5355.52,1324.27a11.235,11.235,0,1,0,11.234,11.235A11.235,11.235,0,0,0,5355.52,1324.27Zm0,20.616c-.84,0-1.878-1.314-2.569-3.633h5.137C5357.4,1343.572,5356.359,1344.886,5355.52,1344.886Zm-2.968-5.3a21.8,21.8,0,0,1-.34-3.249h6.615a21.728,21.728,0,0,1-.34,3.249Zm-6.562-3.249h4.553a24.165,24.165,0,0,0,.326,3.249h-4A9.485,9.485,0,0,1,5345.99,1336.338Zm9.53-10.214c.864,0,1.941,1.386,2.63,3.833h-5.261C5353.578,1327.51,5354.655,1326.124,5355.52,1326.124Zm3,5.5a22.1,22.1,0,0,1,.3,3.048h-6.615a22.1,22.1,0,0,1,.3-3.048Zm-7.982,3.048h-4.553a9.489,9.489,0,0,1,.787-3.048h4.059A24.373,24.373,0,0,0,5350.543,1334.672Zm9.953,1.666h4.553a9.485,9.485,0,0,1-.878,3.249h-4A24.165,24.165,0,0,0,5360.5,1336.338Zm0-1.666a24.465,24.465,0,0,0-.293-3.048h4.059a9.464,9.464,0,0,1,.787,3.048Zm2.812-4.715h-3.445a12.078,12.078,0,0,0-1.437-3.567A9.606,9.606,0,0,1,5363.308,1329.957Zm-10.7-3.567a12.078,12.078,0,0,0-1.437,3.567h-3.445A9.607,9.607,0,0,1,5352.613,1326.39Zm-4.737,14.863h3.351a11.855,11.855,0,0,0,1.386,3.368A9.612,9.612,0,0,1,5347.876,1341.253Zm10.55,3.368a11.829,11.829,0,0,0,1.386-3.368h3.351A9.611,9.611,0,0,1,5358.426,1344.621Z"/><rect class="b" width="40" height="40" transform="translate(5329.279 1321.601)"/></g></svg>