<svg xmlns="http://www.w3.org/2000/svg" width="40" height="40" viewBox="0 0 40 40"><defs><style>.a{fill:#fff;}.b{fill:none;}</style></defs><g transform="translate(-4781.465 -1840.345)"><path class="a" d="M4807.072,1861.96a.833.833,0,0,0-.833.834v6.56h-18.46v-22.4a2.426,2.426,0,0,1,2.423-2.423h4.046a.833.833,0,0,0,0-1.667H4790.2a4.094,4.094,0,0,0-4.089,4.09v26.782a4.093,4.093,0,0,0,4.089,4.089h13.614a4.094,4.094,0,0,0,4.09-4.089v-10.942A.834.834,0,0,0,4807.072,1861.96Zm-3.256,14.2H4790.2a2.426,2.426,0,0,1-2.423-2.423v-2.715h18.46v2.715A2.426,2.426,0,0,1,4803.816,1876.159Z"/><path class="a" d="M4816.574,1846.8a13.344,13.344,0,0,0-9.5-3.933h0a13.358,13.358,0,0,0-9.5,3.939.833.833,0,0,0,1.179,1.178,11.7,11.7,0,0,1,8.324-3.45h0a11.686,11.686,0,0,1,8.319,3.445.833.833,0,0,0,1.178-1.179Z"/><path class="a" d="M4807.075,1847.083h0a8.622,8.622,0,0,0-6.134,2.543.834.834,0,0,0,1.179,1.179,6.962,6.962,0,0,1,4.955-2.055h0a6.954,6.954,0,0,1,4.952,2.051.833.833,0,1,0,1.179-1.178A8.613,8.613,0,0,0,4807.075,1847.083Z"/><path class="a" d="M4807.074,1851.256h0a4.356,4.356,0,0,0-3.1,1.286.833.833,0,0,0,1.179,1.178,2.7,2.7,0,0,1,1.922-.8,2.644,2.644,0,0,1,1.921.8.833.833,0,1,0,1.178-1.179A4.35,4.35,0,0,0,4807.074,1851.256Z"/><path class="a" d="M4806.145,1855.826a1.312,1.312,0,1,0,1.856,0A1.313,1.313,0,0,0,4806.145,1855.826Z"/><rect class="b" width="40" height="40" transform="translate(4781.465 1840.345)"/></g></svg>