<?xml version="1.0" encoding="utf-8"?>
<!-- Generator: Adobe Illustrator 25.0.0, SVG Export Plug-In . SVG Version: 6.00 Build 0)  -->
<svg version="1.1" id="Layer_1" xmlns="http://www.w3.org/2000/svg" xmlns:xlink="http://www.w3.org/1999/xlink" x="0px" y="0px"
	 viewBox="0 0 60 60" style="enable-background:new 0 0 60 60;" xml:space="preserve">
<style type="text/css">
	.st0{fill:#3840F7;}
	.st1{fill:#E0AD3B;}
	.st2{fill:#4C246D;}
	.st3{fill:#F3B992;}
	.st4{fill:#150E42;}
	.st5{fill:#1DD2B3;}
	.st6{fill:#D93C65;}
	.st7{fill:#1A1A1A;}
	.st8{fill:#D6813A;}
	.st9{fill:#F0C929;}
	.st10{fill:#C94B31;}
	.st11{fill:#FBE559;}
</style>
<path class="st0" d="M14.43,35.48c-0.51,0-0.99,0.38-0.99,0.63v15.93c0,0.26,0.47,0.52,0.99,0.52h7.34c0.51,0,1.11-0.26,1.11-0.52
	V36.12c0-0.26-0.6-0.63-1.11-0.63H14.43z"/>
<path class="st0" d="M4,41.05c-0.51,0-0.97,0.14-0.97,0.27V52.3c0,0.13,0.46,0.26,0.97,0.26h7.25c0.51,0,0.98-0.13,0.98-0.26V41.32
	c0-0.13-0.46-0.27-0.98-0.27H4z"/>
<path class="st0" d="M45.57,14.68c-0.51,0-0.91,0.25-0.91,0.58v36.61c0,0.33,0.4,0.7,0.91,0.7h7.34c0.51,0,1.07-0.37,1.07-0.7V15.26
	c0-0.33-0.55-0.58-1.07-0.58H45.57z"/>
<path class="st0" d="M24.98,28.49c-0.51,0-0.88,0.23-0.88,0.47V52.1c0,0.24,0.36,0.47,0.88,0.47h7.25c0.51,0,0.96-0.22,0.96-0.47
	V28.96c0-0.24-0.44-0.47-0.96-0.47H24.98z"/>
<path class="st0" d="M35.34,21.35c-0.51,0-0.91,0.18-0.91,0.45v30.28c0,0.27,0.4,0.47,0.91,0.47h7.25c0.51,0,0.92-0.2,0.92-0.47
	V21.81c0-0.27-0.41-0.45-0.92-0.45H35.34z"/>
<path class="st0" d="M48.79,6.2l-5.87,8.64c-0.2,0.3,0,0.71,0.35,0.71H55.2c0.25,0,0.43-0.22,0.43-0.45V15.1
	c0-0.09-0.03-0.18-0.08-0.26L49.49,6.2c-0.09-0.12-0.22-0.18-0.35-0.18C49.01,6.01,48.88,6.08,48.79,6.2"/>
<path class="st1" d="M44.04,43.14v-0.17c0-0.28,0.1-0.51,0.29-0.71c0.2-0.2,0.43-0.29,0.71-0.29h9.4c0.28,0,0.51,0.1,0.71,0.29
	c0.2,0.2,0.29,0.43,0.29,0.71v0.17c0,0.28-0.1,0.51-0.29,0.71s-0.43,0.29-0.71,0.29h-9.4c-0.28,0-0.51-0.1-0.71-0.29
	C44.13,43.65,44.04,43.41,44.04,43.14z"/>
<path class="st1" d="M44.04,45.59v-0.17c0-0.28,0.1-0.51,0.29-0.71c0.2-0.2,0.43-0.29,0.71-0.29h9.4c0.28,0,0.51,0.1,0.71,0.29
	c0.2,0.2,0.29,0.43,0.29,0.71v0.17c0,0.28-0.1,0.51-0.29,0.71c-0.2,0.2-0.43,0.29-0.71,0.29h-9.4c-0.28,0-0.51-0.1-0.71-0.29
	C44.14,46.1,44.04,45.87,44.04,45.59z"/>
<path class="st1" d="M44.05,48.04v-0.17c0-0.28,0.1-0.51,0.29-0.71c0.2-0.2,0.43-0.29,0.71-0.29h9.4c0.28,0,0.51,0.1,0.71,0.29
	c0.2,0.2,0.29,0.43,0.29,0.71v0.17c0,0.28-0.1,0.51-0.29,0.71c-0.2,0.2-0.43,0.29-0.71,0.29h-9.4c-0.28,0-0.51-0.1-0.71-0.29
	C44.15,48.55,44.05,48.32,44.05,48.04z"/>
<path class="st1" d="M44.06,50.43v-0.17c0-0.28,0.1-0.51,0.29-0.71c0.2-0.2,0.43-0.29,0.71-0.29h9.4c0.28,0,0.51,0.1,0.71,0.29
	c0.2,0.2,0.29,0.43,0.29,0.71v0.17c0,0.28-0.1,0.51-0.29,0.71c-0.2,0.2-0.43,0.29-0.71,0.29h-9.4c-0.28,0-0.51-0.1-0.71-0.29
	C44.16,50.94,44.06,50.71,44.06,50.43z"/>
<path class="st1" d="M44.07,52.82v-0.17c0-0.28,0.1-0.51,0.29-0.71c0.2-0.2,0.43-0.29,0.71-0.29h9.4c0.28,0,0.51,0.1,0.71,0.29
	c0.2,0.2,0.29,0.43,0.29,0.71v0.17c0,0.28-0.1,0.51-0.29,0.71c-0.2,0.2-0.43,0.29-0.71,0.29h-9.4c-0.28,0-0.51-0.1-0.71-0.29
	C44.17,53.33,44.07,53.09,44.07,52.82z"/>
<path class="st1" d="M31.68,45.46v-0.17c0-0.28,0.1-0.51,0.29-0.71c0.2-0.2,0.43-0.29,0.71-0.29h9.4c0.28,0,0.51,0.1,0.71,0.29
	c0.2,0.2,0.29,0.43,0.29,0.71v0.17c0,0.28-0.1,0.51-0.29,0.71c-0.2,0.2-0.43,0.29-0.71,0.29h-9.4c-0.28,0-0.51-0.1-0.71-0.29
	C31.78,45.97,31.68,45.74,31.68,45.46z"/>
<path class="st1" d="M31.69,47.91v-0.17c0-0.28,0.1-0.51,0.29-0.71c0.2-0.2,0.43-0.29,0.71-0.29h9.4c0.28,0,0.51,0.1,0.71,0.29
	c0.2,0.2,0.29,0.43,0.29,0.71v0.17c0,0.28-0.1,0.51-0.29,0.71c-0.2,0.2-0.43,0.29-0.71,0.29h-9.4c-0.28,0-0.51-0.1-0.71-0.29
	C31.79,48.43,31.69,48.19,31.69,47.91z"/>
<path class="st1" d="M31.7,50.37v-0.17c0-0.28,0.1-0.51,0.29-0.71c0.2-0.2,0.43-0.29,0.71-0.29h9.4c0.28,0,0.51,0.1,0.71,0.29
	c0.2,0.2,0.29,0.43,0.29,0.71v0.17c0,0.28-0.1,0.51-0.29,0.71c-0.2,0.2-0.43,0.29-0.71,0.29h-9.4c-0.28,0-0.51-0.1-0.71-0.29
	C31.8,50.88,31.7,50.64,31.7,50.37z"/>
<path class="st1" d="M31.71,52.82v-0.17c0-0.28,0.1-0.51,0.29-0.71c0.2-0.2,0.43-0.29,0.71-0.29h9.4c0.28,0,0.51,0.1,0.71,0.29
	c0.2,0.2,0.29,0.43,0.29,0.71v0.17c0,0.28-0.1,0.51-0.29,0.71c-0.2,0.2-0.43,0.29-0.71,0.29h-9.4c-0.28,0-0.51-0.1-0.71-0.29
	C31.81,53.33,31.71,53.09,31.71,52.82z"/>
<path class="st2" d="M24.67,53.56c-0.02,0.23,0.16,0.43,0.39,0.44c0.79,0.03,2.48,0.1,3.08,0.07c0.09,0,0.15-0.1,0.12-0.18
	c-0.03-0.07-0.08-0.13-0.15-0.16l-2.79-1.28l-0.49-0.08C24.82,52.37,24.72,52.97,24.67,53.56"/>
<path class="st3" d="M24.74,52.02l0.08,0.71c0,0,0.49,0.23,0.82-0.03l-0.2-0.8L24.74,52.02z"/>
<path class="st4" d="M22.68,41.7c0,0-0.19-4.91,0,0.17c0.17,4.55,1.51,9.31,1.79,10.26c0.03,0.1,0.13,0.18,0.24,0.17
	c0.35-0.01,0.65-0.1,0.8-0.16c0.06-0.03,0.1-0.09,0.08-0.16c-0.98-4.09-0.82-13.23-0.78-13.42l-2.01,0L22.68,41.7z"/>
<path class="st2" d="M21.29,53.78c-0.03,0.15,0.07,0.28,0.22,0.3c0.25,0.02,0.63,0.06,0.95,0.06h0.01c0.01,0,0.02,0,0.03,0
	c0.15,0,0.26-0.13,0.25-0.28c-0.04-0.29-0.15-0.77-0.49-1.15l-0.63-0.03C21.62,52.68,21.45,52.98,21.29,53.78"/>
<path class="st3" d="M21.47,51.76l0.2,1.08c0,0,0.2,0.15,0.58,0.04l-0.09-1.16L21.47,51.76z"/>
<path class="st4" d="M20.94,38.84c-0.8,4.82,0.17,11.92,0.5,13.3c0.02,0.08,0.09,0.15,0.17,0.16c0.15,0.02,0.39,0.04,0.62-0.02
	c0.08-0.02,0.14-0.1,0.14-0.18c0.04-1.12-0.04-8.01,0.71-10.74c0.04-0.14,0.12-0.26,0.24-0.34L24.77,40l0.11-1.66L20.94,38.84z"/>
<path class="st5" d="M26.03,29.71c-2.39-0.04-5.04,0.63-5.04,0.63c-0.71,4.16-0.12,8.97-0.12,8.97c1.85,0.49,3.94-0.3,3.94-0.3
	c0.31-1.74,1.75-6.64,1.75-6.64c1.17-0.15,2.13-0.48,2.93-0.93c-0.61-0.7-0.89-1.59-1.01-2.12C27.62,29.58,26.76,29.72,26.03,29.71"
	/>
<path class="st3" d="M32.56,26.03c-0.35,1.49-2.2,2.69-4.1,3.28c0.12,0.53,0.41,1.42,1.01,2.12c3.15-1.77,3.62-5.26,3.62-5.26
	C32.98,26.04,32.84,26,32.73,26C32.63,26,32.56,26.03,32.56,26.03"/>
<path class="st3" d="M32.6,25.2c-0.09,0.12,0,0.78,0.01,0.94c0.17,0.32,0.45,0.2,0.43,0.12c0,0,0.28,0,0.48-0.28
	c0.1-0.15,0.21-0.34,0.29-0.48c0.08-0.14,0.11-0.31,0.06-0.47c-0.05-0.21-0.17-0.36-0.27-0.53l0.46-0.48c0,0,0.13-0.16-0.03-0.31
	C34.04,23.7,33.09,24.53,32.6,25.2"/>
<path class="st3" d="M32.99,25.15l-0.13,0.35l0.37,0.41c0,0,0.13-0.7,0.22-0.85c0.09-0.15,0.04-0.22-0.04-0.27L32.99,25.15z"/>
<path class="st5" d="M18.39,33.78c0.42,0.03,1.19,0.14,1.94,0.52c0.17-0.91,1.58-1.65,1.58-1.65l-0.92-2.32
	C20.99,30.34,18.75,31.86,18.39,33.78"/>
<path class="st3" d="M18.68,35.61c1.48,2.71,5.52-0.15,5.52-0.15l-0.33-0.62c0,0-2.51,1.42-3.36,0.21c-0.18-0.25-0.22-0.5-0.17-0.74
	c-0.75-0.38-1.52-0.49-1.94-0.52C18.28,34.36,18.33,34.98,18.68,35.61"/>
<path class="st4" d="M26.85,31.57c-0.83,0.07-1.55,0.15-1.8,0.18c-0.06,0.01-0.1,0.05-0.12,0.1l-1.37,4.78
	c-0.03,0.09,0.04,0.18,0.13,0.18l3.18,0.03c0.04,0,0.09-0.02,0.11-0.06c0.81-1.06,2.44-4.31,2.83-5.11c0.04-0.09-0.02-0.19-0.11-0.2
	c-0.18-0.02-0.39-0.02-0.62-0.02C28.42,31.45,27.59,31.5,26.85,31.57"/>
<path class="st6" d="M27.98,30.99l-0.99,0.17c-0.03,0-0.05,0.03-0.06,0.05l-0.06,0.26c-0.01,0.05,0.03,0.09,0.08,0.09l0.96-0.13
	c0.03,0,0.05-0.02,0.06-0.05l0.1-0.3c0.02-0.05-0.02-0.09-0.07-0.09C27.99,30.99,27.99,30.99,27.98,30.99"/>
<path class="st6" d="M28.42,31.28l-2.01,0.2c-0.04,0-0.08,0.04-0.09,0.08l-0.08,0.43c-0.01,0.06,0.04,0.12,0.1,0.12l1.96-0.1
	c0.04,0,0.08-0.03,0.09-0.08l0.13-0.53c0.01-0.06-0.03-0.12-0.1-0.12C28.43,31.28,28.42,31.28,28.42,31.28"/>
<path class="st3" d="M23.78,34.41c-0.08,0.28,0.11,1.06,0.11,1.06c0.32,0.05,0.51-0.09,0.65-0.23c0.15-0.15,0.24-0.29,0.36-0.21
	c0.23,0.15,0.37-0.09,0.37-0.09l-0.22-0.24c0.32,0.16,0.35-0.14,0.35-0.14l-0.23-0.18c0.38,0.12,0.41-0.25,0.41-0.25
	S25,33.94,24.5,33.86c-0.05-0.01-0.09-0.01-0.13-0.01C23.98,33.84,23.85,34.16,23.78,34.41"/>
<path class="st3" d="M23.6,27.77l-0.76,2.2c-0.01,0.04,0,0.08,0.04,0.1c0.21,0.11,0.96,0.45,1.86-0.12
	c0.09-0.06,0.16-0.16,0.17-0.27l0.25-1.91H23.6z"/>
<path class="st3" d="M23.31,26.31l0.63,1.7c0.91,0.52,1.94,0.56,2.05-0.07c0.11-0.64-0.73-2.21-0.73-2.21L23.31,26.31z"/>
<path class="st7" d="M24.7,24.92c-0.03,0.03-0.08,0.03-0.1,0c-0.11-0.15-0.41-0.45-0.81-0.26c-0.38,0.17-0.43,0.45-0.42,0.59
	c0,0.04-0.04,0.07-0.08,0.07c-0.19-0.04-0.66-0.07-0.87,0.41c-0.18,0.39-0.06,0.61,0.04,0.72c0.03,0.04,0.02,0.09-0.03,0.11
	c-0.13,0.04-0.29,0.15-0.27,0.44c0.02,0.41,0.48,0.38,0.61,0.36c0.02,0,0.04,0,0.06,0.02c0.11,0.12,0.62,0.65,1.17,0.72
	c0.05,0.01,0.08-0.04,0.07-0.09l-0.24-0.69c-0.01-0.03,0-0.07,0.04-0.08l0.12-0.05c0.04-0.02,0.05-0.06,0.03-0.1
	c-0.07-0.1-0.19-0.31-0.23-0.49c0,0-0.15-0.1,0.38-0.22c0.53-0.13,1.33-0.33,1.5-0.78c0.12-0.32-0.08-1-0.46-1
	C25.06,24.58,24.89,24.68,24.7,24.92"/>
<path class="st3" d="M23.43,27.21c-0.04,0.34,0.54,0.5,0.82,0.37l-0.18-0.31c0,0-0.29-0.2-0.48-0.2
	C23.51,27.07,23.45,27.11,23.43,27.21"/>
<path class="st8" d="M50.95,31.08c-1.64-2.58-4.02-4.19-6.12-4.37l-0.44-0.69l-1.9,1.21c-2.36,1.5-2.41,5.66-0.11,9.29
	c2.31,3.63,6.09,5.36,8.46,3.86l1.9-1.21l-0.44-0.69C53.04,36.5,52.59,33.66,50.95,31.08z"/>
<path class="st9" d="M44.4,26.01c0.28-0.18,0.59-0.31,0.92-0.4s0.68-0.14,1.04-0.14c0.36,0,0.74,0.05,1.13,0.14
	c0.39,0.09,0.78,0.23,1.17,0.41c0.39,0.18,0.78,0.4,1.16,0.66c0.38,0.26,0.76,0.56,1.12,0.89c0.36,0.33,0.7,0.69,1.03,1.08
	s0.62,0.8,0.9,1.23c0.27,0.43,0.52,0.88,0.73,1.34c0.21,0.46,0.39,0.92,0.54,1.39s0.25,0.93,0.33,1.39s0.11,0.9,0.1,1.33
	c0,0.43-0.05,0.84-0.13,1.23c-0.08,0.39-0.2,0.75-0.35,1.08s-0.34,0.62-0.57,0.88c-0.22,0.26-0.47,0.48-0.75,0.66
	c-0.28,0.18-0.59,0.31-0.92,0.4c-0.33,0.09-0.68,0.14-1.04,0.14c-0.36,0-0.74-0.05-1.13-0.14c-0.39-0.09-0.78-0.23-1.17-0.41
	s-0.78-0.4-1.16-0.66c-0.38-0.26-0.76-0.56-1.12-0.89s-0.7-0.69-1.03-1.08s-0.62-0.8-0.9-1.23c-0.27-0.43-0.52-0.88-0.73-1.34
	s-0.39-0.92-0.54-1.39c-0.15-0.47-0.25-0.93-0.33-1.39c-0.07-0.46-0.11-0.9-0.1-1.33c0-0.43,0.05-0.84,0.13-1.23s0.2-0.75,0.35-1.08
	c0.15-0.33,0.34-0.62,0.57-0.88C43.87,26.41,44.12,26.19,44.4,26.01z"/>
<path class="st10" d="M51.95,30.44c1.82,2.87,1.78,6.15-0.08,7.33c-1.87,1.18-4.85-0.18-6.67-3.05c-1.82-2.87-1.78-6.15,0.08-7.33
	C47.15,26.21,50.13,27.58,51.95,30.44z"/>
<path class="st8" d="M45.58,27.87c0.2-0.13,0.42-0.22,0.66-0.29c0.24-0.07,0.48-0.1,0.75-0.1s0.53,0.03,0.81,0.1
	c0.28,0.07,0.56,0.16,0.84,0.29c0.28,0.13,0.56,0.29,0.84,0.47c0.28,0.19,0.54,0.4,0.8,0.64c0.26,0.24,0.5,0.49,0.74,0.77
	c0.23,0.28,0.45,0.57,0.64,0.88s0.37,0.63,0.53,0.96c0.15,0.33,0.28,0.66,0.39,1c0.1,0.33,0.18,0.67,0.23,1
	c0.05,0.33,0.08,0.65,0.07,0.96c0,0.31-0.03,0.6-0.09,0.88s-0.14,0.54-0.25,0.77c-0.11,0.24-0.25,0.45-0.41,0.63
	s-0.34,0.34-0.54,0.47c-0.2,0.13-0.42,0.22-0.66,0.29c-0.24,0.07-0.48,0.1-0.75,0.1s-0.53-0.03-0.81-0.1s-0.56-0.16-0.84-0.29
	c-0.28-0.13-0.56-0.29-0.84-0.47c-0.28-0.19-0.54-0.4-0.8-0.64c-0.26-0.24-0.5-0.49-0.74-0.77c-0.23-0.28-0.45-0.57-0.64-0.88
	s-0.37-0.63-0.53-0.96c-0.15-0.33-0.28-0.66-0.39-1s-0.18-0.67-0.23-1c-0.05-0.33-0.08-0.65-0.07-0.96s0.03-0.6,0.09-0.88
	c0.06-0.28,0.14-0.54,0.25-0.77c0.11-0.24,0.25-0.45,0.41-0.63S45.38,28,45.58,27.87z"/>
<path class="st11" d="M48.9,26.36c-0.3-0.15-0.6-0.26-0.89-0.34c-0.33-0.09-0.55-0.11-0.83-0.1c-0.24,0-0.59,0.01-0.65,0.29
	c-0.01,0.06,0.01,0.17,0.07,0.23c0.24,0.23,0.53,0.24,0.77,0.3c0.25,0.06,0.51,0.13,0.76,0.2c-0.04-0.01,0.07,0.02,0.07,0.02
	c0.03,0.01,0.06,0.02,0.1,0.03c0.06,0.02,0.13,0.05,0.19,0.07c0.13,0.05,0.26,0.11,0.39,0.17c0.13,0.06,0.26,0.13,0.39,0.21
	c0.03,0.02,0.03,0.01-0.01,0l0.1,0.06c0.03,0.02,0.06,0.03,0.1,0.04c0.13,0.05,0.24,0.06,0.33-0.01c0.11-0.08,0.12-0.23,0.06-0.41
	C49.7,26.71,49.19,26.5,48.9,26.36z"/>
<path class="st11" d="M51.1,27.88c-0.08-0.09-0.17-0.16-0.26-0.23c-0.08-0.07-0.17-0.12-0.26-0.16c-0.08-0.04-0.16-0.05-0.23-0.04
	c-0.13,0.02-0.21,0.15-0.17,0.33c0.06,0.25,0.24,0.42,0.42,0.58l-0.09-0.08c0.06,0.05,0.11,0.11,0.17,0.17
	c0.11,0.11,0.21,0.22,0.33,0.27c0.12,0.05,0.22,0.04,0.29-0.03c0.06-0.06,0.11-0.18,0.07-0.32c-0.03-0.09-0.04-0.13-0.08-0.2
	c-0.02-0.04-0.04-0.07-0.06-0.1C51.2,27.99,51.15,27.94,51.1,27.88z"/>
<path class="st9" d="M42.46,28.19c-0.27,0.17-0.54,0.34-0.81,0.52c-0.12,0.07-0.24,0.16-0.36,0.23c-0.05,0.03-0.05,0.09-0.03,0.13
	c0.02,0.04,0.07,0.06,0.12,0.03c0.12-0.08,0.24-0.15,0.36-0.23c0.27-0.17,0.54-0.34,0.81-0.51C42.66,28.28,42.56,28.12,42.46,28.19z
	"/>
<path class="st9" d="M42.23,29.27c-0.27,0.17-0.54,0.34-0.81,0.52c-0.12,0.07-0.24,0.16-0.36,0.23C41,30.05,41,30.1,41.03,30.14
	c0.02,0.04,0.07,0.06,0.12,0.03c0.12-0.08,0.24-0.15,0.36-0.23c0.27-0.17,0.54-0.34,0.81-0.51C42.43,29.36,42.33,29.21,42.23,29.27z
	"/>
<path class="st9" d="M42.48,32.32c-0.27,0.17-0.54,0.34-0.81,0.52c-0.12,0.07-0.24,0.16-0.36,0.23c-0.05,0.03-0.05,0.09-0.03,0.13
	c0.02,0.04,0.07,0.06,0.12,0.03c0.12-0.08,0.24-0.15,0.36-0.23c0.27-0.17,0.54-0.34,0.81-0.51C42.69,32.42,42.59,32.26,42.48,32.32z
	"/>
<path class="st9" d="M42.8,33.19c-0.27,0.17-0.54,0.34-0.81,0.52c-0.12,0.07-0.24,0.16-0.36,0.23c-0.05,0.03-0.05,0.09-0.03,0.13
	c0.02,0.04,0.07,0.06,0.12,0.03c0.12-0.08,0.24-0.15,0.36-0.23c0.27-0.17,0.54-0.34,0.81-0.51C43,33.28,42.9,33.12,42.8,33.19z"/>
<path class="st9" d="M46.07,38.01c-0.27,0.17-0.54,0.34-0.81,0.52c-0.12,0.07-0.24,0.16-0.36,0.23c-0.05,0.03-0.05,0.09-0.03,0.13
	c0.02,0.04,0.07,0.06,0.12,0.03c0.12-0.08,0.24-0.15,0.36-0.23c0.27-0.17,0.54-0.34,0.81-0.51C46.28,38.11,46.18,37.95,46.07,38.01z
	"/>
<path class="st9" d="M43.28,34.27c-0.27,0.17-0.54,0.34-0.81,0.52c-0.12,0.07-0.24,0.16-0.36,0.23c-0.05,0.03-0.05,0.09-0.03,0.13
	c0.02,0.04,0.07,0.06,0.12,0.03c0.12-0.08,0.24-0.15,0.36-0.23c0.27-0.17,0.54-0.34,0.81-0.51C43.48,34.36,43.38,34.2,43.28,34.27z"
	/>
<path class="st9" d="M45.19,37.14c-0.27,0.17-0.54,0.34-0.81,0.52c-0.12,0.07-0.24,0.16-0.36,0.23c-0.05,0.03-0.05,0.09-0.03,0.13
	c0.02,0.04,0.07,0.06,0.12,0.03c0.12-0.08,0.24-0.15,0.36-0.23c0.27-0.17,0.54-0.34,0.81-0.51C45.39,37.23,45.29,37.07,45.19,37.14z
	"/>
<path class="st9" d="M47.1,38.8c-0.27,0.17-0.54,0.34-0.81,0.52c-0.12,0.07-0.24,0.16-0.36,0.23c-0.05,0.03-0.05,0.09-0.03,0.13
	c0.02,0.04,0.07,0.06,0.12,0.03c0.12-0.08,0.24-0.15,0.36-0.23c0.27-0.17,0.54-0.34,0.81-0.51C47.3,38.89,47.2,38.73,47.1,38.8z"/>
<path class="st9" d="M49.6,39.8c-0.27,0.17-0.54,0.34-0.81,0.52c-0.12,0.07-0.24,0.16-0.36,0.23c-0.05,0.03-0.05,0.09-0.03,0.13
	c0.02,0.04,0.07,0.06,0.12,0.03c0.12-0.08,0.24-0.15,0.36-0.23c0.27-0.17,0.54-0.34,0.81-0.51C49.8,39.9,49.7,39.74,49.6,39.8z"/>
<path class="st9" d="M45.9,30.88c-0.18,0-0.36-0.1-0.44-0.28c-0.11-0.24-0.01-0.53,0.23-0.65l2.77-1.29
	c0.24-0.11,0.53-0.01,0.65,0.24c0.11,0.24,0.01,0.53-0.23,0.65l-2.77,1.29C46.04,30.87,45.97,30.88,45.9,30.88z"/>
<path class="st9" d="M46.78,32.76c-0.18,0-0.36-0.1-0.44-0.28c-0.11-0.24-0.01-0.53,0.23-0.65l2.77-1.29
	c0.24-0.11,0.53-0.01,0.65,0.24c0.11,0.24,0.01,0.53-0.23,0.65l-2.77,1.29C46.92,32.74,46.85,32.76,46.78,32.76z"/>
<path class="st9" d="M51.19,36.66c-0.1,0-0.2-0.03-0.29-0.09l-3.08-2.24c-0.14-0.1-0.21-0.27-0.2-0.44
	c0.02-0.17,0.12-0.32,0.28-0.39l0.46-0.22c0.36-0.19,0.5-0.97,0.11-1.79c-0.38-0.84-1.07-1.24-1.46-1.08l-0.91,0.42
	c-0.24,0.11-0.53,0.01-0.65-0.23c-0.11-0.24-0.01-0.53,0.23-0.65l0.92-0.43c0.98-0.41,2.17,0.28,2.74,1.55
	c0.55,1.13,0.4,2.35-0.32,2.92l2.45,1.78c0.22,0.16,0.27,0.46,0.11,0.68C51.48,36.59,51.34,36.66,51.19,36.66z"/>
<path class="st8" d="M35.43,39.91c1.41,1.46,3.17,2.19,4.55,2.03l0.38,0.39l1.07-1.03c1.33-1.29,0.81-3.99-1.16-6.04
	c-1.98-2.05-4.66-2.67-5.99-1.38L33.2,34.9l0.38,0.39C33.36,36.67,34.03,38.45,35.43,39.91z"/>
<path class="st9" d="M33.2,34.9c0.16-0.15,0.34-0.28,0.54-0.38c0.2-0.1,0.42-0.18,0.66-0.23c0.24-0.05,0.49-0.07,0.75-0.06
	c0.26,0.01,0.53,0.04,0.81,0.11c0.28,0.06,0.56,0.16,0.84,0.27s0.56,0.26,0.84,0.43s0.55,0.35,0.81,0.56
	c0.26,0.21,0.51,0.44,0.74,0.68c0.23,0.24,0.45,0.5,0.65,0.77c0.2,0.27,0.38,0.55,0.53,0.83c0.16,0.28,0.29,0.57,0.4,0.86
	c0.11,0.29,0.19,0.57,0.24,0.85c0.05,0.28,0.08,0.55,0.08,0.81c0,0.26-0.03,0.51-0.09,0.75c-0.06,0.23-0.14,0.45-0.25,0.65
	c-0.11,0.2-0.24,0.37-0.4,0.53c-0.16,0.15-0.34,0.28-0.54,0.38s-0.42,0.18-0.66,0.23c-0.24,0.05-0.49,0.07-0.75,0.06
	c-0.26-0.01-0.53-0.04-0.81-0.11c-0.28-0.06-0.56-0.16-0.84-0.27c-0.28-0.12-0.56-0.26-0.84-0.43c-0.28-0.17-0.55-0.35-0.81-0.56
	c-0.26-0.21-0.51-0.44-0.74-0.68c-0.23-0.24-0.45-0.5-0.65-0.77c-0.2-0.27-0.38-0.55-0.53-0.83c-0.16-0.28-0.29-0.57-0.4-0.86
	s-0.19-0.57-0.24-0.85c-0.05-0.28-0.08-0.55-0.08-0.81c0-0.26,0.03-0.51,0.09-0.75c0.06-0.23,0.14-0.45,0.25-0.65
	S33.04,35.06,33.2,34.9z"/>
<path class="st10" d="M34.87,40.45c-1.56-1.62-1.97-3.75-0.92-4.77c1.05-1.02,3.17-0.53,4.73,1.09c1.56,1.62,1.97,3.75,0.92,4.77
	C38.55,42.56,36.43,42.07,34.87,40.45z"/>
<path class="st8" d="M35.04,40.28c-1.42-1.47-1.79-3.41-0.83-4.33c0.96-0.92,2.88-0.48,4.3,0.99c1.42,1.47,1.79,3.41,0.83,4.33
	C38.39,42.2,36.46,41.75,35.04,40.28z"/>
<path class="st11" d="M37.39,42.7c0.21,0.06,0.42,0.09,0.62,0.1c0.23,0.02,0.37,0,0.55-0.04c0.15-0.03,0.38-0.09,0.38-0.28
	c0-0.04-0.03-0.11-0.08-0.14c-0.19-0.12-0.37-0.09-0.54-0.09c-0.17,0-0.35-0.01-0.52-0.03c0.02,0-0.05-0.01-0.04-0.01
	c-0.02,0-0.04-0.01-0.07-0.01c-0.04-0.01-0.09-0.01-0.13-0.02c-0.09-0.02-0.18-0.04-0.27-0.06c-0.09-0.02-0.18-0.05-0.28-0.08
	c-0.02-0.01-0.02-0.01,0,0l-0.07-0.03c-0.02-0.01-0.05-0.01-0.07-0.02c-0.09-0.01-0.16-0.01-0.21,0.05
	c-0.06,0.06-0.05,0.16,0.02,0.27C36.83,42.57,37.18,42.64,37.39,42.7z"/>
<path class="st11" d="M35.76,42c0.06,0.04,0.13,0.08,0.2,0.12c0.06,0.03,0.13,0.06,0.19,0.07c0.06,0.01,0.11,0.01,0.15,0
	c0.08-0.03,0.12-0.13,0.07-0.24c-0.07-0.16-0.21-0.24-0.35-0.32l0.07,0.04c-0.04-0.03-0.09-0.06-0.13-0.08
	c-0.08-0.05-0.17-0.12-0.25-0.13c-0.08-0.02-0.15,0-0.19,0.06c-0.03,0.05-0.05,0.13,0,0.21c0.03,0.05,0.04,0.08,0.08,0.12
	c0.02,0.02,0.03,0.04,0.05,0.06C35.68,41.94,35.72,41.97,35.76,42z"/>
<path class="st9" d="M41.32,40.66c0.15-0.15,0.31-0.3,0.46-0.44c0.07-0.06,0.14-0.13,0.2-0.2c0.03-0.03,0.02-0.06,0-0.08
	c-0.02-0.02-0.06-0.03-0.08,0c-0.07,0.07-0.14,0.13-0.21,0.2c-0.15,0.15-0.31,0.29-0.46,0.44C41.18,40.62,41.27,40.71,41.32,40.66z"
	/>
<path class="st9" d="M41.33,39.92c0.15-0.15,0.31-0.3,0.46-0.44c0.07-0.06,0.14-0.13,0.2-0.2c0.03-0.03,0.02-0.06,0-0.08
	c-0.02-0.02-0.06-0.03-0.08,0c-0.07,0.07-0.14,0.13-0.21,0.2c-0.15,0.15-0.31,0.29-0.46,0.44C41.19,39.89,41.27,39.98,41.33,39.92z"
	/>
<path class="st9" d="M40.76,37.98c0.15-0.15,0.3-0.29,0.46-0.44c0.07-0.06,0.14-0.13,0.2-0.2c0.03-0.03,0.02-0.06,0-0.08
	c-0.02-0.02-0.06-0.03-0.08,0c-0.07,0.07-0.14,0.13-0.21,0.2c-0.15,0.15-0.31,0.29-0.46,0.44C40.62,37.94,40.7,38.03,40.76,37.98z"
	/>
<path class="st9" d="M40.44,37.46c0.15-0.15,0.31-0.3,0.46-0.44c0.07-0.06,0.14-0.13,0.2-0.2c0.03-0.03,0.02-0.06,0-0.08
	c-0.02-0.02-0.06-0.03-0.08,0c-0.07,0.07-0.14,0.13-0.21,0.2c-0.15,0.15-0.31,0.29-0.46,0.44C40.3,37.42,40.38,37.51,40.44,37.46z"
	/>
<path class="st9" d="M37.68,34.76c0.15-0.15,0.31-0.29,0.46-0.44c0.07-0.06,0.14-0.13,0.2-0.2c0.03-0.03,0.02-0.06,0-0.08
	c-0.02-0.02-0.06-0.03-0.08,0c-0.07,0.07-0.14,0.13-0.21,0.2c-0.15,0.15-0.31,0.29-0.46,0.44C37.54,34.73,37.62,34.82,37.68,34.76z"
	/>
<path class="st9" d="M39.99,36.82c0.15-0.15,0.3-0.3,0.46-0.44c0.07-0.06,0.14-0.13,0.2-0.2c0.03-0.03,0.02-0.06,0-0.08
	c-0.02-0.02-0.06-0.03-0.08,0c-0.07,0.07-0.14,0.13-0.21,0.2c-0.15,0.15-0.31,0.29-0.46,0.44C39.84,36.79,39.93,36.88,39.99,36.82z"
	/>
<path class="st9" d="M38.37,35.22c0.15-0.15,0.31-0.3,0.46-0.44c0.07-0.06,0.14-0.13,0.2-0.2c0.03-0.03,0.02-0.06,0-0.08
	c-0.02-0.02-0.06-0.03-0.08,0c-0.07,0.07-0.14,0.13-0.21,0.2c-0.15,0.15-0.31,0.29-0.46,0.44C38.22,35.18,38.31,35.27,38.37,35.22z"
	/>
<path class="st9" d="M36.91,34.39c0.15-0.15,0.31-0.3,0.46-0.44c0.07-0.06,0.14-0.13,0.2-0.2c0.03-0.03,0.02-0.06,0-0.08
	c-0.02-0.02-0.06-0.03-0.08,0c-0.07,0.07-0.14,0.13-0.21,0.2c-0.15,0.15-0.31,0.29-0.46,0.44C36.77,34.36,36.85,34.45,36.91,34.39z"
	/>
<path class="st9" d="M35.16,34.07c0.15-0.15,0.31-0.29,0.46-0.44c0.07-0.06,0.14-0.13,0.2-0.2c0.03-0.03,0.02-0.06,0-0.08
	c-0.02-0.02-0.06-0.03-0.08,0c-0.07,0.07-0.14,0.13-0.21,0.2c-0.15,0.15-0.31,0.29-0.46,0.44C35.01,34.04,35.1,34.13,35.16,34.07z"
	/>
<path class="st9" d="M34.46,37.99c-0.09,0-0.19-0.04-0.25-0.12c-0.11-0.14-0.08-0.34,0.05-0.44l1.7-1.33
	c0.14-0.11,0.34-0.08,0.44,0.05c0.11,0.14,0.08,0.34-0.05,0.44l-1.7,1.33C34.6,37.97,34.53,37.99,34.46,37.99z"/>
<path class="st9" d="M35.34,39.06c-0.09,0-0.19-0.04-0.25-0.12c-0.11-0.14-0.08-0.34,0.05-0.44l1.7-1.33
	c0.14-0.11,0.34-0.08,0.44,0.05c0.11,0.14,0.08,0.34-0.05,0.44L35.53,39C35.48,39.04,35.41,39.06,35.34,39.06z"/>
<path class="st9" d="M38.94,40.84c-0.04,0-0.07-0.01-0.11-0.02l-2.44-0.92c-0.11-0.04-0.18-0.14-0.2-0.25
	c-0.02-0.11,0.03-0.23,0.12-0.3l0.28-0.22c0.11-0.09,0.14-0.23,0.15-0.34c0.02-0.27-0.1-0.6-0.33-0.86c-0.36-0.45-0.9-0.65-1.2-0.44
	l-0.56,0.44c-0.14,0.11-0.34,0.08-0.44-0.05c-0.11-0.14-0.08-0.34,0.05-0.44l0.57-0.44c0.59-0.43,1.49-0.18,2.07,0.54
	c0.33,0.39,0.51,0.87,0.47,1.32c-0.02,0.25-0.11,0.47-0.25,0.65l1.94,0.73c0.16,0.06,0.25,0.24,0.18,0.41
	C39.19,40.76,39.07,40.84,38.94,40.84z"/>
</svg>
