<svg xmlns="http://www.w3.org/2000/svg" xmlns:xlink="http://www.w3.org/1999/xlink" width="30" height="30" viewBox="0 0 30 30">
  <defs>
    <linearGradient id="linear-gradient" x1="0.049" y1="0.951" x2="0.951" y2="0.049" gradientUnits="objectBoundingBox">
      <stop offset="0" stop-color="#0071a8"/>
      <stop offset="0.375" stop-color="#018bc3"/>
      <stop offset="0.75" stop-color="#039ed7"/>
      <stop offset="1" stop-color="#04a6df"/>
    </linearGradient>
  </defs>
  <g id="ic_amazon_prime" transform="translate(-82.844 -22.434)">
    <g id="Group_48" data-name="Group 48" transform="translate(82.844 22.434)">
      <rect id="Rectangle_15" data-name="Rectangle 15" width="30" height="30" rx="6" fill="url(#linear-gradient)"/>
    </g>
    <g id="Group_52" data-name="Group 52" transform="translate(88.157 27.669)">
      <g id="Group_49" data-name="Group 49" transform="translate(0.015)">
        <path id="Path_144" data-name="Path 144" d="M91.06,38.328a.2.2,0,0,1-.143-.041.2.2,0,0,1-.045-.147V33.118a.2.2,0,0,1,.045-.147.208.208,0,0,1,.143-.041H91.6a.2.2,0,0,1,.211.165l.052.2a1.666,1.666,0,0,1,.546-.346,1.734,1.734,0,0,1,.651-.128,1.4,1.4,0,0,1,1.156.534,2.259,2.259,0,0,1,.425,1.446,2.626,2.626,0,0,1-.211,1.092,1.708,1.708,0,0,1-.572.719,1.409,1.409,0,0,1-.828.252,1.765,1.765,0,0,1-.587-.1,1.424,1.424,0,0,1-.475-.271v1.649a.207.207,0,0,1-.041.147.2.2,0,0,1-.147.041Zm1.649-2.3a.7.7,0,0,0,.621-.286,1.607,1.607,0,0,0,.2-.9,1.645,1.645,0,0,0-.2-.911.7.7,0,0,0-.625-.286,1.437,1.437,0,0,0-.738.2v1.98A1.386,1.386,0,0,0,92.709,36.032Z" transform="translate(-90.872 -31.16)" fill="#fff"/>
        <path id="Path_145" data-name="Path 145" d="M97.833,36.815a.194.194,0,0,1-.143-.045.2.2,0,0,1-.045-.143V33.156a.2.2,0,0,1,.045-.147.209.209,0,0,1,.143-.041h.542a.2.2,0,0,1,.21.165l.1.407a2.147,2.147,0,0,1,.568-.471,1.213,1.213,0,0,1,.569-.139h.106a.223.223,0,0,1,.151.041.2.2,0,0,1,.045.147v.633a.2.2,0,0,1-.042.143.191.191,0,0,1-.147.045c-.035,0-.08,0-.135-.007s-.125-.007-.211-.007a2.239,2.239,0,0,0-.421.048,2.088,2.088,0,0,0-.422.125v2.53a.2.2,0,0,1-.041.143.192.192,0,0,1-.147.045Z" transform="translate(-93.15 -31.198)" fill="#fff"/>
        <path id="Path_146" data-name="Path 146" d="M102.615,31.5a.654.654,0,0,1-.459-.159.618.618,0,0,1,0-.858.747.747,0,0,1,.919,0,.618.618,0,0,1,0,.858A.655.655,0,0,1,102.615,31.5Zm-.362,4.442a.162.162,0,0,1-.188-.188V32.278a.192.192,0,0,1,.045-.147.208.208,0,0,1,.143-.041h.723a.156.156,0,0,1,.188.188V35.75a.208.208,0,0,1-.041.143.193.193,0,0,1-.147.045Z" transform="translate(-94.608 -30.321)" fill="#fff"/>
        <path id="Path_147" data-name="Path 147" d="M105.333,36.777a.162.162,0,0,1-.188-.188V33.118a.192.192,0,0,1,.045-.147.208.208,0,0,1,.143-.041h.542a.2.2,0,0,1,.211.165l.06.2a3.246,3.246,0,0,1,.719-.373,2.036,2.036,0,0,1,.659-.109,1.014,1.014,0,0,1,.956.482,3.057,3.057,0,0,1,.723-.369,2.188,2.188,0,0,1,.7-.113,1.1,1.1,0,0,1,.817.293,1.119,1.119,0,0,1,.29.821v2.658a.2.2,0,0,1-.042.143.192.192,0,0,1-.147.045H110.1a.162.162,0,0,1-.188-.188V34.172q0-.513-.459-.512a1.912,1.912,0,0,0-.82.2v2.734a.2.2,0,0,1-.042.143.192.192,0,0,1-.147.045h-.723a.194.194,0,0,1-.143-.045.2.2,0,0,1-.045-.143V34.172q0-.513-.459-.512a1.826,1.826,0,0,0-.828.2v2.726a.208.208,0,0,1-.041.143.194.194,0,0,1-.147.045Z" transform="translate(-95.672 -31.16)" fill="#fff"/>
        <path id="Path_148" data-name="Path 148" d="M116.9,36.913a1.891,1.891,0,0,1-1.455-.526,2.086,2.086,0,0,1-.479-1.512,2.112,2.112,0,0,1,.535-1.49,1.808,1.808,0,0,1,1.316-.524,1.577,1.577,0,0,1,1.222.407,1.126,1.126,0,0,1,.317.778,1.106,1.106,0,0,1-.1.543.878.878,0,0,1-.21.275,2.432,2.432,0,0,1-1.609.363l-.477-.072a.977.977,0,0,0,.326.737,1.264,1.264,0,0,0,.825.2,3.581,3.581,0,0,0,.865-.138c.02-.005.058-.015.072-.017a.17.17,0,0,1,.069,0c.04.013.086.052.086.161v.346a.318.318,0,0,1-.032.17.286.286,0,0,1-.133.089A3.171,3.171,0,0,1,116.9,36.913Zm.458-2.823c0-.367-.259-.472-.578-.472a.741.741,0,0,0-.552.228,1.179,1.179,0,0,0-.254.657,3.5,3.5,0,0,0,.972.035A.433.433,0,0,0,117.354,34.091Z" transform="translate(-98.974 -31.176)" fill="#fff"/>
      </g>
      <g id="Group_50" data-name="Group 50" transform="translate(0 7.414)">
        <path id="Path_149" data-name="Path 149" d="M109.846,48.465a2,2,0,0,1-1.54-.556,2.208,2.208,0,0,1-.506-1.6,2.232,2.232,0,0,1,.565-1.576,1.911,1.911,0,0,1,1.392-.554,1.671,1.671,0,0,1,1.293.43,1.19,1.19,0,0,1,.335.823,1.166,1.166,0,0,1-.108.574.931.931,0,0,1-.222.291,2.571,2.571,0,0,1-1.7.384l-.5-.076a1.03,1.03,0,0,0,.344.779,1.337,1.337,0,0,0,.873.208,3.8,3.8,0,0,0,.915-.146c.021-.005.062-.016.076-.018a.18.18,0,0,1,.074,0c.042.015.09.055.09.17v.366a.335.335,0,0,1-.034.18.3.3,0,0,1-.14.094A3.362,3.362,0,0,1,109.846,48.465Zm.484-2.985c0-.388-.274-.5-.611-.5a.785.785,0,0,0-.584.241,1.252,1.252,0,0,0-.269.695,3.675,3.675,0,0,0,1.029.037A.458.458,0,0,0,110.329,45.48Z" transform="translate(-96.55 -42.396)" fill="#fff"/>
        <path id="Path_150" data-name="Path 150" d="M92.554,48.381a.37.37,0,0,1-.131-.02.208.208,0,0,1-.088-.064.476.476,0,0,1-.068-.123L90.906,44.63q-.024-.064-.04-.111a.279.279,0,0,1-.016-.088c0-.08.053-.12.159-.12h.8a.3.3,0,0,1,.187.048.305.305,0,0,1,.092.159l.82,2.819.836-2.819a.305.305,0,0,1,.092-.159.3.3,0,0,1,.187-.048h.773c.106,0,.159.04.159.12a.279.279,0,0,1-.016.088q-.016.048-.04.111l-1.362,3.544a.476.476,0,0,1-.068.123.214.214,0,0,1-.084.064.364.364,0,0,1-.135.02Z" transform="translate(-90.85 -42.44)" fill="#fff"/>
        <path id="Path_151" data-name="Path 151" d="M98.313,42.734a.693.693,0,0,1-.486-.167.654.654,0,0,1,0-.908.789.789,0,0,1,.972,0,.654.654,0,0,1,0,.908A.693.693,0,0,1,98.313,42.734Zm-.382,4.7a.172.172,0,0,1-.2-.2V43.563a.2.2,0,0,1,.048-.155.219.219,0,0,1,.151-.044H98.7a.166.166,0,0,1,.2.2v3.672a.219.219,0,0,1-.044.151.2.2,0,0,1-.155.048Z" transform="translate(-93.135 -41.492)" fill="#fff"/>
        <path id="Path_152" data-name="Path 152" d="M102.342,47.545a1.53,1.53,0,0,1-.9-.267,1.686,1.686,0,0,1-.586-.741,2.772,2.772,0,0,1-.2-1.1,2.474,2.474,0,0,1,.469-1.581,1.508,1.508,0,0,1,1.243-.593,1.727,1.727,0,0,1,1.091.358V41.763a.2.2,0,0,1,.048-.155.219.219,0,0,1,.151-.044h.765a.165.165,0,0,1,.2.2v5.5a.219.219,0,0,1-.044.151.205.205,0,0,1-.155.048h-.637a.2.2,0,0,1-.223-.175l-.048-.183A1.69,1.69,0,0,1,102.342,47.545Zm.382-.876a1.346,1.346,0,0,0,.733-.223v-2.1a1.542,1.542,0,0,0-.788-.2.7.7,0,0,0-.629.315,1.746,1.746,0,0,0-.207.952,1.649,1.649,0,0,0,.219.948A.768.768,0,0,0,102.725,46.669Z" transform="translate(-94.147 -41.516)" fill="#fff"/>
        <path id="Path_153" data-name="Path 153" d="M116.049,48.441a1.931,1.931,0,0,1-1.481-.569,2.62,2.62,0,0,1,0-3.17,2.212,2.212,0,0,1,2.963,0,2.62,2.62,0,0,1,0,3.17A1.931,1.931,0,0,1,116.049,48.441Zm0-.892q.836,0,.836-1.266t-.836-1.258q-.836,0-.836,1.258T116.049,47.549Z" transform="translate(-98.647 -42.38)" fill="#fff"/>
      </g>
      <g id="Group_51" data-name="Group 51" transform="translate(0.086 15.015)">
        <path id="Path_154" data-name="Path 154" d="M90.979,53.423v.058a.266.266,0,0,0,.083.151,13.638,13.638,0,0,0,9.582,3.94,13.2,13.2,0,0,0,7.844-2.583.309.309,0,1,0-.308-.535,17.887,17.887,0,0,1-7.313,1.613,18.228,18.228,0,0,1-9.586-2.741.258.258,0,0,0-.137-.044.162.162,0,0,0-.164.141" transform="translate(-90.979 -53.058)" fill="#fff" fill-rule="evenodd"/>
        <path id="Path_155" data-name="Path 155" d="M114.661,53.576a.284.284,0,0,0-.122.179v.035c.009.064.069.108.175.094.683-.088,2.2-.283,2.476.09s-.3,1.911-.558,2.6c-.077.206.089.291.263.133a4.222,4.222,0,0,0,1.2-3.472,2.079,2.079,0,0,0-1.28-.287,3.634,3.634,0,0,0-2.152.632" transform="translate(-98.902 -52.944)" fill="#fff" fill-rule="evenodd"/>
      </g>
    </g>
  </g>
</svg>
