<?xml version="1.0" encoding="utf-8"?>
<!-- Generator: Adobe Illustrator 25.0.0, SVG Export Plug-In . SVG Version: 6.00 Build 0)  -->
<svg version="1.1" id="Layer_1" xmlns="http://www.w3.org/2000/svg" xmlns:xlink="http://www.w3.org/1999/xlink" x="0px" y="0px"
	 viewBox="0 0 60.05 60.19" style="enable-background:new 0 0 60.05 60.19;" xml:space="preserve">
<style type="text/css">
	.st0{fill:none;}
	.st1{opacity:0.2;fill:url(#Path_78091_1_);enable-background:new    ;}
	.st2{opacity:0.8;}
	.st3{fill:#FFFFFF;}
	.st4{fill:#5497C4;}
	.st5{opacity:0.35;fill:#FFFFFF;enable-background:new    ;}
	.st6{fill:#DCDDDE;}
	.st7{fill:#3079AA;}
	.st8{fill:#E0E1E2;}
	.st9{fill:#EB7A2A;}
	.st10{fill:#FFB936;}
	.st11{fill:#FFE042;}
	.st12{fill:#3E485C;}
	.st13{fill:#7D8596;}
	.st14{fill:#565C69;}
	.st15{fill:#2E3645;}
	.st16{fill:#A8AFBD;}
	.st17{fill:#EFB99A;}
	.st18{fill:#F7CBA3;}
	.st19{fill:#FFDAA1;}
	.st20{fill:#E3A480;}
	.st21{fill:#F9F9B7;}
	.st22{fill:#B86B56;}
	.st23{fill:#D99B7D;}
	.st24{fill:#B86E53;}
	.st25{fill:#2B4F80;}
	.st26{fill:#75B5D1;}
	.st27{fill:#5C94B5;}
	.st28{fill:#4A77A1;}
	.st29{fill:#8CB5C5;}
	.st30{fill:#2B4F1F;}
	.st31{fill:#5AA131;}
	.st32{fill:#65B03A;}
	.st33{fill:#EB6E34;}
	.st34{fill:#B3381A;}
	.st35{fill:#D4821E;}
	.st36{fill:#F2CA3A;}
	.st37{fill:#3F62C4;}
	.st38{fill:#458ED6;}
	.st39{fill:#F6C286;}
	.st40{fill:#BA6941;}
	.st41{fill:#F4A571;}
	.st42{fill:#FFD598;}
	.st43{fill:#D46D42;}
	.st44{fill:#ED975B;}
	.st45{fill:#F6A56C;}
	.st46{fill:#F7BD81;}
</style>
<g id="ic_international_roaming_1" transform="translate(-2019 -563)">
	<rect id="Rectangle_9851" x="2019" y="563" class="st0" width="60" height="60"/>
	<g id="Group_131718" transform="translate(2019.734 566.068)">
		<g id="Group_131660" transform="translate(0.634 0)">
			
				<linearGradient id="Path_78091_1_" gradientUnits="userSpaceOnUse" x1="-913.2573" y1="558.1221" x2="-914.0383" y2="557.5531" gradientTransform="matrix(57.2631 0 0 -53.0642 52346.7812 29627.8789)">
				<stop  offset="0" style="stop-color:#53D8FF"/>
				<stop  offset="1" style="stop-color:#3840F7"/>
			</linearGradient>
			<path id="Path_78091" class="st1" d="M0.02,25.28c-0.64,14.64,11.64,27.07,27.44,27.76S56.6,42.43,57.24,27.79
				c0.02-0.35,0.02-0.71,0.02-1.06v-0.08C57.24,12.51,45.18,0.7,29.8,0.03C29.33,0.01,28.87,0,28.42,0
				C13.23,0,0.65,11.07,0.02,25.28"/>
			<g id="Group_131659" transform="translate(2.588 0.694)" class="st2">
				<path id="Path_78092" class="st3" d="M33.36,25.97c0.03,4.68-0.36,9.36-1.15,13.98c-0.21,1.15-0.45,2.3-0.74,3.44
					c-0.28,1.14-0.63,2.26-1.03,3.36c-0.39,1.11-0.91,2.17-1.54,3.17c-0.32,0.5-0.71,0.96-1.16,1.35c-0.23,0.2-0.48,0.36-0.76,0.49
					c-0.28,0.13-0.58,0.2-0.88,0.21c-0.31,0.01-0.61-0.05-0.89-0.16c-0.28-0.12-0.54-0.27-0.77-0.46c-0.46-0.38-0.86-0.83-1.18-1.33
					c-0.64-0.99-1.16-2.05-1.56-3.16c-0.41-1.1-0.75-2.22-1.04-3.36c-0.29-1.13-0.54-2.28-0.75-3.43c-0.42-2.3-0.71-4.63-0.9-6.96
					s-0.29-4.67-0.3-7.02c-0.01-1.17,0.03-2.34,0.07-3.51s0.11-2.34,0.19-3.51c0.17-2.33,0.43-4.66,0.82-6.97
					c0.19-1.15,0.42-2.3,0.69-3.44c0.27-1.14,0.59-2.27,0.98-3.37c0.2-0.55,0.41-1.1,0.66-1.63c0.24-0.54,0.52-1.05,0.84-1.55
					c0.31-0.5,0.7-0.95,1.16-1.33c0.23-0.19,0.49-0.34,0.76-0.46c0.28-0.11,0.58-0.17,0.88-0.16c0.3,0.01,0.59,0.08,0.87,0.2
					c0.27,0.12,0.52,0.28,0.75,0.47c0.45,0.38,0.85,0.82,1.18,1.31c0.65,0.98,1.2,2.02,1.62,3.12c0.43,1.09,0.8,2.2,1.11,3.33
					c0.31,1.13,0.58,2.27,0.81,3.42C32.95,16.6,33.38,21.28,33.36,25.97 M33.02,25.97c0-2.33-0.08-4.66-0.28-6.99
					c-0.18-2.32-0.49-4.64-0.91-6.93c-0.22-1.15-0.47-2.28-0.76-3.41C30.77,7.51,30.42,6.4,30,5.31c-0.41-1.09-0.93-2.13-1.57-3.11
					c-0.32-0.48-0.7-0.92-1.14-1.3c-0.22-0.19-0.46-0.34-0.72-0.46c-0.26-0.12-0.54-0.19-0.83-0.2c-0.29-0.01-0.57,0.05-0.83,0.16
					c-0.26,0.11-0.51,0.26-0.73,0.45c-0.44,0.38-0.81,0.82-1.11,1.32c-0.31,0.49-0.58,1.01-0.81,1.54
					c-0.24,0.53-0.44,1.08-0.63,1.62c-0.37,1.1-0.68,2.23-0.93,3.36c-0.26,1.14-0.47,2.28-0.65,3.44c-0.36,2.3-0.59,4.63-0.74,6.95
					s-0.2,4.66-0.2,6.99s0.07,4.66,0.24,6.99s0.44,4.64,0.84,6.94c0.2,1.15,0.43,2.29,0.72,3.42c0.28,1.13,0.61,2.25,1.01,3.34
					c0.38,1.1,0.89,2.14,1.51,3.12c0.31,0.48,0.69,0.92,1.13,1.29c0.22,0.18,0.46,0.33,0.72,0.44c0.26,0.11,0.54,0.16,0.82,0.15
					c0.28-0.01,0.56-0.08,0.81-0.2c0.26-0.12,0.49-0.28,0.71-0.46c0.43-0.38,0.8-0.83,1.11-1.31c0.61-0.99,1.11-2.04,1.49-3.14
					c0.39-1.1,0.73-2.21,1-3.34c0.28-1.13,0.51-2.27,0.71-3.42c0.4-2.3,0.66-4.62,0.84-6.94S33.02,28.3,33.02,25.97"/>
				<path id="Path_78093" class="st3" d="M45.16,25.97c-0.01,3.02-0.41,6.02-1.21,8.93c-0.81,2.91-2.07,5.67-3.74,8.19
					c-0.84,1.26-1.79,2.43-2.85,3.5c-1.06,1.07-2.24,2.02-3.51,2.83c-1.28,0.8-2.66,1.44-4.1,1.88c-2.91,0.88-6.01,0.88-8.91,0
					c-1.44-0.44-2.82-1.07-4.1-1.87c-1.28-0.81-2.46-1.76-3.52-2.83c-1.06-1.07-2.02-2.24-2.86-3.5c-1.67-2.52-2.94-5.28-3.75-8.19
					c-0.4-1.45-0.71-2.93-0.91-4.43c-0.41-2.99-0.41-6.03,0-9.02c0.2-1.5,0.5-2.97,0.91-4.43c0.81-2.91,2.08-5.67,3.75-8.19
					c0.84-1.25,1.8-2.42,2.86-3.49c1.06-1.07,2.24-2.02,3.52-2.82c1.28-0.8,2.66-1.43,4.1-1.86c2.9-0.89,6-0.89,8.9,0
					c1.44,0.44,2.82,1.07,4.1,1.87c1.27,0.81,2.45,1.75,3.51,2.82c1.06,1.07,2.02,2.24,2.85,3.49c1.67,2.52,2.93,5.28,3.74,8.19
					C44.75,19.94,45.16,22.94,45.16,25.97 M44.77,25.96c0.01-2.98-0.38-5.95-1.16-8.84c-0.77-2.88-2-5.63-3.62-8.14
					c-0.82-1.25-1.75-2.42-2.79-3.49c-1.04-1.07-2.2-2.02-3.45-2.83c-1.26-0.8-2.62-1.43-4.05-1.87c-2.87-0.89-5.94-0.89-8.81,0
					c-1.43,0.44-2.79,1.07-4.04,1.87c-1.25,0.81-2.41,1.76-3.45,2.83c-1.04,1.07-1.97,2.24-2.79,3.49C8.99,11.5,7.77,14.24,7,17.13
					c-0.39,1.44-0.68,2.9-0.87,4.38c-0.39,2.96-0.39,5.95,0,8.9c0.19,1.48,0.48,2.94,0.87,4.38c0.77,2.88,1.99,5.62,3.61,8.13
					c0.81,1.25,1.75,2.41,2.79,3.48c1.04,1.07,2.19,2.02,3.45,2.83c1.26,0.8,2.62,1.43,4.04,1.87c2.86,0.9,5.94,0.9,8.8,0
					c1.43-0.44,2.79-1.07,4.04-1.86c1.25-0.81,2.41-1.75,3.45-2.82c1.04-1.07,1.97-2.23,2.79-3.48c1.62-2.5,2.85-5.25,3.62-8.13
					C44.37,31.91,44.77,28.94,44.77,25.96"/>
				<path id="Path_78094" class="st3" d="M2.1,15.68l5.97-0.05l5.97-0.03l11.94-0.02l11.94,0.02l5.97,0.03l5.97,0.05
					c0.01,0,0.02,0.01,0.01,0.02c0,0.01-0.01,0.01-0.01,0.01l-5.97,0.05l-5.97,0.03l-11.94,0.02l-11.94-0.02l-5.97-0.03L2.1,15.74
					c-0.01,0-0.03-0.01-0.03-0.03S2.09,15.69,2.1,15.68"/>
				<path id="Path_78095" class="st3" d="M9.03,5.69c1.41-0.02,2.83-0.03,4.24-0.05l4.24-0.03c1.41-0.01,2.83-0.01,4.24-0.01
					l4.24-0.01l8.47,0.02l4.24,0.03c1.41,0.02,2.83,0.03,4.24,0.05c0.01,0,0.02,0.01,0.01,0.02c0,0.01-0.01,0.01-0.01,0.01
					c-1.41,0.02-2.83,0.03-4.24,0.05l-4.24,0.03l-8.47,0.02l-4.24-0.01c-1.41,0-2.83,0-4.24-0.01l-4.24-0.03
					c-1.41-0.02-2.83-0.03-4.24-0.05C9.01,5.74,9,5.73,9,5.72S9.01,5.69,9.03,5.69"/>
				<path id="Path_78096" class="st3" d="M0.03,25.68l6.49-0.05L13,25.61l12.97-0.02l12.97,0.02l6.49,0.03l6.49,0.05
					c0.01,0,0.02,0.01,0.01,0.02c0,0.01-0.01,0.01-0.01,0.01l-6.49,0.05l-6.49,0.03l-12.97,0.02L13,25.81l-6.49-0.03l-6.49-0.05
					C0.01,25.73,0,25.72,0,25.71S0.01,25.68,0.03,25.68"/>
				<path id="Path_78097" class="st3" d="M2.1,35.68l5.97-0.05l5.97-0.03l11.94-0.02l11.94,0.02l5.97,0.03l5.97,0.05
					c0.01,0,0.02,0.01,0.01,0.02c0,0.01-0.01,0.01-0.01,0.01l-5.97,0.05l-5.97,0.03l-11.94,0.02L14.04,35.8l-5.97-0.03L2.1,35.73
					c-0.01,0-0.03-0.01-0.03-0.03S2.09,35.68,2.1,35.68"/>
				<path id="Path_78098" class="st3" d="M43.77,45.79H9.88c-0.05,0-0.09-0.04-0.09-0.09c0-0.05,0.04-0.09,0.09-0.09h33.9
					c0.05,0,0.09,0.04,0.09,0.09C43.87,45.75,43.83,45.79,43.77,45.79L43.77,45.79"/>
			</g>
		</g>
		<g id="Group_131665" transform="translate(0.134 5.055)">
			<path id="Path_78099" class="st4" d="M23.78,3.16l-6.35-1.49c-0.01,0-0.02,0-0.03,0l-2.79,0.61c-0.04,0.01-0.06,0.05-0.05,0.08
				c0,0.02,0.02,0.04,0.04,0.05l4.24,1.83L23.78,3.16z"/>
			<g id="Group_131661" transform="translate(0 1.745)">
				<path id="Path_78100" class="st4" d="M9.1,4.2L3.33,0.48C2.67,0.05,1.86-0.1,1.09,0.07L0.15,0.27C0.05,0.3-0.02,0.4,0,0.5
					c0,0.02,0.01,0.04,0.02,0.05l2.92,5.19L8.3,4.81L9.1,4.2z"/>
				<path id="Path_78101" class="st5" d="M0.03,0.57l0.02-0.01l0.94-0.21c0.77-0.17,1.58-0.02,2.25,0.41l5.62,3.63L9.1,4.2
					L3.33,0.47C2.67,0.04,1.86-0.1,1.08,0.07L0.15,0.27C0.04,0.3-0.02,0.4,0,0.5c0,0.02,0.01,0.04,0.02,0.05L0.03,0.57z"/>
			</g>
			<path id="Path_78102" class="st4" d="M40.07,1.98c0.16,0.9-0.33,1.79-1.17,2.14L14.2,9.55c-1.92,0.42-3.89,0.63-5.85,0.62
				C6.36,10.16,4.37,9.93,2.43,9.5C2,9.38,1.67,9.02,1.59,8.58c-0.04-0.19-0.04-0.4,0.01-0.59c0.08-0.37,0.36-0.67,0.73-0.76
				l31.95-7.01c1.22-0.32,2.5-0.29,3.7,0.07c0.3,0.09,0.6,0.2,0.91,0.32c0.07,0.03,0.13,0.05,0.18,0.08
				C40.26,1.21,40.07,1.98,40.07,1.98z"/>
			<path id="Path_78103" class="st6" d="M38.63,2.88L13.93,8.3c-3.88,0.84-7.9,0.83-11.77-0.05l0,0C1.95,8.2,1.76,8.08,1.61,7.92
				C1.61,7.94,1.6,7.97,1.59,7.99C1.42,8.64,1.79,9.3,2.43,9.5l0,0c3.87,0.88,7.89,0.89,11.77,0.05l24.7-5.42
				c0.84-0.36,1.33-1.24,1.17-2.14c0.04-0.29-0.06-0.58-0.26-0.79C39.77,1.94,39.31,2.59,38.63,2.88z"/>
			<g id="Group_131662" transform="translate(17.651 6.839)">
				<path id="Path_78104" class="st3" d="M8.39,0.34l0.34,1.54C8.78,2.11,8.63,2.34,8.4,2.39c0,0,0,0,0,0l-6.83,1.5L1.04,1.51
					l6.83-1.5C8.11-0.04,8.34,0.11,8.39,0.34C8.39,0.34,8.39,0.34,8.39,0.34z"/>
				
					<rect id="Rectangle_9843" x="0.17" y="0.92" transform="matrix(0.9768 -0.214 0.214 0.9768 -0.3666 0.8812)" class="st7" width="7.43" height="2.44"/>
			</g>
			<path id="Path_78105" class="st8" d="M25.36,6.89l-0.4,0.34l-3.63,3.04l-3.16,0.69L17.72,8.9l0.36-0.42L25.36,6.89z"/>
			<path id="Path_78106" class="st8" d="M26.09,5.59L26.09,5.59l-7.27,1.6l-5.81,6.8c-0.02,0.03-0.03,0.06-0.02,0.1v0.23
				c0.01,0.06,0.08,0.1,0.14,0.09l3.38-0.74c0.2-0.04,0.39-0.14,0.55-0.27l9.04-7.57l0,0l0,0l0,0l0,0l0,0l0,0l0,0l0,0l0,0l0,0l0,0
				l0,0l0,0l0,0l0,0l0,0l0,0l0,0l0,0l0,0l0,0l0,0l0,0l0,0l0,0l0,0l0,0l0,0l0,0l0,0l0,0l0,0l0,0l0,0l0,0l0,0l0,0l0,0l0,0l0,0l0,0l0,0
				l0,0l0,0l0,0l0,0l0,0l0,0l0,0l0,0l0,0l0,0l0,0l0,0l0,0l0,0l0,0l0,0l0,0l0,0l0,0l0,0l0,0l0,0l0,0l0,0l0,0l0,0l0,0l0,0l0,0l0,0l0,0
				l0,0l0,0l0,0l0,0l0,0l0,0l0,0l0,0l0,0l0,0l0,0l0,0l0,0l0,0l0,0l0,0l0,0l0,0l0,0l0,0l0,0l0,0l0,0l0,0l0,0l0,0l0,0l0,0l0,0l0,0l0,0
				l0,0l0,0l0,0l0,0l0,0l0,0l0,0l0,0l0,0l0,0l0,0l0,0l0,0l0,0l0,0l0,0l0,0l0,0l0,0l0,0l0,0l0,0l0,0l0,0l0,0l0,0l0,0l0,0l0,0l0,0l0,0
				l0,0l0,0l0,0l0,0l0,0l0,0l0,0l0,0l0,0l0,0l0,0l0,0l0,0l0,0l0,0l0,0l0,0l0,0l0,0l0,0l0,0l0,0l0,0l0,0l0,0l0,0l0,0l0,0l0,0l0,0l0,0
				l0,0l0,0l0,0l0,0l0,0l0,0l0,0l0,0l0,0l0,0l0,0l0,0l0,0l0,0l0,0l0,0l0,0l0,0l0,0l0,0l0,0l0,0l0,0l0,0l0,0l0,0l0,0l0,0l0,0l0,0l0,0
				l0,0l0,0l0,0L26.09,5.59z"/>
			<path id="Path_78107" class="st4" d="M18.82,7.18l7.27-1.6l-9.04,7.57c-0.16,0.13-0.35,0.23-0.55,0.27l-3.38,0.74
				c-0.06,0.01-0.12-0.03-0.14-0.09c-0.01-0.03,0-0.07,0.02-0.1L18.82,7.18z"/>
			<g id="Group_131663" transform="translate(0.73 7.501)">
				<path id="Path_78108" class="st3" d="M2.34,0.74L6.8,0L2.73,2.53C2.61,2.6,2.48,2.64,2.35,2.66L0.2,2.93
					C0.1,2.94,0.01,2.87,0,2.77c-0.01-0.06,0.02-0.12,0.06-0.16L2.34,0.74z"/>
				<path id="Path_78109" class="st8" d="M2.9,2.32C2.78,2.39,2.65,2.44,2.52,2.45L0.37,2.72c-0.1,0.01-0.19-0.05-0.2-0.15
					c0-0.01,0-0.03,0-0.04L0.06,2.61c-0.08,0.06-0.09,0.17-0.03,0.25c0.04,0.05,0.1,0.07,0.16,0.06l2.15-0.27
					C2.48,2.64,2.61,2.6,2.73,2.53L5.84,0.6C6.1,0.43,6.35,0.25,6.57,0.04l0,0L2.9,2.32z"/>
			</g>
			<path id="Path_78110" class="st3" d="M39.07,0.68c-0.79,0.77-1.72,1.39-2.74,1.82l-0.61-0.83c0.82-0.34,1.58-0.81,2.26-1.38
				c0.3,0.09,0.6,0.2,0.91,0.32C38.95,0.63,39.01,0.65,39.07,0.68z"/>
			<g id="Group_131664" transform="translate(9.459 2.248)">
				<path id="Path_78111" class="st3" d="M23.12,0.31c0.05,0.21-0.09,0.42-0.3,0.47c-0.21,0.05-0.42-0.09-0.47-0.3
					c-0.05-0.21,0.09-0.42,0.3-0.47C22.86-0.04,23.07,0.1,23.12,0.31C23.12,0.31,23.12,0.31,23.12,0.31z"/>
				<path id="Path_78112" class="st3" d="M21.09,0.75c0.05,0.21-0.09,0.42-0.3,0.47c-0.21,0.05-0.42-0.09-0.47-0.3
					c-0.05-0.21,0.09-0.42,0.3-0.47C20.83,0.41,21.04,0.54,21.09,0.75z"/>
				<path id="Path_78113" class="st3" d="M19.05,1.2c0.05,0.21-0.09,0.42-0.3,0.47c-0.21,0.05-0.42-0.09-0.47-0.3
					c-0.05-0.21,0.09-0.42,0.3-0.47C18.8,0.85,19.01,0.99,19.05,1.2C19.05,1.2,19.05,1.2,19.05,1.2z"/>
				<path id="Path_78114" class="st3" d="M17.02,1.65c0.05,0.21-0.09,0.42-0.3,0.47c-0.21,0.05-0.42-0.09-0.47-0.3
					c-0.05-0.21,0.09-0.42,0.3-0.47C16.77,1.3,16.98,1.43,17.02,1.65C17.02,1.65,17.02,1.65,17.02,1.65z"/>
				<path id="Path_78115" class="st3" d="M14.99,2.09c0.05,0.21-0.09,0.42-0.3,0.47c-0.21,0.05-0.42-0.09-0.47-0.3
					c-0.05-0.21,0.09-0.42,0.3-0.47C14.74,1.75,14.95,1.88,14.99,2.09z"/>
				<path id="Path_78116" class="st3" d="M12.96,2.54c0.05,0.21-0.09,0.42-0.3,0.47c-0.21,0.05-0.42-0.09-0.47-0.3
					c-0.05-0.21,0.09-0.42,0.3-0.47C12.7,2.19,12.91,2.32,12.96,2.54C12.96,2.54,12.96,2.54,12.96,2.54z"/>
				<path id="Path_78117" class="st3" d="M10.93,2.98c0.05,0.21-0.09,0.42-0.3,0.47c-0.21,0.05-0.42-0.09-0.47-0.3
					c-0.05-0.21,0.09-0.42,0.3-0.47C10.67,2.64,10.88,2.77,10.93,2.98C10.93,2.98,10.93,2.98,10.93,2.98z"/>
				<path id="Path_78118" class="st3" d="M8.9,3.43C8.94,3.64,8.81,3.85,8.6,3.9S8.18,3.81,8.13,3.6c-0.05-0.21,0.09-0.42,0.3-0.47
					C8.64,3.08,8.85,3.22,8.9,3.43C8.9,3.43,8.9,3.43,8.9,3.43z"/>
				<path id="Path_78119" class="st3" d="M6.87,3.87c0.05,0.21-0.09,0.42-0.3,0.47C6.36,4.39,6.15,4.25,6.1,4.04
					C6.06,3.83,6.19,3.62,6.4,3.57C6.61,3.53,6.82,3.66,6.87,3.87C6.87,3.87,6.87,3.87,6.87,3.87z"/>
				<path id="Path_78120" class="st3" d="M4.84,4.32c0.05,0.21-0.09,0.42-0.3,0.47C4.33,4.83,4.12,4.7,4.07,4.49
					c-0.05-0.21,0.09-0.42,0.3-0.47C4.58,3.97,4.79,4.11,4.84,4.32C4.84,4.32,4.84,4.32,4.84,4.32z"/>
				<path id="Path_78121" class="st3" d="M2.81,4.77c0.05,0.21-0.09,0.42-0.3,0.47C2.3,5.28,2.09,5.15,2.04,4.94
					c-0.05-0.21,0.09-0.42,0.3-0.47C2.55,4.42,2.76,4.56,2.81,4.77z"/>
				<path id="Path_78122" class="st3" d="M0.78,5.21c0.05,0.21-0.09,0.42-0.3,0.47c-0.21,0.05-0.42-0.09-0.47-0.3
					c-0.05-0.21,0.09-0.42,0.3-0.47C0.52,4.87,0.73,5,0.78,5.21z"/>
			</g>
		</g>
		<g id="Group_131668" transform="translate(35.829 37.578)">
			<g id="Group_131666" transform="translate(7.197 0)">
				<path id="Path_78123" class="st9" d="M9.15,0L0.43,10.23l9.6,2.6l6.26-1.53L9.15,0z"/>
				<path id="Path_78124" class="st10" d="M0,10.21l10.04,2.62L9.82,9.66L9.79,9.31L9.56,6L9.54,5.73L9.31,2.32L9.15,0L7.68,1.65
					L6.49,2.97L6.34,3.14L3.36,6.47L3.25,6.59L0,10.21z"/>
				<path id="Path_78125" class="st11" d="M7.04,5.43L9.56,6L9.54,5.73L7.2,5.1L7.04,5.43z"/>
				<path id="Path_78126" class="st11" d="M6.34,3.14l1.2,0.26l0.11-0.16L6.49,2.97L6.34,3.14z"/>
				<path id="Path_78127" class="st11" d="M3.12,6.71L6.2,7.6l0.21-0.23L3.36,6.46L3.12,6.71z"/>
				<path id="Path_78128" class="st11" d="M7.16,8.77L7.16,8.95l2.66,0.71L9.79,9.31L7.16,8.77z"/>
				<path id="Path_78129" class="st11" d="M7.67,1.64L7.85,1.8l0.89-0.41L8.7,2.21l0.6,0.11L9.14,0L7.67,1.64z"/>
			</g>
			<g id="Group_131667" transform="translate(0 0.13)">
				<path id="Path_78130" class="st9" d="M11.72,0L0.56,13.1l12.3,3.34l8.02-1.96L11.72,0z"/>
				<path id="Path_78131" class="st10" d="M0,13.08l12.86,3.36l-0.28-4.07l-0.03-0.45l-0.29-4.24l-0.02-0.35l-0.3-4.36L11.72,0
					L9.83,2.11L8.32,3.8l-0.2,0.22L4.31,8.28L4.17,8.44L0,13.08z"/>
				<path id="Path_78132" class="st11" d="M9.02,6.96l3.23,0.73l-0.03-0.35l-3-0.8L9.02,6.96z"/>
				<path id="Path_78133" class="st11" d="M8.11,4.02l1.54,0.34L9.8,4.15L8.32,3.8L8.11,4.02z"/>
				<path id="Path_78134" class="st11" d="M3.99,8.6l3.95,1.14l0.27-0.3L4.3,8.28L3.99,8.6z"/>
				<path id="Path_78135" class="st11" d="M9.17,11.23l-0.01,0.24l3.41,0.91l-0.03-0.45L9.17,11.23z"/>
				<path id="Path_78136" class="st11" d="M9.83,2.11l0.22,0.2l1.14-0.53l-0.04,1.05l0.77,0.15L11.72,0L9.83,2.11z"/>
			</g>
		</g>
		<g id="Group_131671" transform="matrix(1, 0.017, -0.017, 1, 10.598, 16.598)">
			<path id="Path_78137" class="st12" d="M5.78,2.33L5.8,0l0.07,0l0.18,2.33L5.94,2.42L5.78,2.33z"/>
			<path id="Path_78138" class="st13" d="M10.52,25.77c-0.16-0.4-0.31-0.82-0.47-1.26c-0.62-1.76-1.16-3.55-1.6-5.36
				c-0.1-0.39-0.19-0.8-0.28-1.22c-1.01-4.66-1.62-9.4-1.8-14.16L5.65,3.79c0.12,4.77-0.17,9.54-0.88,14.26
				c-0.07,0.42-0.13,0.83-0.21,1.23c-0.33,1.89-0.76,3.77-1.29,5.61c-0.11,0.39-0.23,0.77-0.34,1.13c-0.66,2.33-1.64,4.55-2.93,6.6
				l2.67-0.09C3,31.14,3.66,29.85,4.6,28.77c0.11-0.13,0.23-0.26,0.37-0.37c0.07-0.06,0.13-0.11,0.2-0.16
				c0.83-0.59,1.9-0.71,2.84-0.32c0.08,0.03,0.16,0.07,0.24,0.11c0,0,0.01,0,0.01,0.01c0.03,0.01,0.06,0.03,0.08,0.04
				c0.04,0.02,0.08,0.04,0.11,0.07c0.21,0.13,0.4,0.29,0.57,0.47c1,1.02,1.75,2.26,2.17,3.63l2.67-0.09
				C12.45,30.21,11.33,28.05,10.52,25.77z M5.48,24.53H5.39l0.67-3.08h0.09l0.84-0.03h0.09l0.87,3.03H7.86L5.48,24.53z"/>
			<path id="Path_78139" class="st14" d="M8.36,18.75L6.6,17.7l0.55-0.33l1.02,0.61c0-0.01-0.01-0.03-0.01-0.04l-0.03-0.15
				l-0.84-0.51l0.55-0.33l0.13,0.08c-0.02-0.09-0.04-0.19-0.06-0.28l-0.07,0.04l-0.55-0.33l0.5-0.3L7.74,15.9l-0.45-0.27l0.36-0.22
				c-0.01-0.05-0.02-0.1-0.03-0.15l-0.47,0.28L6.6,15.21l0.55-0.33l0.45,0.27l-0.03-0.18L7.29,14.8l0.23-0.14
				c-0.01-0.05-0.02-0.1-0.03-0.15l-0.34,0.2L6.6,14.38l0.55-0.33l0.29,0.17c-0.01-0.06-0.02-0.12-0.03-0.18l-0.12-0.07l0.1-0.06
				c-0.01-0.05-0.02-0.1-0.03-0.15l-0.21,0.13L6.6,13.56l0.55-0.33l0.14,0.08c-0.02-0.1-0.03-0.2-0.05-0.3l-0.09,0.06L6.6,12.73
				l0.41-0.25l0.17,0.1L7.15,12.4L7.15,12.4h0.01l-0.02-0.16l-0.12,0.07l-0.69-0.42l0.55-0.33l0.18,0.11
				c-0.01-0.06-0.02-0.12-0.02-0.18l-0.02-0.01l0.02-0.01c-0.01-0.05-0.01-0.1-0.02-0.15L6.87,11.4l-0.55-0.33l0.55-0.33l0.07,0.04
				c-0.01-0.07-0.02-0.15-0.03-0.23l-0.04,0.02l-0.55-0.33l0.52-0.32C6.83,9.85,6.82,9.78,6.82,9.71l-0.5-0.3l0.44-0.26L6.72,8.82
				L6.32,8.58l0.36-0.22c0-0.05-0.01-0.1-0.01-0.15L6.18,8.5L5.64,8.17c0,0.05,0,0.1,0,0.16l0.41,0.25L5.62,8.84
				c0,0.1-0.01,0.2-0.01,0.3l0.44,0.27L5.59,9.69C5.58,9.77,5.58,9.86,5.57,9.95l0.48,0.29l-0.51,0.3l-0.01,0.22l0.52,0.31
				L5.49,11.4l0,0c0,0.06-0.01,0.12-0.01,0.17l0.01-0.01l0.55,0.33l-0.42,0.25l-0.18-0.11c0,0.05-0.01,0.1-0.01,0.16l0.07,0.04
				l-0.07,0.04c0,0.06-0.01,0.11-0.01,0.17l0.21-0.13l0.69,0.42l-0.55,0.33l-0.38-0.23c-0.01,0.05-0.01,0.1-0.01,0.15l0.27,0.16
				l-0.3,0.18c0,0.06-0.01,0.11-0.01,0.17l0.45-0.27l0.55,0.33l-0.55,0.33l-0.46-0.28c-0.01,0.05-0.01,0.1-0.01,0.15l0.34,0.2
				l-0.38,0.23c0,0.06-0.01,0.11-0.02,0.17l0.53-0.32l0.55,0.33l-0.55,0.33l-0.54-0.32c-0.01,0.05-0.01,0.1-0.01,0.15l0.41,0.25
				l-0.48,0.29c-0.01,0.08-0.02,0.16-0.03,0.24l0.5,0.3l-0.55,0.33l-0.02-0.02c-0.01,0.07-0.02,0.14-0.03,0.21l0.05-0.03l0.55,0.33
				l-0.55,0.33l-0.12-0.07c-0.01,0.05-0.01,0.1-0.02,0.15l0.01,0.01l-0.01,0.01c-0.01,0.06-0.02,0.12-0.02,0.18l0.17-0.1l0.55,0.33
				l-0.83,0.5l-0.03,0.18l1-0.6l0.55,0.33l-1.67,1c-0.01,0.06-0.02,0.12-0.03,0.18l1.83-1.1l1.94,1.17L8.36,18.75z M7.71,16.87
				L7.15,17.2L6.6,16.87l0.55-0.33L7.71,16.87z M6.46,16.78l-0.55-0.33l0.55-0.33l0.55,0.33L6.46,16.78z M7.71,16.04l-0.55,0.33
				L6.6,16.04l0.55-0.33L7.71,16.04z M7.02,15.62l-0.55,0.33l-0.55-0.33l0.55-0.33L7.02,15.62z M5.63,8.99l0.55-0.33l0.56,0.33
				L6.19,9.33L5.63,8.99z M5.63,9.82l0.55-0.33l0.56,0.33l-0.56,0.33L5.63,9.82z M5.63,10.65l0.55-0.33l0.56,0.33l-0.56,0.33
				L5.63,10.65z M5.63,11.48l0.55-0.33l0.56,0.33l-0.56,0.33L5.63,11.48z M5.77,12.23l0.41-0.25l0.69,0.42l-0.42,0.24L5.77,12.23z
				 M5.91,13.14l0.55-0.33l0.55,0.33l-0.55,0.33L5.91,13.14z M5.91,13.97l0.55-0.33l0.55,0.33L6.46,14.3L5.91,13.97z M6.47,14.46
				l0.55,0.33l-0.55,0.33L5.91,14.8L6.47,14.46z M5.22,15.21l0.55-0.33l0.55,0.33l-0.55,0.33L5.22,15.21z M5.22,16.04l0.55-0.33
				l0.55,0.33l-0.55,0.33L5.22,16.04z M5.22,16.87l0.55-0.33l0.55,0.33L5.78,17.2L5.22,16.87z M5.91,17.28l0.55-0.33l0.55,0.33
				l-0.55,0.33L5.91,17.28z M6.66,8.12C6.65,8.06,6.65,8,6.64,7.95L6.32,7.75l0.29-0.18c0-0.05-0.01-0.1-0.01-0.15L6.18,7.67
				L5.66,7.35c0,0.05,0,0.11,0,0.16l0.4,0.24L5.65,8c0,0.06,0,0.11-0.01,0.16l0.55-0.33L6.66,8.12z M6.58,7.24
				c0-0.06-0.01-0.11-0.01-0.17L6.32,6.92l0.23-0.14c0-0.05-0.01-0.1-0.01-0.15L6.18,6.84L5.67,6.53c0,0.05,0,0.11,0,0.16l0.38,0.23
				L5.66,7.15c0,0.06,0,0.11,0,0.16L6.19,7L6.58,7.24z M5.67,5.7v0.16l0.38,0.23L5.67,6.32c0,0.05,0,0.11,0,0.16l0.52-0.31l0.33,0.2
				c0-0.06-0.01-0.11-0.01-0.17L6.32,6.1L6.49,6L6.48,5.84L6.18,6.01L5.67,5.7z M5.67,4.87c0,0.05,0,0.11,0,0.16l0.38,0.23
				L5.67,5.49v0.16l0.51-0.31l0.27,0.16c0-0.06-0.01-0.11-0.01-0.17L6.32,5.26l0.12-0.07c-0.01-0.05-0.01-0.1-0.01-0.15L6.19,5.19
				L5.67,4.87z M6.05,4.44L5.66,4.67c0,0.06,0,0.11,0,0.16l0.52-0.32l0.22,0.14c0-0.05-0.01-0.11-0.01-0.17L6.32,4.44l0.08-0.05
				c0-0.05-0.01-0.1-0.01-0.16l-0.2,0.12L5.66,4.04c0,0.06,0,0.11,0,0.17L6.05,4.44z"/>
			<path id="Path_78140" class="st15" d="M5.95,18.01l0.26-5.33l0.63,5.3L5.95,18.01z"/>
			<path id="Path_78141" class="st12" d="M5.44,3.16l0.21,0.64l0.71-0.02l0.17-0.72L5.44,3.16z"/>
			<path id="Path_78142" class="st16" d="M6.36,3.06L5.57,3.14V2.39l0,0c0.19-0.22,0.51-0.25,0.74-0.08l0.03,0.02L6.36,3.06z"/>
			<path id="Path_78143" class="st14" d="M6.14,19.4L5,19.57L4.54,19.4c-0.01,0.05-0.01,0.09-0.02,0.14l0.2,0.08l-0.22,0.03
				c-0.01,0.05-0.02,0.1-0.03,0.15l0.51-0.08l1.13,0.43L6.12,20l-0.85-0.32l0.87-0.13L6.14,19.4z M4.38,20.24
				c-0.01,0.05-0.02,0.09-0.03,0.14l0.28,0.1l-0.31,0.05L4.3,20.67l0.61-0.09l1.18,0.44l0.01-0.15l-0.9-0.34L6.1,20.4l0.01-0.14
				l-1.19,0.18L4.38,20.24z M4.22,21.07c-0.01,0.05-0.02,0.09-0.03,0.14l0.37,0.14l-0.42,0.06c-0.01,0.05-0.02,0.1-0.03,0.15
				l0.72-0.11l1.14,0.43L6,21.75l-0.89-0.34l0.96-0.14l0.01-0.14l-1.24,0.18L4.22,21.07z M4.03,21.9C4.03,21.94,4.01,21.99,4,22.03
				l0.47,0.18L3.94,22.3l-0.03,0.15l0.84-0.13l1.04,0.39l0.03-0.14l-0.79-0.3l0.88-0.13L5.94,22l-1.19,0.18L4.03,21.9z M3.84,22.72
				l-0.03,0.14l0.59,0.22l-0.67,0.1c-0.01,0.05-0.02,0.1-0.03,0.14l0.97-0.15l0.94,0.36l0.03-0.14l-0.69-0.26l0.77-0.12l0.03-0.15
				l-1.07,0.16L3.84,22.72z M3.64,23.54c-0.01,0.05-0.02,0.09-0.03,0.14l0.72,0.27L3.5,24.07c-0.01,0.05-0.03,0.1-0.04,0.15
				l1.13-0.17l0.84,0.32l0.03-0.13l-0.59-0.22l0.66-0.1l0.03-0.14L4.6,23.91L3.64,23.54z"/>
			<path id="Path_78144" class="st14" d="M9.92,24.15L8.6,23.95l1.11-0.42L9.66,23.4l-1.35,0.51l-0.54-0.08l0.04,0.15l0.23,0.03
				l-0.2,0.07l0.04,0.14l0.44-0.16l1.64,0.25C9.95,24.25,9.94,24.2,9.92,24.15z M9.66,23.4c-0.02-0.05-0.03-0.1-0.05-0.15l-1.1-0.16
				l0.93-0.35c-0.01-0.04-0.03-0.09-0.04-0.13l-1.17,0.44l-0.71-0.11l0.04,0.15l0.41,0.06l-0.35,0.13l0.04,0.13l0.59-0.23L9.66,23.4
				z M9.38,22.5c-0.01-0.05-0.03-0.1-0.04-0.15l-0.89-0.13l0.77-0.29c-0.01-0.04-0.03-0.09-0.04-0.13l-1.01,0.38l-0.89-0.13
				l0.04,0.15l0.59,0.09l-0.51,0.19l0.04,0.14l0.75-0.28L9.38,22.5z M9.11,21.6c-0.02-0.05-0.03-0.1-0.04-0.15l-0.7-0.1l0.61-0.23
				c-0.01-0.04-0.02-0.09-0.04-0.13l-0.85,0.32l-1-0.16l0.01,0.14l0.73,0.11l-0.66,0.25l0.04,0.14l0.9-0.34L9.11,21.6z M8.85,20.7
				l-0.04-0.15l-0.53-0.08l0.47-0.17c-0.01-0.05-0.02-0.09-0.03-0.14L8,20.44L7.03,20.3l0.01,0.14l0.69,0.1l-0.68,0.26l0.01,0.15
				l0.95-0.36L8.85,20.7z M8.62,19.82c-0.01-0.05-0.02-0.1-0.04-0.14L8.2,19.61l0.33-0.13c-0.01-0.04-0.02-0.09-0.03-0.14
				l-0.58,0.22L7,19.43L7,19.58l0.65,0.1l-0.64,0.24l0.01,0.15l0.91-0.35L8.62,19.82z"/>
			<path id="Path_78145" class="st14" d="M0.18,32.35c-0.03,0.04-0.05,0.09-0.08,0.12l0.34,0.14l0.34-0.01L0.18,32.35z M2.81,31.99
				H1.63l-1-0.42l-0.07,0.12l0.71,0.3H0.39c-0.03,0.05-0.06,0.1-0.08,0.14l1.29,0l0.98,0.41h0.09c0.01-0.03,0.02-0.07,0.02-0.1
				l-0.73-0.3h0.81C2.78,32.08,2.8,32.03,2.81,31.99L2.81,31.99z M3.12,31.14l-1.21,0l-0.86-0.36C1.02,30.83,1,30.87,0.98,30.91
				l0.57,0.23H0.86c-0.02,0.05-0.05,0.09-0.07,0.14h1.09l1.02,0.42c0.02-0.04,0.03-0.09,0.05-0.13l-0.71-0.29h0.82
				C3.08,31.23,3.1,31.18,3.12,31.14L3.12,31.14z M3.5,30.36H2.63l-1.16-0.48c-0.02,0.04-0.04,0.09-0.06,0.13l0.86,0.36H1.24
				L1.18,30.5L2.6,30.5l0.68,0.28c0.02-0.04,0.04-0.08,0.06-0.12L2.96,30.5h0.47C3.45,30.45,3.48,30.4,3.5,30.36L3.5,30.36z
				 M4.03,29.51H2.9l-1.08-0.44c-0.02,0.04-0.04,0.09-0.05,0.13l0.77,0.32H1.63c-0.02,0.05-0.04,0.09-0.06,0.14l1.3-0.01L3.71,30
				c0.02-0.04,0.05-0.08,0.07-0.12l-0.56-0.23h0.71C3.97,29.6,4,29.56,4.03,29.51L4.03,29.51z M3.17,28.67l-1.02-0.42
				c-0.02,0.04-0.03,0.09-0.05,0.13l0.71,0.29H1.98c-0.02,0.05-0.04,0.09-0.06,0.14l1.22-0.01l1.08,0.45
				c0.03-0.04,0.06-0.08,0.09-0.12L3.5,28.8h1.08c0.01-0.01,0.02-0.02,0.03-0.03c0.03-0.03,0.06-0.07,0.09-0.1L3.17,28.67z
				 M5.08,27.82l-1.65,0.01l-0.98-0.41c-0.02,0.04-0.03,0.09-0.05,0.13l0.66,0.28H2.31c-0.02,0.05-0.03,0.09-0.05,0.14h1.15
				l1.4,0.58c0.04-0.03,0.07-0.07,0.11-0.11l-1.15-0.48l1.3,0L5.08,27.82z M5.16,26.97L3.7,26.98l-0.96-0.4
				c-0.01,0.05-0.03,0.09-0.04,0.14l0.64,0.27H2.61c-0.02,0.05-0.03,0.09-0.05,0.14h1.12l1.41,0.59l0.01-0.15l-1.07-0.44h1.11
				L5.16,26.97z M5.24,26.12l-1.27,0.01l-0.95-0.4C3,25.78,2.99,25.82,2.98,25.86l0.64,0.27H2.89l-0.04,0.14h1.1l1.23,0.51
				l0.01-0.15L4.3,26.27h0.92L5.24,26.12z"/>
			<path id="Path_78146" class="st14" d="M12.33,29.72c-0.03-0.05-0.05-0.09-0.08-0.14h-0.27l0.22-0.09
				c-0.02-0.04-0.05-0.08-0.07-0.12l-0.52,0.22l-1.79-0.01c0.03,0.05,0.07,0.09,0.1,0.14l1.36,0.01l-1.05,0.44
				c0.03,0.04,0.05,0.08,0.07,0.12l1.34-0.56L12.33,29.72z"/>
			<path id="Path_78147" class="st14" d="M11.89,28.88c-0.02-0.05-0.05-0.09-0.07-0.14h-0.11l0.09-0.04
				c-0.02-0.04-0.04-0.08-0.06-0.12l-0.39,0.16l-2.22-0.01l1.52-0.63h0.85c-0.02-0.05-0.04-0.09-0.07-0.14h-0.46l0.38-0.16
				c-0.02-0.04-0.04-0.08-0.06-0.13l-0.69,0.28L8.7,27.95l1.69-0.7h0.74c-0.02-0.05-0.04-0.09-0.06-0.14h-0.35l0.3-0.12
				c-0.02-0.04-0.04-0.09-0.06-0.13l-0.6,0.25l-1.93,0l1.69-0.7h0.65c-0.02-0.05-0.04-0.09-0.06-0.14h-0.26l0.23-0.1
				c-0.02-0.04-0.04-0.08-0.05-0.13l-0.53,0.22l-1.93-0.01l1.69-0.7h0.58c-0.02-0.04-0.04-0.09-0.05-0.14h-0.2l0.17-0.07l-0.01-0.03
				h-0.28l-0.24,0.1l-1.77-0.01l0.02,0.14l1.42,0.01l-1.36,0.56l0.03,0.28l1.6,0.01l-1.53,0.64l0.02,0.2l1.78,0.01l-1.68,0.7H8.33
				l0.01,0.14l0.01,0.01l0.02-0.01l1.93,0.01l-1.28,0.53l0,0c0.07,0.08,0.15,0.16,0.22,0.24l1.77,0.01l-1.31,0.54
				c0.03,0.04,0.06,0.08,0.09,0.11l1.58-0.66L11.89,28.88z"/>
			<path id="Path_78148" class="st14" d="M13.83,32.13h-1.05l0.8-0.33l-0.08-0.12l-1.08,0.45l-1.28-0.01
				c0.02,0.05,0.03,0.09,0.04,0.14l2.67-0.09C13.87,32.17,13.85,32.16,13.83,32.13z"/>
			<path id="Path_78149" class="st14" d="M13.33,31.42c-0.03-0.04-0.06-0.09-0.09-0.14h-0.72l0.58-0.24
				c-0.03-0.04-0.05-0.08-0.07-0.12l-0.86,0.36l-1.32-0.01c0.02,0.05,0.04,0.09,0.06,0.14h0.93l-0.8,0.33
				c0.02,0.04,0.03,0.09,0.05,0.14l1.11-0.46L13.33,31.42z"/>
			<path id="Path_78150" class="st14" d="M12.81,30.57c-0.03-0.05-0.05-0.09-0.08-0.14h-0.48l0.38-0.16
				c-0.02-0.04-0.05-0.08-0.07-0.12l-0.67,0.28l-1.49-0.01c0.03,0.05,0.06,0.09,0.08,0.14h1.08l-0.88,0.37
				c0.02,0.04,0.04,0.08,0.06,0.13l1.18-0.49L12.81,30.57z"/>
			<g id="Group_131669" transform="translate(4.966 19.123)">
				<path id="Path_78151" class="st14" d="M1.27,0.01L1.19,2.33v0.01L0.52,5.41L0.51,5.43L0.2,9.12C0.13,9.17,0.07,9.22,0,9.28
					L0.33,5.4L1,2.31L1.08,0L1.27,0.01z"/>
			</g>
			<g id="Group_131670" transform="translate(6.903 19.123)">
				<path id="Path_78152" class="st14" d="M1.55,9.03C1.51,9.01,1.48,8.99,1.44,8.96C1.41,8.95,1.38,8.93,1.35,8.92L0.96,5.34V5.33
					L0.09,2.3L0,0.01L0.18,0l0.09,2.28L1.14,5.3L1.55,9.03z"/>
			</g>
			<path id="Path_78153" class="st16" d="M2.74,24.49l-0.09,1.32l8.2-0.27l-0.38-1.27L2.74,24.49z"/>
			<path id="Path_78154" class="st16" d="M4.17,18.07l0.15,1.22l4.35-0.14l-0.03-1.22L4.17,18.07z"/>
		</g>
		<g id="Group_131700" transform="translate(33.35 29.156)">
			<g id="Group_131673" transform="translate(0 3.016)">
				<path id="Path_78155" class="st17" d="M9.65,21.71l0.29-3.43L10.04,17l0.04-0.48l0.07-0.81l0.18-2.16l0.11-1.3l0.04-0.48
					l0.07-0.82l0.17-2.1l0.11-1.35l0.04-0.48l0.46-5.54L3.36,0.51L2.49,6L2.41,6.47L2.19,7.89L1.87,9.91l-0.13,0.8l-0.08,0.47
					l-0.2,1.3l0,0l-0.34,2.14l0,0L1,15.42L0.92,15.9l-0.2,1.25L0,21.71L9.65,21.71z"/>
				<path id="Path_78156" class="st18" d="M9.15,21.71L9.88,1.3L8.59,1.42L7.43,21.71H9.15z"/>
				<path id="Path_78157" class="st19" d="M11.34,1.47l-0.21,0.07C8.51,2.39,5.66,2.01,3.36,0.51L3.6,0.43
					c2.52-0.8,5.27-0.47,7.52,0.91L11.34,1.47z"/>
				<path id="Path_78158" class="st20" d="M8.05,0.62L7.76,1.55L3.36,0.51L3.6,0.43c1.12-0.36,2.31-0.49,3.48-0.4L8.05,0.62z"/>
				<path id="Path_78159" class="st21" d="M11.12,1.34c-0.52-0.32-1.07-0.58-1.64-0.79c0.43,0.18,0.85,0.39,1.25,0.64l0.22,0.13
					l-0.21,0.07c-1.93,0.62-4,0.59-5.91-0.11c2,0.83,4.23,0.92,6.29,0.26l0.21-0.07L11.12,1.34z"/>
				<g id="Group_131672" transform="translate(0 17.135)">
					<path id="Path_78160" class="st22" d="M1.08,4.57l0.45-3.75c-0.16-0.58-0.5-0.89-0.81-0.82L0,4.57H1.08z"/>
					<path id="Path_78161" class="st22" d="M2.8,4.57l0.38-3.1C2.95,0.74,2.38,0.54,2.01,1.05L1.58,4.57H2.8z"/>
					<path id="Path_78162" class="st22" d="M4.56,4.57l0.33-2.72c-0.24-0.68-0.82-0.8-1.21-0.24L3.32,4.57H4.56z"/>
					<path id="Path_78163" class="st22" d="M6.32,4.57l0.31-2.6C6.39,1.34,5.8,1.32,5.4,1.92L5.08,4.58L6.32,4.57z"/>
					<path id="Path_78164" class="st22" d="M8.06,4.57l0.33-2.76C8.15,1.23,7.56,1.3,7.16,1.95L6.85,4.57L8.06,4.57z"/>
					<path id="Path_78165" class="st22" d="M9.65,4.57l0.29-3.43c-0.28-0.2-0.71,0.02-1.02,0.57L8.57,4.57H9.65z"/>
				</g>
			</g>
			<g id="Group_131677" transform="translate(4.813)">
				<g id="Group_131675" transform="translate(0 0.427)">
					<path id="Path_78166" class="st17" d="M5.15,3.53c-0.12,0.07-0.25,0.14-0.37,0.2C4.33,3.95,3.84,4.08,3.34,4.12
						c-0.1,0.01-0.2,0.01-0.31,0.02c-0.25,0-0.51-0.02-0.76-0.06C1.42,3.94,0.62,3.53,0,2.91L0.79,0l4.3,0.52L5.15,3.53z"/>
					<g id="Group_131674" transform="translate(3.236 0.345)">
						<path id="Path_78167" class="st18" d="M1.55,3.39C1.09,3.6,0.61,3.73,0.11,3.78L0,0.15L0.41,0l0.73,0.09L1.55,3.39z"/>
					</g>
				</g>
				<path id="Path_78168" class="st19" d="M0.74,0.42l0.4,0.29c1.15,0.85,2.7,0.94,3.94,0.23l0,0L4.62,0.63
					C3.68-0.01,2.5-0.17,1.43,0.19L0.74,0.42z"/>
				<g id="Group_131676" transform="translate(1.433 0.328)">
					<path id="Path_78169" class="st23" d="M3,0.56C2.95,0.58,2.9,0.6,2.85,0.61C2.4,0.75,1.93,0.79,1.46,0.74
						c-0.24-0.03-0.47-0.08-0.7-0.16l0,0C0.49,0.48,0.24,0.35,0,0.2l0.06-0.02C1.05-0.16,2.14-0.02,3,0.56L3,0.56z"/>
					<path id="Path_78170" class="st24" d="M2.85,0.61C2.4,0.75,1.93,0.8,1.46,0.74c-0.24-0.03-0.47-0.08-0.7-0.16
						c0.45-0.14,0.92-0.18,1.39-0.13C2.39,0.48,2.62,0.53,2.85,0.61z"/>
				</g>
				<path id="Path_78171" class="st22" d="M3.04,4.56c-0.25,0-0.51-0.02-0.76-0.06C2.24,3.6,2.3,2.41,2.88,2.47S3.27,3.69,3.04,4.56
					z"/>
			</g>
			<g id="Group_131682" transform="translate(3.835 6.534)">
				<g id="Group_131678">
					<path id="Path_78172" class="st22" d="M0.71,2.3C0.96,1.44,1.2,0.2,0.6,0.02s-0.63,1.12-0.59,2.07
						C0.24,2.17,0.48,2.24,0.71,2.3z"/>
				</g>
				<g id="Group_131679" transform="translate(1.767 0.445)">
					<path id="Path_78173" class="st22" d="M0.73,2.25c0.25-0.88,0.49-2.14-0.12-2.24s-0.64,1.18-0.6,2.11
						C0.25,2.17,0.49,2.21,0.73,2.25z"/>
				</g>
				<g id="Group_131680" transform="translate(3.568 0.671)">
					<path id="Path_78174" class="st22" d="M0.74,2.2C0.99,1.3,1.24,0.03,0.62,0s-0.65,1.24-0.6,2.15C0.26,2.17,0.5,2.19,0.74,2.2z"
						/>
				</g>
				<g id="Group_131681" transform="translate(5.392 0.675)">
					<path id="Path_78175" class="st22" d="M0.75,2.15C1,1.24,1.25-0.04,0.62,0s-0.65,1.3-0.61,2.19C0.26,2.18,0.5,2.17,0.75,2.15z"
						/>
				</g>
			</g>
			<g id="Group_131683" transform="translate(2.415 9.014)">
				<path id="Path_78176" class="st19" d="M8.42,1.49C8.03,1.55,7.63,1.6,7.24,1.63C6.77,1.67,6.29,1.68,5.82,1.68
					c-2-0.02-3.98-0.43-5.82-1.2l0.08-0.47C1.9,0.79,3.86,1.2,5.85,1.22c0.47,0,0.94-0.01,1.41-0.05c0.4-0.03,0.8-0.08,1.2-0.15
					L8.42,1.49z"/>
			</g>
			<g id="Group_131690" transform="translate(1.869 10.898)">
				<g id="Group_131684">
					<path id="Path_78177" class="st22" d="M0.18,2.1L0,2.03L0.32,0C0.49,0.7,0.45,1.43,0.18,2.1z"/>
				</g>
				<g id="Group_131685" transform="translate(1.211 0.402)">
					<path id="Path_78178" class="st22" d="M0.71,2.3C0.96,1.44,1.2,0.2,0.6,0.02s-0.63,1.12-0.59,2.07
						C0.24,2.17,0.48,2.24,0.71,2.3z"/>
				</g>
				<g id="Group_131686" transform="translate(2.979 0.847)">
					<path id="Path_78179" class="st22" d="M0.73,2.25c0.25-0.88,0.49-2.14-0.12-2.24s-0.64,1.18-0.6,2.11
						C0.25,2.17,0.49,2.21,0.73,2.25z"/>
				</g>
				<g id="Group_131687" transform="translate(4.779 1.073)">
					<path id="Path_78180" class="st22" d="M0.74,2.2C0.99,1.3,1.24,0.03,0.62,0s-0.65,1.24-0.6,2.15C0.26,2.17,0.5,2.19,0.74,2.2z"
						/>
				</g>
				<g id="Group_131688" transform="translate(6.603 1.077)">
					<path id="Path_78181" class="st22" d="M0.75,2.15C1,1.24,1.25-0.04,0.62,0s-0.65,1.3-0.61,2.19C0.26,2.18,0.5,2.17,0.75,2.15z"
						/>
				</g>
				<g id="Group_131689" transform="translate(8.441 0.96)">
					<path id="Path_78182" class="st22" d="M0.24,2.1C0.16,2.12,0.09,2.13,0.01,2.14C-0.03,1.38,0,0.33,0.41,0L0.24,2.1z"/>
				</g>
			</g>
			<g id="Group_131691" transform="translate(1.668 13.728)">
				<path id="Path_78183" class="st19" d="M8.77,1.54c-0.32,0.05-0.63,0.1-0.95,0.13C7.31,1.72,6.8,1.75,6.29,1.76
					C4.13,1.77,1.99,1.34,0,0.48l0.08-0.47c1.97,0.87,4.1,1.31,6.25,1.29c0.51,0,1.01-0.04,1.51-0.09c0.33-0.04,0.65-0.08,0.97-0.14
					L8.77,1.54z"/>
			</g>
			<g id="Group_131698" transform="translate(1.124 15.497)">
				<g id="Group_131692">
					<path id="Path_78184" class="st22" d="M0.37,2.29C0.25,2.24,0.12,2.19,0,2.14l0,0L0.34,0C0.83,0.32,0.6,1.48,0.37,2.29z"/>
				</g>
				<g id="Group_131693" transform="translate(1.402 0.592)">
					<path id="Path_78185" class="st22" d="M0.71,2.3C0.96,1.44,1.2,0.2,0.6,0.02s-0.63,1.12-0.59,2.07
						C0.24,2.17,0.48,2.24,0.71,2.3z"/>
				</g>
				<g id="Group_131694" transform="translate(3.169 1.037)">
					<path id="Path_78186" class="st22" d="M0.72,2.25c0.25-0.88,0.49-2.14-0.12-2.24s-0.64,1.18-0.6,2.11
						C0.25,2.17,0.49,2.21,0.72,2.25z"/>
				</g>
				<g id="Group_131695" transform="translate(4.97 1.263)">
					<path id="Path_78187" class="st22" d="M0.74,2.2C0.99,1.3,1.24,0.03,0.62,0s-0.65,1.24-0.6,2.15C0.26,2.17,0.5,2.19,0.74,2.2z"
						/>
				</g>
				<g id="Group_131696" transform="translate(6.794 1.267)">
					<path id="Path_78188" class="st22" d="M0.75,2.15C1,1.23,1.25-0.05,0.62,0s-0.65,1.3-0.61,2.19C0.26,2.18,0.5,2.17,0.75,2.15z"
						/>
				</g>
				<g id="Group_131697" transform="translate(8.631 1.067)">
					<path id="Path_78189" class="st22" d="M0.39,2.16C0.26,2.18,0.14,2.2,0.01,2.22C-0.04,1.37,0,0.16,0.57,0L0.39,2.16z"/>
				</g>
			</g>
			<g id="Group_131699" transform="translate(0.921 18.439)">
				<path id="Path_78190" class="st19" d="M9.12,1.58C8.88,1.62,8.64,1.66,8.39,1.69c-2.86,0.38-5.77-0.04-8.4-1.22L0.07,0
					c2.11,0.96,4.41,1.43,6.72,1.36C7.33,1.34,7.87,1.3,8.41,1.22c0.25-0.03,0.5-0.08,0.75-0.12L9.12,1.58z"/>
			</g>
		</g>
		<g id="Group_131703" transform="matrix(1, 0.017, -0.017, 1, 20.78, 13.887)">
			<path id="Path_78191" class="st25" d="M3.46,1.86c0,0-0.4-0.39-0.24-0.7C3.36,0.9,3.7,0.78,3.76,0.48c0-0.03,0.03-0.04,0.05-0.04
				c0.01,0,0.03,0.01,0.03,0.02c0.12,0.18,0.16,0.41,0.12,0.62c0.25-0.29,0.27-0.7,0.07-1.02C4.02,0.05,4.03,0.02,4.05,0
				C4.07,0,4.09,0,4.1,0.01c0.42,0.25,0.67,0.72,0.63,1.22c-0.06,0.32-0.3,0.59-0.61,0.69L3.46,1.86z"/>
			<path id="Path_78192" class="st26" d="M8.91,13.76l-4.66,4.84l0.84,2.28l4.99-6.91L8.91,13.76z"/>
			<path id="Path_78193" class="st26" d="M10.07,13.97L5.09,24.4l0.04,3.33l3.88-5.35L10.07,13.97z"/>
			<path id="Path_78194" class="st27" d="M10.07,13.97l-5.66,7.69l0.68,2.74L10.07,13.97z"/>
			<path id="Path_78195" class="st27" d="M9.01,22.38l-3.88,5.35l0.07,5.85l1.39-2.89L9.01,22.38z"/>
			<path id="Path_78196" class="st27" d="M10.07,13.97L8.26,28.33l1.97-1.24L10.07,13.97z"/>
			<path id="Path_78197" class="st26" d="M10.07,13.97l0.16,13.12l1.54-0.92L10.07,13.97z"/>
			<path id="Path_78198" class="st26" d="M9.01,22.38l-2.49,8.44l2.99-1.79L9.01,22.38z"/>
			<path id="Path_78199" class="st25" d="M12.06,31.21l0.34-1.02l-0.15-1.74l0.39-0.17l-0.11-0.93l0.38-0.53L12,18.56l-1.63-4.31
				l0.26,12.59l0.16,0.26l-0.27,1.25l-1.01,0.67l-0.19,4.95l3.42-0.04l-0.65-0.7L12.06,31.21z"/>
			<path id="Path_78200" class="st28" d="M10.79,27.12l-0.17-0.27l-2.37,1.48l1.25,0.7l-1.49,0.9l-0.26,3.26l-0.96,0.82l3.59-0.04
				l-0.83-1.12L10.79,27.12z"/>
			<g id="Group_131701" transform="translate(5.322 7.15)">
				<path id="Path_78201" class="st25" d="M2.77,0l0.42,1.4L2.78,1.46L2.77,0z"/>
				<path id="Path_78202" class="st25" d="M4.99,0.56L4.21,1.89L3.87,1.61L4.99,0.56z"/>
				<path id="Path_78203" class="st25" d="M6.23,1.72L4.61,2.59L4.44,2.18L6.23,1.72z"/>
				<path id="Path_78204" class="st25" d="M6.63,2.93l-2,0.3L4.62,2.78L6.63,2.93z"/>
				<path id="Path_78205" class="st25" d="M0.79,0.89l1.38,0.85L1.9,2.06L0.79,0.89z"/>
				<path id="Path_78206" class="st25" d="M0.06,2.42l1.62-0.04L1.64,2.79L0.06,2.42z"/>
				<path id="Path_78207" class="st25" d="M0,3.21l1.6-0.22v0.42L0,3.21z"/>
			</g>
			<path id="Path_78208" class="st26" d="M6.52,30.83L5.2,33.57l-1.22,0.47l2.81-0.03l0.96-0.82l0.26-3.26L6.52,30.83z"/>
			<path id="Path_78209" class="st27" d="M10.02,10.15c0.03,0.9-0.67,1.64-1.57,1.68c-0.9-0.01-1.62-0.74-1.61-1.64
				C6.82,9.3,7.52,8.55,8.41,8.52C9.31,8.53,10.03,9.26,10.02,10.15z"/>
			<path id="Path_78210" class="st25" d="M9.95,10.37c-0.01,0.81-0.68,1.47-1.49,1.46c-0.81,0.03-1.5-0.61-1.53-1.42
				c0.01-0.81,0.68-1.47,1.49-1.46C9.23,8.92,9.92,9.56,9.95,10.37z"/>
			<path id="Path_78211" class="st25" d="M10.62,26.85l-2.37,1.48l1.25,0.7l0.52,1.88l0.82-3.71L10.62,26.85z"/>
			<path id="Path_78212" class="st25" d="M6.52,30.83l-0.97,2.03l4.17-2.95l-0.2-0.88L6.52,30.83z"/>
			<path id="Path_78213" class="st28" d="M7.63,10.34l-0.46,0.33L7.1,11.32h0.19l-0.41,0.5L8.6,13.9l1.3-0.44L9.57,13.1l-0.01-1.34
				l-0.08-1.23l-0.65-0.36L7.63,10.34z"/>
			<path id="Path_78214" class="st25" d="M8.87,13.48l1.03-0.01L9.57,13.1l-0.01-1.34l-0.08-1.23l-0.42-0.37L8.87,13.48z"/>
			<path id="Path_78215" class="st26" d="M7.81,12.77l1.1,0.99l-3.45,3.58l-0.46-1.01l-0.15-1.64l-0.02-1.23l-0.78,0.01L3.72,12.4
				l0.82-1.69l1.36-0.73l0.38,0.71l0.02,1.32L7.81,12.77z"/>
			<path id="Path_78216" class="st27" d="M6.28,10.68l-2.22,2.77l0.55,0.22l-0.25,0.65l0.49,0.35l1.1-2.21l0.36,0.61l0.89-0.41
				l-0.26,1.12l0.87-1.01l-0.7-0.9l-0.58-0.15L6.28,10.68z"/>
			<path id="Path_78217" class="st27" d="M6.31,13.07l-1.31,3.25l0.46,1.01L6.31,13.07z"/>
			<path id="Path_78218" class="st27" d="M9.91,13.97l-4.33,3.24l3.33-3.46L9.91,13.97z"/>
			
				<rect id="Rectangle_9844" x="7.72" y="29.65" transform="matrix(0.012 0.9999 -0.9999 0.012 42.5441 25.8611)" class="st26" width="0.94" height="9.63"/>
			
				<rect id="Rectangle_9845" x="12.89" y="34.04" transform="matrix(0.012 0.9999 -0.9999 0.012 47.5896 20.6335)" class="st25" width="0.94" height="0.71"/>
			
				<rect id="Rectangle_9846" x="2.55" y="34.17" transform="matrix(0.012 0.9999 -0.9999 0.012 37.4998 31.0893)" class="st26" width="0.94" height="0.71"/>
			
				<rect id="Rectangle_9847" x="6.96" y="30.12" transform="matrix(0.012 0.9999 -0.9999 0.012 44.2772 27.5309)" class="st27" width="2.49" height="12.11"/>
			
				<rect id="Rectangle_9848" x="6.99" y="30.44" transform="matrix(0.012 0.9999 -0.9999 0.012 46.7933 29.9596)" class="st25" width="2.49" height="16.44"/>
			
				<rect id="Rectangle_9849" x="13.46" y="35.65" transform="matrix(0.012 0.9999 -0.9999 0.012 50.62 20.9543)" class="st28" width="2.49" height="0.89"/>
			
				<rect id="Rectangle_9850" x="0.46" y="35.8" transform="matrix(0.012 0.9999 -0.9999 0.012 37.9313 34.1079)" class="st26" width="2.49" height="0.89"/>
			<path id="Path_78219" class="st26" d="M3.86,6.83l0.09,0.6l0.02,1.3l0.34,0.86l0.22,1.11l0.78-0.63L5.24,8.64L3.96,5.98
				L3.86,6.83z"/>
			<g id="Group_131702" transform="translate(9.904 13.468)">
				<path id="Path_78220" class="st25" d="M4.98,4.34l0.25,0.41L4.77,6L4.52,6.34l-0.34,0.1l0.09,0.75L3.77,8.7L3.22,8.86L2.87,9.34
					h-0.3L2.34,7.32L4.98,4.34z"/>
				<path id="Path_78221" class="st25" d="M0,0l1.01,0.12v0.36l0.71,0.46l0.67,2.03l0.73,0.4l2.14-0.22l0.29,0.19L2.94,7.87
					L2.67,7.64L1.96,7.33L0.5,0.89L0,0z"/>
				<path id="Path_78222" class="st27" d="M3.82,2.43L2.53,4.19l0.24,1.94l-0.2,1.4l0.1,0.11l2.59-4.47L3.82,2.43z"/>
			</g>
			<path id="Path_78223" class="st27" d="M4.48,3.87L4.3,3.93v0.33l0.14,0.41L4.22,5.27L4.07,6.64l0.83,1.7l0.31,1.17l-0.31,0.59
				l0.11,0.1L4.54,10.7l1.36-0.73l-0.2-0.26L5.7,8.98L4.92,5.85l0.03-0.77L4.8,4.59L4.57,4.21L4.48,3.87z"/>
			<path id="Path_78224" class="st29" d="M3.04,3.31l0.04,0.21l0.36,0.34l0.08,0.01V3.61l-0.16-0.3H3.04z"/>
			<path id="Path_78225" class="st25" d="M5.25,3.04L5.25,3.04C5.22,2.96,5.09,2.89,5.09,2.89V2.38c0-0.19-0.15-0.34-0.34-0.34
				c0,0,0,0-0.01,0H4.43v-0.2L3.89,1.84L3.34,1.85v0.2H3.05c-0.19,0-0.34,0.15-0.34,0.34c0,0,0,0,0,0V2.9c0,0-0.12,0.06-0.15,0.15h0
				c-0.03,0-0.06,0.02-0.06,0.06s0.02,0.06,0.06,0.06h0.01c0.02,0.09,0.11,0.15,0.2,0.15h0.59c-0.08,0-0.15,0.07-0.15,0.15
				s0.07,0.15,0.15,0.15h0.16l0.01,2.3H3.49c-0.06,0-0.12,0.05-0.12,0.11c0,0.06,0.05,0.12,0.12,0.12h0.04
				c0,0.13,0.07,0.24,0.17,0.31C3.68,6.5,3.67,6.54,3.67,6.59l0,0c0,0.14,0.11,0.25,0.25,0.25c0.14,0,0.25-0.11,0.25-0.25
				c0-0.04-0.01-0.09-0.04-0.13c0.11-0.07,0.17-0.2,0.17-0.33h0.04c0.06,0,0.11-0.05,0.11-0.11c0-0.06-0.05-0.12-0.11-0.12H4.31
				L4.3,3.6h0.16c0.08,0,0.15-0.07,0.15-0.15c0-0.08-0.07-0.15-0.15-0.15h0.59c0.09,0,0.18-0.06,0.2-0.15h0.01
				c0.03,0,0.06-0.02,0.06-0.06S5.29,3.04,5.25,3.04L5.25,3.04z"/>
			<path id="Path_78226" class="st27" d="M3.34,2.04H3.05c-0.19,0-0.34,0.15-0.34,0.34c0,0,0,0.01,0,0.01v0.52
				c0,0-0.12,0.06-0.15,0.15h0c-0.03,0-0.06,0.02-0.06,0.06s0.02,0.06,0.06,0.06h0.01c0.02,0.09,0.11,0.15,0.2,0.15h0.59
				c-0.08,0-0.15,0.07-0.15,0.15s0.07,0.15,0.15,0.15h0.16l0.01,2.3H3.49c-0.06,0-0.12,0.05-0.12,0.11c0,0.06,0.05,0.12,0.12,0.12
				h0.04c0,0.13,0.07,0.24,0.17,0.31C3.68,6.5,3.67,6.54,3.67,6.59l0,0c0,0.14,0.11,0.25,0.25,0.25c0,0,0,0,0,0h0.03l-0.06-5
				L3.34,1.85L3.34,2.04z"/>
			<path id="Path_78227" class="st26" d="M8.42,9.95c-1.02,0.01-0.81,0.69-0.8,1.11s0,1.32,0.83,1.31L8.42,9.95z"/>
			<path id="Path_78228" class="st27" d="M8.42,9.95c1.02-0.01,0.82,0.67,0.83,1.09c0.01,0.42,0.03,1.32-0.8,1.33L8.42,9.95z"/>
			<path id="Path_78229" class="st27" d="M7.94,12.38l-0.13,0.39l1.1,0.99l1.17,0.21l0.33,2.32v-1.94l-0.5-0.88l-0.8,0.01
				L7.94,12.38z"/>
			<path id="Path_78230" class="st25" d="M9.48,10.53l0.48,0.61l0.34,1.09l-0.24,0.28l0.56,1.04l-0.55-0.07l-0.55-0.11l0.06-0.81
				L9.48,10.53z"/>
			<path id="Path_78231" class="st27" d="M8.41,9.54c0.08,0.67-0.08,0.57-0.63,0.78c-0.28,0.1-0.51,0.31-0.63,0.58
				c-0.1-0.64,0.33-1.24,0.97-1.35C8.22,9.54,8.32,9.54,8.41,9.54z"/>
			<path id="Path_78232" class="st28" d="M8.41,9.54c-0.05,0.72,0.09,0.61,0.65,0.76c0.39,0.11,0.9,0.83,0.9,0.83
				c0.06-0.82-0.56-1.53-1.38-1.59C8.53,9.54,8.47,9.54,8.41,9.54z"/>
			<path id="Path_78233" class="st29" d="M3.44,3.86L3.25,4v0.2l0.09,0.07L3.25,4.34v0.19L3.34,4.7v0.24l0.24,0.47l0-0.42
				c0,0,0.05-0.11,0.29-0.11l0.15-0.07l0-0.15l0.14-0.09L4.15,4.35L3.61,4.24l0.3-0.09V3.94L3.44,3.86z"/>
			<path id="Path_78234" class="st29" d="M3.3,2.22l0.51-0.01l0.01,0.67l-0.9,0.01V2.66C2.9,2.43,3.07,2.24,3.3,2.22z"/>
			<path id="Path_78235" class="st28" d="M14.43,17.41l-0.16,0.15l0.27,0.34l0.11,0.33L14.28,18L14,17.9l-0.13,0.16l0.06,0.11
				l-0.18-0.03l-0.1,0.16l0.13,0.1l-0.13,0.07v0.22l0.22,0.42l0.03,0.55l1.23-1.45l-0.28-0.47L14.43,17.41z"/>
		</g>
		<g id="Group_131704" transform="translate(42.377 45.636)">
			<path id="Path_78236" class="st30" d="M1.16,6.42v1.97H1.5L1.33,6.42H1.16z"/>
			<path id="Path_78237" class="st31" d="M1.3,0L0.26,2.59C-0.32,4.04,0.1,5.71,1.3,6.72l0,0c1.2-1.01,1.62-2.67,1.04-4.13L1.3,0z"
				/>
			<path id="Path_78238" class="st32" d="M1.43,4.81C1.38,4.88,1.29,4.9,1.21,4.86C1.2,4.84,1.18,4.83,1.17,4.81
				c-0.53-0.8-0.64-1.82-0.28-2.72L1.3,1.08l0.41,1.01C2.07,2.99,1.97,4.01,1.43,4.81z"/>
		</g>
		<g id="Group_131710" transform="translate(42.751 13.739)">
			<g id="Group_131705" transform="translate(4.898 12.43)">
				<path id="Path_78239" class="st3" d="M1.03,1.76L1.2,0H1.02L0.85,1.76H1.03z"/>
				<path id="Path_78240" class="st3" d="M0.23,1.76L0.18,0H0l0.04,1.76H0.23z"/>
			</g>
			<g id="Group_131706">
				<path id="Path_78241" class="st33" d="M10.85,3.6c-0.09-0.43-0.24-0.85-0.45-1.23c-1.16-2.09-3.95-2.6-6.12-2.28
					C3.22,0.22,2.22,0.64,1.39,1.3c-1.98,1.69-1.61,4.65-0.38,6.66c0.68,1.05,1.49,2.02,2.4,2.88c0.38,0.37,0.72,0.79,1,1.24
					c0.02,0.03,0.23,0.49,0.25,0.49h1.61v-0.01l0.01-0.03c0.47-1.21,1.57-2,2.41-2.94C10.07,8.02,11.28,5.74,10.85,3.6z"/>
			</g>
			<g id="Group_131707" transform="translate(4.412 13.858)">
				<path id="Path_78242" class="st34" d="M0.21,0.22l1.85-0.09L1.82,1.29H0.29L0.21,0.22z"/>
				<path id="Path_78243" class="st35" d="M0.61,0.21c0,0-0.45,0.84,0,0.84S0.61,0.21,0.61,0.21z"/>
				<path id="Path_78244" class="st35" d="M1.58,0.21c0,0-0.45,0.84,0,0.84S1.58,0.21,1.58,0.21z"/>
				<path id="Path_78245" class="st35" d="M0,0l0.12,0.3h1.94L2.17,0H0z"/>
			</g>
			<g id="Group_131708" transform="translate(1.528)">
				<path id="Path_78246" class="st36" d="M7.82,3.6C7.76,3.18,7.65,2.76,7.49,2.37C6.8,0.61,4.91-0.37,3.08,0.09
					C2.27,0.24,1.54,0.67,1,1.3c-1.42,1.69-1.16,4.65-0.28,6.66c0.47,1.02,1.05,1.98,1.73,2.88c0.28,0.39,0.52,0.8,0.72,1.24
					c0.01,0.03,0.17,0.49,0.18,0.49h1.15v-0.01l0.01-0.03c0.42-1.07,1-2.06,1.73-2.94C7.44,7.83,8,5.72,7.82,3.6z"/>
			</g>
			<g id="Group_131709" transform="translate(3.587)">
				<path id="Path_78247" class="st33" d="M3.73,3.6C3.71,3.18,3.66,2.77,3.58,2.37c-0.4-2.09-1.36-2.6-2.11-2.28
					C0.99,0.35,0.64,0.78,0.48,1.3C-0.2,2.99-0.08,5.95,0.35,7.96c0.21,0.98,0.49,1.94,0.83,2.88c0.14,0.4,0.26,0.82,0.34,1.24
					c0.01,0.03,0.08,0.49,0.09,0.49h0.55v-0.01v-0.03c0.18-1,0.46-1.99,0.83-2.94C3.58,7.65,3.83,5.62,3.73,3.6z"/>
			</g>
		</g>
		<g id="Group_131716" transform="translate(52.426 22.014)">
			<g id="Group_131711" transform="translate(2.449 6.215)">
				<path id="Path_78248" class="st3" d="M0.52,0.88L0.61,0H0.51L0.43,0.88H0.52z"/>
				<path id="Path_78249" class="st3" d="M0.11,0.88L0.09,0H0l0.02,0.88H0.11z"/>
			</g>
			<g id="Group_131712">
				<path id="Path_78250" class="st37" d="M5.42,1.8C5.38,1.58,5.3,1.37,5.2,1.18c-0.7-0.96-1.9-1.41-3.06-1.14
					C1.61,0.11,1.11,0.32,0.7,0.65c-0.86,0.92-0.94,2.32-0.19,3.33c0.34,0.53,0.74,1.01,1.2,1.44c0.19,0.19,0.36,0.39,0.5,0.62
					c0.01,0.01,0.12,0.25,0.12,0.25h0.8V6.28l0.01-0.01c0.31-0.56,0.72-1.06,1.2-1.47C5.13,4.01,5.53,2.91,5.42,1.8z"/>
			</g>
			<g id="Group_131713" transform="translate(2.206 6.929)">
				<path id="Path_78251" class="st34" d="M0.1,0.11l0.92-0.04L0.91,0.64H0.14L0.1,0.11z"/>
				<path id="Path_78252" class="st35" d="M0.31,0.1c0,0-0.23,0.42,0,0.42S0.31,0.1,0.31,0.1z"/>
				<path id="Path_78253" class="st35" d="M0.79,0.1c0,0-0.23,0.42,0,0.42S0.79,0.1,0.79,0.1z"/>
				<path id="Path_78254" class="st35" d="M0,0l0.06,0.15h0.97L1.09,0H0z"/>
			</g>
			<g id="Group_131714" transform="translate(0.764)">
				<path id="Path_78255" class="st38" d="M3.91,1.8C3.88,1.59,3.82,1.38,3.75,1.18C3.4,0.31,2.46-0.18,1.55,0.04
					C1.14,0.12,0.77,0.34,0.51,0.65c-0.62,1.01-0.67,2.27-0.14,3.33C0.61,4.49,0.9,4.97,1.23,5.42c0.14,0.19,0.26,0.4,0.36,0.62
					C1.6,6.06,1.68,6.29,1.68,6.29h0.58V6.28V6.27c0.21-0.53,0.5-1.03,0.87-1.47C3.72,3.92,4,2.86,3.91,1.8z"/>
			</g>
			<g id="Group_131715" transform="translate(1.794)">
				<path id="Path_78256" class="st37" d="M1.87,1.8C1.85,1.59,1.83,1.39,1.79,1.18c-0.2-1.04-0.68-1.3-1.05-1.14
					C0.5,0.17,0.32,0.39,0.24,0.65c-0.3,1.09-0.32,2.23-0.07,3.33c0.11,0.49,0.24,0.97,0.41,1.44c0.07,0.2,0.13,0.41,0.17,0.62
					c0,0.01,0.04,0.25,0.04,0.25h0.28V6.28V6.27C1.16,5.76,1.3,5.27,1.49,4.8C1.79,3.83,1.92,2.81,1.87,1.8z"/>
			</g>
		</g>
		<g id="Group_131717" transform="translate(0 38.759)">
			<path id="Path_78257" class="st39" d="M26.11,2.67l-0.88-0.01l-0.13-0.9l1.16,0.01L26.11,2.67z"/>
			<path id="Path_78258" class="st40" d="M25.59,2.71l0-0.68l0-0.01c0.06-0.12,0.15-0.11,0.19,0.01l0,0l-0.04,0.68L25.59,2.71z"/>
			<path id="Path_78259" class="st40" d="M25.84,2.71l0.09-0.68l0.01-0.01C26,1.9,26.1,1.9,26.12,2.03l0,0l-0.13,0.68L25.84,2.71z"
				/>
			<path id="Path_78260" class="st40" d="M25.5,2.71l-0.04-0.68l-0.01-0.01c-0.06-0.12-0.15-0.11-0.19,0.01l0,0l0.08,0.68L25.5,2.71
				z"/>
			<path id="Path_78261" class="st39" d="M26.54,1.33c0,0.02,0,0.04-0.01,0.05c-0.03,0.16-0.13,0.31-0.28,0.38l-1.11-0.01
				c-0.3-0.2-0.39-0.57,0.08-1c0.04-0.03,0.08-0.06,0.12-0.09l0.41-0.33l0.39,0.33C26.36,0.83,26.51,1.07,26.54,1.33z"/>
			<path id="Path_78262" class="st41" d="M26.53,1.39c-0.03,0.16-0.13,0.31-0.28,0.38l-1.11,0c-0.3-0.2-0.39-0.57,0.08-1
				c0,0.03,0,0.07,0,0.1c0,0.1,0.03,0.2,0.1,0.29c0.12,0.13,0.3,0.21,0.48,0.22c0.21,0.01,0.43-0.02,0.64,0
				C26.48,1.38,26.51,1.38,26.53,1.39z"/>
			<path id="Path_78263" class="st39" d="M26.14,15.12l-1.82-0.01l0.84-12.48l1.02,0.01L26.14,15.12z"/>
			<path id="Path_78264" class="st42" d="M25.59,2.71l0.25,0L25.72,12l-0.58,0L25.59,2.71z"/>
			<path id="Path_78265" class="st43" d="M25.11,2.55l1.09,0.01L26.2,2.75l-1.09-0.03L25.11,2.55z"/>
			<path id="Path_78266" class="st43" d="M24.83,5.73l1.43,0.01l-0.01,0.19l-1.43-0.03L24.83,5.73z"/>
			<path id="Path_78267" class="st43" d="M24.56,8.91l1.74,0.01L26.3,9.12l-1.74-0.03L24.56,8.91z"/>
			<path id="Path_78268" class="st43" d="M25.09,1.75l1.21,0.01l-0.01,0.19l-1.21-0.03L25.09,1.75z"/>
			<path id="Path_78269" class="st39" d="M23.15,6.29l-0.62,0l-0.1-0.63l0.82,0.01L23.15,6.29z"/>
			<path id="Path_78270" class="st40" d="M22.78,6.32l0-0.48l0-0.01c0.04-0.08,0.11-0.08,0.13,0.01l0,0l-0.03,0.48L22.78,6.32z"/>
			<path id="Path_78271" class="st40" d="M22.95,6.32l0.07-0.48l0-0.01c0.05-0.08,0.11-0.08,0.13,0.01l0,0l-0.09,0.48L22.95,6.32z"
				/>
			<path id="Path_78272" class="st40" d="M22.71,6.32l-0.03-0.48l0-0.01c-0.04-0.08-0.11-0.08-0.13,0.01l0,0l0.06,0.48L22.71,6.32z"
				/>
			<path id="Path_78273" class="st39" d="M23.45,5.35c0,0.13-0.08,0.25-0.19,0.31l-0.78-0.01c-0.23-0.15-0.29-0.44,0.13-0.77
				l0.02-0.02l0.27-0.21l0.27,0.23c0.15,0.1,0.25,0.25,0.28,0.43C23.45,5.32,23.45,5.34,23.45,5.35z"/>
			<path id="Path_78274" class="st41" d="M23.45,5.35c0,0.13-0.08,0.25-0.19,0.31l-0.79-0.01c-0.23-0.15-0.28-0.44,0.14-0.77
				l0.02-0.02c-0.05,0.11-0.05,0.24,0.01,0.35c0.06,0.1,0.17,0.17,0.29,0.18c0.12,0.01,0.24,0,0.35-0.04
				c0.05-0.02,0.11-0.04,0.17-0.04C23.45,5.32,23.45,5.33,23.45,5.35z"/>
			<path id="Path_78275" class="st39" d="M23.17,15.1l-1.29-0.01l0.6-8.83l0.72,0L23.17,15.1z"/>
			<path id="Path_78276" class="st42" d="M22.75,6.32l0.19,0l-0.09,7.33l-0.46,0L22.75,6.32z"/>
			<path id="Path_78277" class="st43" d="M22.44,6.21l0.77,0.01l0,0.14l-0.77-0.02L22.44,6.21z"/>
			<path id="Path_78278" class="st43" d="M22.24,8.46l1.01,0.01l0,0.14l-1.01-0.02L22.24,8.46z"/>
			<path id="Path_78279" class="st43" d="M22.05,10.71l1.23,0.01l0,0.14l-1.23-0.02L22.05,10.71z"/>
			<path id="Path_78280" class="st43" d="M22.42,5.64l0.85,0.01l0,0.14l-0.85-0.02L22.42,5.64z"/>
			<path id="Path_78281" class="st44" d="M22,8.86l-0.41,6.22l-2.51-0.01l0,0l0.65,0l0.44-7.4l0,0L22,8.86z"/>
			<path id="Path_78282" class="st45" d="M20.16,7.67l-0.44,7.4l-3.24-0.02l0.62-7.4L20.16,7.67z"/>
			<path id="Path_78283" class="st39" d="M17.71,5.07c0,0.1-0.01,0.19-0.02,0.28c-0.13,0.71-0.58,1.33-1.21,1.69l-5.15-0.03
				C10,6.16,9.52,4.62,11.16,2.81c0.28-0.31,0.59-0.6,0.92-0.86l1.86-1.51l1.85,1.53C17.17,3.12,17.72,4.18,17.71,5.07z"/>
			<path id="Path_78284" class="st41" d="M17.69,5.36c-0.13,0.71-0.58,1.33-1.21,1.69l-5.15-0.03c-1.32-0.85-1.81-2.39-0.16-4.2
				c-0.04,0.3,0,0.61,0.1,0.9c0.25,0.58,0.68,1.07,1.23,1.38c0.55,0.31,1.14,0.53,1.75,0.67c0.46,0.14,0.94,0.2,1.42,0.19
				c0.45-0.05,0.9-0.17,1.32-0.34L17.69,5.36z"/>
			<path id="Path_78285" class="st39" d="M19.25,7.8l-1.18-0.01l-0.22-1.21l1.63,0.01L19.25,7.8z"/>
			<path id="Path_78286" class="st43" d="M19.46,6.71l0.02-0.11l-1.63-0.01l0.02,0.11L19.46,6.71z"/>
			<path id="Path_78287" class="st40" d="M18.55,7.86l-0.02-0.92l0-0.02c0.07-0.16,0.2-0.15,0.26,0.02l0,0l-0.03,0.92L18.55,7.86z"
				/>
			<path id="Path_78288" class="st40" d="M18.88,7.86l0.09-0.92l0.01-0.02c0.09-0.16,0.22-0.15,0.25,0.02l0,0l-0.14,0.92L18.88,7.86
				z"/>
			<path id="Path_78289" class="st40" d="M18.42,7.86l-0.08-0.92l-0.01-0.01c-0.08-0.16-0.21-0.16-0.25,0.01l0,0l0.13,0.92
				L18.42,7.86z"/>
			<path id="Path_78290" class="st39" d="M19.59,6.12c-0.01,0.2-0.12,0.38-0.3,0.48l-1.26-0.01c-0.37-0.24-0.47-0.7,0.18-1.23
				l0.01-0.01l0.45-0.36l0.45,0.37c0.17,0.13,0.32,0.31,0.41,0.5C19.58,5.94,19.59,6.03,19.59,6.12z"/>
			<path id="Path_78291" class="st41" d="M19.59,6.12c-0.01,0.2-0.12,0.38-0.3,0.48l-1.26-0.01c-0.37-0.24-0.47-0.7,0.18-1.23
				l0.01-0.01c-0.06,0.21,0.01,0.43,0.17,0.57c0.11,0.08,0.25,0.12,0.39,0.12c0.16,0,0.32-0.02,0.47-0.07
				c0.1-0.03,0.19-0.07,0.29-0.1C19.58,5.94,19.59,6.03,19.59,6.12z"/>
			<path id="Path_78292" class="st40" d="M18.98,10.87l0.25-1.66l0,0c-0.14-0.45-0.62-0.7-1.07-0.56c-0.24,0.07-0.43,0.25-0.53,0.48
				L17.59,9.2l0.23,1.66L18.98,10.87z"/>
			<path id="Path_78293" class="st40" d="M18.96,14.13l0.25-1.66l0,0c-0.14-0.45-0.62-0.7-1.07-0.56c-0.24,0.07-0.43,0.25-0.53,0.48
				l-0.04,0.07l0.23,1.66L18.96,14.13z"/>
			<path id="Path_78294" class="st40" d="M21.26,11.36l0.23-1.38l0,0c-0.08-0.63-0.45-0.67-0.67-0.07l-0.02,0.06l-0.03,1.38
				L21.26,11.36z"/>
			<path id="Path_78295" class="st40" d="M21,14.07l0.23-1.38l0,0c-0.08-0.63-0.45-0.67-0.67-0.07l-0.02,0.06l-0.03,1.38L21,14.07z"
				/>
			<path id="Path_78296" class="st43" d="M22,8.87l-0.02,0.3L20.16,8l0,0l-3.22-0.02l0.03-0.32l3.2,0.02l0,0L22,8.87z"/>
			<path id="Path_78297" class="st39" d="M1.8,2.51l0.88,0.01l0.15-0.9L1.66,1.61L1.8,2.51z"/>
			<path id="Path_78298" class="st40" d="M2.31,2.55l0-0.68L2.31,1.86C2.26,1.74,2.16,1.75,2.12,1.87l0,0l0.03,0.68L2.31,2.55z"/>
			<path id="Path_78299" class="st40" d="M2.07,2.55L1.99,1.87L1.98,1.86C1.92,1.74,1.82,1.74,1.8,1.87l0,0l0.12,0.68L2.07,2.55z"/>
			<path id="Path_78300" class="st40" d="M2.41,2.56l0.05-0.68l0-0.01c0.07-0.12,0.16-0.11,0.19,0.01l0,0L2.57,2.56L2.41,2.56z"/>
			<path id="Path_78301" class="st39" d="M2.77,1.62L1.66,1.61C1.5,1.52,1.39,1.35,1.38,1.17C1.4,0.99,1.47,0.83,1.6,0.7
				c0.06-0.07,0.12-0.13,0.19-0.18l0.39-0.33l0.4,0.33C2.81,0.67,2.96,0.9,3.02,1.16C3.03,1.34,2.94,1.52,2.77,1.62z"/>
			<path id="Path_78302" class="st41" d="M2.77,1.62L1.66,1.61C1.5,1.52,1.39,1.35,1.38,1.17C1.4,0.99,1.47,0.83,1.6,0.7
				c0.07,0.13,0.1,0.28,0.25,0.39c0.19,0.12,0.41,0.17,0.63,0.16c0.18-0.01,0.37-0.04,0.54-0.09C3.03,1.35,2.94,1.52,2.77,1.62z"/>
			<path id="Path_78303" class="st39" d="M1.6,14.96l1.82,0.01L2.74,2.48L1.72,2.47L1.6,14.96z"/>
			<path id="Path_78304" class="st42" d="M2.16,2.55l0.37,9.46l0.55-0.04L2.56,2.56L2.16,2.55z"/>
			<path id="Path_78305" class="st43" d="M2.79,2.41L1.7,2.4l0,0.19L2.8,2.58L2.79,2.41z"/>
			<path id="Path_78306" class="st43" d="M3.03,5.59L1.6,5.58l0,0.19l1.43-0.01L3.03,5.59z"/>
			<path id="Path_78307" class="st43" d="M3.26,8.77L1.52,8.76l0,0.19l1.74-0.01L3.26,8.77z"/>
			<path id="Path_78308" class="st43" d="M2.84,1.6L1.63,1.59l0,0.19l1.21-0.01L2.84,1.6z"/>
			<path id="Path_78309" class="st39" d="M4.71,6.17l0.62,0l0.1-0.63L4.62,5.53L4.71,6.17z"/>
			<path id="Path_78310" class="st40" d="M5.08,6.2l0-0.48l0-0.01c-0.04-0.08-0.1-0.08-0.13,0.01l0,0L4.97,6.2L5.08,6.2z"/>
			<path id="Path_78311" class="st40" d="M4.91,6.2L4.85,5.72L4.84,5.71C4.8,5.62,4.73,5.63,4.71,5.72l0,0L4.8,6.2L4.91,6.2z"/>
			<path id="Path_78312" class="st40" d="M5.15,6.2l0.04-0.48l0-0.01C5.23,5.63,5.3,5.63,5.32,5.72l0,0L5.26,6.21L5.15,6.2z"/>
			<path id="Path_78313" class="st39" d="M5.4,5.54L4.62,5.53C4.5,5.47,4.43,5.35,4.42,5.22C4.43,5.11,4.48,5,4.56,4.91
				c0.05-0.05,0.1-0.1,0.15-0.15l0.28-0.23l0.29,0.23c0.13,0.09,0.23,0.22,0.29,0.37C5.61,5.29,5.55,5.46,5.4,5.54z"/>
			<path id="Path_78314" class="st41" d="M5.4,5.54L4.62,5.53C4.5,5.47,4.43,5.35,4.42,5.22C4.43,5.11,4.48,5,4.56,4.91
				c0.02,0.07,0.05,0.14,0.09,0.2c0.1,0.12,0.26,0.19,0.41,0.18c0.16-0.03,0.32-0.07,0.47-0.14l0.03-0.01
				C5.61,5.29,5.54,5.46,5.4,5.54z"/>
			<path id="Path_78315" class="st39" d="M4.58,14.98l1.29,0.01L5.38,6.15l-0.72,0L4.58,14.98z"/>
			<path id="Path_78316" class="st42" d="M5.08,6.2l0.16,5.86l0.33,0.02L5.26,6.2L5.08,6.2z"/>
			<path id="Path_78317" class="st43" d="M5.42,6.1L4.65,6.09l0,0.14l0.77-0.01L5.42,6.1z"/>
			<path id="Path_78318" class="st43" d="M5.59,8.35L4.58,8.34l0,0.14l1.01-0.01L5.59,8.35z"/>
			<path id="Path_78319" class="st43" d="M5.75,10.6l-1.23-0.01l0,0.14l1.23-0.01L5.75,10.6z"/>
			<path id="Path_78320" class="st43" d="M5.45,5.53L4.59,5.52l0,0.14l0.85-0.01L5.45,5.53z"/>
			<path id="Path_78321" class="st44" d="M5.83,8.76l0.34,6.23l2.51,0.02l0,0l-0.65,0L7.68,7.6l0,0L5.83,8.76z"/>
			<path id="Path_78322" class="st45" d="M7.68,7.59L8.02,15l3.24,0.02l-0.52-7.41L7.68,7.59z"/>
			<path id="Path_78323" class="st39" d="M8.59,7.73l1.18,0.01L10,6.54L8.38,6.53L8.59,7.73z"/>
			<path id="Path_78324" class="st43" d="M8.4,6.64L8.38,6.53L10,6.54L9.98,6.65L8.4,6.64z"/>
			<path id="Path_78325" class="st40" d="M9.28,7.8l0.03-0.92L9.31,6.86C9.24,6.7,9.12,6.71,9.06,6.88l0,0L9.08,7.8L9.28,7.8z"/>
			<path id="Path_78326" class="st40" d="M8.95,7.8L8.87,6.88L8.86,6.86C8.78,6.7,8.65,6.71,8.61,6.88l0,0l0.13,0.92L8.95,7.8z"/>
			<path id="Path_78327" class="st40" d="M9.41,7.8l0.09-0.92l0.01-0.02C9.6,6.7,9.73,6.71,9.77,6.88l0,0L9.62,7.8L9.41,7.8z"/>
			<path id="Path_78328" class="st39" d="M9.82,6.53L8.56,6.53c-0.18-0.1-0.29-0.28-0.3-0.49c0.01-0.17,0.08-0.33,0.19-0.46
				c0.09-0.11,0.18-0.2,0.29-0.29L9.2,4.92L9.65,5.3c0.2,0.15,0.35,0.35,0.44,0.58C10.18,6.13,10.06,6.41,9.82,6.53z"/>
			<path id="Path_78329" class="st41" d="M9.82,6.53L8.56,6.53c-0.18-0.1-0.29-0.28-0.3-0.49c0.01-0.17,0.08-0.33,0.19-0.46
				c0.04,0.1,0.1,0.19,0.18,0.26C8.75,5.94,8.89,6,9.04,6.04C9.16,6.08,9.29,6.1,9.42,6.1c0.23-0.05,0.46-0.12,0.67-0.22
				C10.17,6.13,10.06,6.41,9.82,6.53z"/>
			<path id="Path_78330" class="st40" d="M8.81,10.8L8.58,9.14l0,0c0.15-0.45,0.63-0.7,1.08-0.55c0.24,0.08,0.43,0.25,0.52,0.48
				l0.04,0.08l-0.25,1.66L8.81,10.8z"/>
			<path id="Path_78331" class="st40" d="M8.79,14.06L8.56,12.4l0,0c0.15-0.45,0.63-0.7,1.08-0.55c0.24,0.08,0.43,0.25,0.52,0.48
				l0.04,0.07l-0.25,1.66L8.79,14.06z"/>
			<path id="Path_78332" class="st40" d="M6.52,11.26L6.31,9.88l0,0C6.4,9.25,6.77,9.21,6.98,9.82L7,9.89l0.01,1.38L6.52,11.26z"/>
			<path id="Path_78333" class="st40" d="M6.75,13.97l-0.21-1.38l0,0c0.09-0.63,0.46-0.67,0.67-0.06l0.02,0.06l0.01,1.38L6.75,13.97
				z"/>
			<path id="Path_78334" class="st43" d="M5.83,8.76l0.02,0.31l1.83-1.15l0,0l0-0.01l3.22,0.02l-0.03-0.32l-3.2-0.02l0,0.01l0,0
				L5.83,8.76z"/>
			<path id="Path_78335" class="st46" d="M17.15,7.05l-0.03,0.32l-0.64,7.69l-5.26-0.03l-0.54-7.7L10.66,7L17.15,7.05z"/>
			<path id="Path_78336" class="st43" d="M17.15,7.05l-0.03,0.32l-6.44-0.04L10.66,7L17.15,7.05z"/>
			<path id="Path_78337" class="st40" d="M11.44,8.13l0.41,6.89l0.18,0l-0.4-6.71l4.52,0.03l-0.49,6.7l0.18,0l0.5-6.88L11.44,8.13z"
				/>
			<path id="Path_78338" class="st40" d="M12.75,15.03L12.5,9.88l0.08-0.1c0.55-0.72,1.59-0.85,2.3-0.3
				c0.15,0.12,0.28,0.26,0.38,0.42l0,0l-0.31,5.14L12.75,15.03z"/>
			<path id="Path_78339" class="st44" d="M1.5,11.88l0.01,3.08l24.72,0.16l0.05-3.08L1.5,11.88z"/>
			<path id="Path_78340" class="st40" d="M26.28,12.58l0.01-0.32L1.5,12.09l0,0.32L26.28,12.58z"/>
			<path id="Path_78341" class="st39" d="M26.28,12.37l0.01-0.32L1.5,11.88l0,0.32L26.28,12.37z"/>
			<path id="Path_78342" class="st30" d="M27.41,13.29l-0.1,2.19l0.38,0.02l-0.09-2.2L27.41,13.29z"/>
			<path id="Path_78343" class="st31" d="M27.88,6.14l-1.29,2.83c-0.72,1.59-0.34,3.47,0.96,4.65l0,0c1.39-1.06,1.94-2.9,1.36-4.55
				L27.88,6.14z"/>
			<path id="Path_78344" class="st32" d="M27.79,11.5c-0.06,0.08-0.17,0.1-0.24,0.04c-0.02-0.01-0.03-0.03-0.05-0.05
				c-0.56-0.92-0.62-2.06-0.18-3.04l0.51-1.11l0.4,1.15C28.59,9.51,28.42,10.63,27.79,11.5z"/>
			<path id="Path_78345" class="st30" d="M2.09,13.32l-0.1,2.19l0.38,0.02l-0.09-2.2L2.09,13.32z"/>
			<path id="Path_78346" class="st31" d="M2.55,6.18L1.27,9.01c-0.72,1.59-0.34,3.47,0.96,4.65l0,0c1.39-1.06,1.94-2.9,1.36-4.55
				L2.55,6.18z"/>
			<path id="Path_78347" class="st32" d="M2.46,11.54c-0.06,0.08-0.17,0.1-0.24,0.04c-0.02-0.01-0.03-0.03-0.05-0.05
				c-0.56-0.92-0.62-2.06-0.18-3.04L2.5,7.38l0.4,1.15C3.26,9.54,3.1,10.67,2.46,11.54z"/>
		</g>
	</g>
</g>
</svg>
