<svg xmlns="http://www.w3.org/2000/svg" width="55" height="55" viewBox="0 0 55 55">
  <g id="Group_115014" data-name="Group 115014" transform="translate(-54.225 -328.508)">
    <g id="Path_1" data-name="Path 1">
      <path id="Path_80565" data-name="Path 80565" d="M81.725,383.507a27.416,27.416,0,1,1,10.7-2.162A27.314,27.314,0,0,1,81.725,383.507Z" fill="#cd3400"/>
    </g>
    <path id="Path_2" data-name="Path 2" d="M73.786,345.268h-.9c-1.713,0-2.637.979-2.637,2.909v9.295c0,2.393-.816,3.236-2.719,3.236a4.536,4.536,0,0,1-3.67-1.849,3.128,3.128,0,0,0-2.066,3.126c0,2.5,2.338,4.024,6.661,4.024,5.274,0,8.046-2.637,8.046-8.455v-9.406C76.5,346.22,75.554,345.268,73.786,345.268Zm8.156,4.7h-.625c-1.521,0-2.691.708-2.691,2.91v9.977c0,2.2,1.114,2.909,2.745,2.909H82c1.521,0,2.61-.761,2.61-2.909V352.88C84.634,350.624,83.574,349.971,81.942,349.971Zm-.353-7.231c-1.93,0-3.154,1.087-3.154,2.8,0,1.74,1.251,2.828,3.236,2.828,1.93,0,3.153-1.088,3.153-2.828C84.851,343.8,83.6,342.74,81.589,342.74Zm13.182,7.068c-5.111,0-8.509,3.236-8.509,8.074,0,4.948,3.262,8.129,8.428,8.129,5.111,0,8.482-3.181,8.482-8.1-.024-4.838-3.341-8.1-8.4-8.1Zm-.054,11.636a3.549,3.549,0,1,1,3.366-3.723c0,.063,0,.125,0,.188a3.379,3.379,0,0,1-3.221,3.531c-.049,0-.1,0-.146,0Z" fill="#fff"/>
  </g>
</svg>
