<svg xmlns="http://www.w3.org/2000/svg" xmlns:xlink="http://www.w3.org/1999/xlink" width="55" height="55" viewBox="0 0 55 55">
  <defs>
    <linearGradient id="linear-gradient" x1="0.859" y1="0.856" x2="0.122" y2="0.125" gradientUnits="objectBoundingBox">
      <stop offset="0" stop-color="#0f4145"/>
      <stop offset="1" stop-color="#252735"/>
    </linearGradient>
  </defs>
  <g id="Group_137532" data-name="Group 137532" transform="translate(-134.279 -326.5)">
    <rect id="Rectangle_19477" data-name="Rectangle 19477" width="55" height="55" rx="10" transform="translate(134.279 326.5)" fill="url(#linear-gradient)"/>
    <ellipse id="Ellipse_14949" data-name="Ellipse 14949" cx="8.577" cy="8.717" rx="8.577" ry="8.717" transform="translate(168.411 361.279)" fill="#00f4d1"/>
    <g id="Group_137531" data-name="Group 137531">
      <path id="Path_80560" data-name="Path 80560" d="M158.419,370.176h3.234s1.757-11.862,15.267-19.232V343.9c0-4.816-4.707-5.356-5.414-5.356h-6.214a.846.846,0,0,0-.828.985,54.032,54.032,0,0,1-4.365,29.122s-1.861-18.822-8.685-29.753a.64.64,0,0,0-.661-.293,4.792,4.792,0,0,0-4.094,5.062v5.115A29.361,29.361,0,0,1,158.419,370.176Z" fill="#fff"/>
      <path id="Path_80561" data-name="Path 80561" d="M147.27,363.276a.515.515,0,0,0-.614.514c.1,6.471,4.468,6.386,4.468,6.386h5.288a.659.659,0,0,0,.578-.962C156.182,367.651,153.808,364.605,147.27,363.276Z" fill="#fff"/>
      <path id="Path_80562" data-name="Path 80562" d="M167.173,370.087h-2.621a.7.7,0,0,1-.6-1.052,9.381,9.381,0,0,1,3.763-3.258.139.139,0,0,1,.2.171A14.858,14.858,0,0,0,167.173,370.087Z" fill="#fff"/>
    </g>
    <path id="Path_80563" data-name="Path 80563" d="M167.5,372.873H149.538a7.014,7.014,0,0,1-6.948-7.062V342.189a7.014,7.014,0,0,1,6.948-7.062h24.041a7.014,7.014,0,0,1,6.948,7.062V360.6a9.858,9.858,0,0,1,3.006,1.85V342.189a10.066,10.066,0,0,0-9.954-10.117H149.538a10.067,10.067,0,0,0-9.955,10.117v23.622a10.067,10.067,0,0,0,9.955,10.117h19.451A10.109,10.109,0,0,1,167.5,372.873Z" fill="#fff"/>
    <path id="Path_80564" data-name="Path 80564" d="M179.814,364.083l-5,1.517a.808.808,0,0,0-.568.775v5.211a1.655,1.655,0,0,0-.442-.061,1.708,1.708,0,1,0,1.68,1.707v-6.478l3.891-1.161v4.376a1.656,1.656,0,0,0-.442-.062,1.708,1.708,0,1,0,1.68,1.707l.153-6.785A.749.749,0,0,0,179.814,364.083Z" fill="#fff"/>
  </g>
</svg>
