<svg xmlns="http://www.w3.org/2000/svg" width="51" height="51" viewBox="0 0 51 51"><defs><style>.a,.c,.e{fill:none;}.b{fill:#04bd9e;}.c,.e{stroke:#004338;stroke-miterlimit:10;stroke-width:2px;}.d{fill:#fff;}.e{stroke-linecap:round;}</style></defs><g transform="translate(-26 -735.703)"><rect class="a" width="51" height="51" transform="translate(26 735.703)"/><g transform="translate(29.382 744.433)"><g transform="translate(0)"><path class="b" d="M41.639,52.535H6.213A3.229,3.229,0,0,1,3,49.322v-5.81A3.229,3.229,0,0,1,6.213,40.3H41.639a3.229,3.229,0,0,1,3.213,3.213v5.849a3.213,3.213,0,0,1-3.213,3.174Z" transform="translate(-0.897 -22.375)"/><path class="c" d="M41.639,52.535H6.213A3.229,3.229,0,0,1,3,49.322v-5.81A3.229,3.229,0,0,1,6.213,40.3H41.639a3.229,3.229,0,0,1,3.213,3.213v5.849a3.213,3.213,0,0,1-3.213,3.174Z" transform="translate(-3 -20.282)"/><circle class="d" cx="2.093" cy="2.093" r="2.093" transform="translate(4.024 24.042)"/><circle class="d" cx="2.093" cy="2.093" r="2.093" transform="translate(10.196 24.042)"/><line class="e" y2="16.046" transform="translate(30.589 3.972)"/><path class="e" d="M48.174,10.889a5.539,5.539,0,0,1,0-7.889" transform="translate(-23.169 -3)"/><path class="e" d="M70.4,3a5.539,5.539,0,0,1,0,7.889" transform="translate(-34.23 -3)"/></g></g></g></svg>