<svg id="Layer_1" data-name="Layer 1" xmlns="http://www.w3.org/2000/svg" viewBox="0 0 120 42"><defs><style>.cls-1{fill:#f70000;}.cls-2{fill:#fff;}.cls-3{fill:#1034be;}</style></defs><circle class="cls-1" cx="20.99995" cy="20.99999" r="20.99995" transform="translate(-5.87317 8.35748) rotate(-19.80533)"/><path class="cls-2" d="M31.06293,25.20839a2.56521,2.56521,0,0,1-2.61029-2.75527,2.61323,2.61323,0,1,1,5.22.02417A2.59939,2.59939,0,0,1,31.06293,25.20839Zm.04852-9.01453c-3.964,0-6.59811,2.51372-6.59811,6.25926,0,3.84261,2.53747,6.30808,6.52523,6.30808,3.96338,0,6.5737-2.46547,6.5737-6.28391C37.61227,18.70758,35.02631,16.19386,31.11145,16.19386ZM20.89832,10.70811a2.1607,2.1607,0,0,0-2.44062,2.17537c0,1.35328.96662,2.19887,2.51316,2.19887a2.16564,2.16564,0,0,0,2.44128-2.19887C23.41214,11.5298,22.44547,10.70811,20.89832,10.70811Zm.26571,5.60672h-.48327c-1.18418,0-2.0784.55555-2.0784,2.24761v7.73329c0,1.7162.87045,2.24808,2.12692,2.24808h.48324c1.18445,0,2.02985-.58011,2.02985-2.24808V18.56244C23.24237,16.82269,22.42111,16.31483,21.164,16.31483Zm-6.32715-3.64936h-.701c-1.3288,0-2.05408.74939-2.05408,2.24757v7.2263c0,1.86049-.62842,2.51375-2.10257,2.51375A3.56031,3.56031,0,0,1,7.12747,23.2269a2.41747,2.41747,0,0,0-1.59454,2.41672c0,1.93359,1.8121,3.11758,5.17148,3.11758,4.08438,0,6.23513-2.05417,6.23513-6.54962V14.913C16.93954,13.41486,16.21494,12.66547,14.83688,12.66547Z"/><rect class="cls-3" x="65.12653" y="16.91278" width="4.61151" height="15.54917"/><polygon class="cls-3" points="62.478 10 62.478 14.321 52.101 14.321 52.101 19.257 61.454 19.257 61.454 23.251 52.101 23.251 52.101 32.462 47.003 32.462 47.003 10 62.478 10"/><circle class="cls-3" cx="67.43224" cy="12.69549" r="2.69549"/><path class="cls-3" d="M77.4809,26.82387a4.20323,4.20323,0,0,0,1.28271,1.88353,3.33012,3.33012,0,0,0,4.05939-.01625,4.20744,4.20744,0,0,0,1.26672-1.89975,8.21368,8.21368,0,0,0,.42218-2.72806,7.05586,7.05586,0,0,0-.95788-3.86452,3.35934,3.35934,0,0,0-4.82294-.81189,4.08766,4.08766,0,0,0-1.26654,1.89974,8.44636,8.44636,0,0,0-.42218,2.77667A8.02758,8.02758,0,0,0,77.4809,26.82387Zm-.27607-9.12569h.06488a5.11748,5.11748,0,0,1,2.0785-1.83505,6.66656,6.66656,0,0,1,3.02014-.66576,6.0388,6.0388,0,0,1,3.31244.97451,7.00432,7.00432,0,0,1,2.48462,2.9552,11.225,11.225,0,0,1,.95788,4.90383,11.58845,11.58845,0,0,1-.90936,4.82247,6.92162,6.92162,0,0,1-2.468,3.02032,6.08969,6.08969,0,0,1-3.40991,1.023,7.31555,7.31555,0,0,1-3.26392-.66574,4.50138,4.50138,0,0,1-2.02972-1.93222H77.01v2.1633H72.59326V10.00139h4.61157Z"/><path class="cls-3" d="M102.634,22.24451q-.32519-3.572-3.50757-3.5723a3.47835,3.47835,0,0,0-2.549.94186,4.23905,4.23905,0,0,0-1.15319,2.63044Zm4.57941,2.923H95.42426A4.71033,4.71033,0,0,0,96.561,28.36632a4.00666,4.00666,0,0,0,2.98774,1.05546,4.2741,4.2741,0,0,0,2.20849-.5195,2.12713,2.12713,0,0,0,1.072-1.33154h4.0918a6.69384,6.69384,0,0,1-2.64679,3.962,8.48719,8.48719,0,0,1-4.953,1.364,8.99235,8.99235,0,0,1-4.51374-1.08792,7.28352,7.28352,0,0,1-2.9392-3.08525,10.09437,10.09437,0,0,1-1.023-4.66021A9.6712,9.6712,0,0,1,91.9007,19.533a7.91449,7.91449,0,0,1,2.95544-3.1826,8.19359,8.19359,0,0,1,4.33557-1.15307,7.83635,7.83635,0,0,1,4.40058,1.18554,7.42584,7.42584,0,0,1,2.728,3.26372,11.46126,11.46126,0,0,1,.92511,4.70912Z"/><path class="cls-3" d="M120,19.679a4.3839,4.3839,0,0,0-.585-.11357,6.35276,6.35276,0,0,0-.84442-.04869,4.13519,4.13519,0,0,0-3.45832,1.46138,6.11589,6.11589,0,0,0-1.15307,3.89705V32.462h-4.61151V15.61551H113.732v3.15431h.06482a5.52113,5.52113,0,0,1,1.8675-2.598,4.77608,4.77608,0,0,1,2.97137-.97456A5.13115,5.13115,0,0,1,120,15.35982Z"/></svg>