<svg xmlns="http://www.w3.org/2000/svg" width="56" height="56" viewBox="0 0 56 56"><defs><style>.a{fill:rgba(255,255,255,0);}.b{fill:#8cafff;}.c{fill:none;stroke:#234496;stroke-miterlimit:10;stroke-width:2px;}.d{fill:#fff;}</style></defs><g transform="translate(-0.486 -0.008)"><rect class="a" width="56" height="56" transform="translate(0.486 0.008)"/><g transform="translate(13.077 3.391)"><g transform="translate(0 0)"><path class="b" d="M28.19,43.758a3.666,3.666,0,0,1-3.377,3.893H6.381A3.631,3.631,0,0,1,3,43.758V6.893A3.631,3.631,0,0,1,6.381,3h18.5A3.625,3.625,0,0,1,28.2,6.893Z" transform="translate(0.307 0.964)"/><path class="c" d="M28.19,43.758a3.666,3.666,0,0,1-3.377,3.893H6.381A3.631,3.631,0,0,1,3,43.758V6.893A3.631,3.631,0,0,1,6.381,3h18.5A3.625,3.625,0,0,1,28.2,6.893Z" transform="translate(-2.995 -3)"/><path class="d" d="M23.49,65.6a2.29,2.29,0,1,0,2.29,2.29,2.29,2.29,0,0,0-2.29-2.29Z" transform="translate(-10.772 -29.767)"/></g></g></g></svg>